<svg width="60" height="60" viewBox="0 0 60 60" fill="none" xmlns="http://www.w3.org/2000/svg">
<g id="cat-icon">
<g id="Group">
<path id="Vector" d="M50.3009 43.8287L41.8632 11.8373C41.628 10.9457 41.0598 10.199 40.263 9.73491C39.4663 9.27061 38.5361 9.14487 37.645 9.37971L37.0723 9.53077L36.6707 7.98167C36.3935 6.93108 35.8836 6.22854 35.1551 5.89385C34.4402 5.56538 33.6013 5.62983 32.6626 6.08499L13.543 15.3246C12.084 16.0321 11.3251 17.6835 11.7387 19.2512L20.1773 51.2472H20.1775L20.3072 51.7395C20.5424 52.6309 21.1107 53.3776 21.9073 53.8417C22.442 54.1532 23.0366 54.3126 23.6393 54.3126C23.9347 54.3126 24.2321 54.2742 24.5255 54.197L47.8433 48.0471C49.6839 47.5615 50.7864 45.6692 50.3009 43.8287ZM33.352 7.50881C33.5972 7.3901 33.912 7.27151 34.192 7.27151C34.3001 7.27151 34.4031 7.28909 34.4947 7.33139C34.8412 7.49042 35.0375 7.99233 35.1415 8.38643L35.5425 9.93425L24.7 12.7939L19.6718 14.1199L33.352 7.50881ZM47.4398 46.5171L24.122 52.667C23.6391 52.7946 23.1355 52.7261 22.7038 52.4747C22.2723 52.2232 21.9643 51.8187 21.8371 51.3357L21.7073 50.8435L13.3995 19.3443C13.2721 18.8612 13.3403 18.3576 13.5919 17.9258C13.8434 17.4944 14.2479 17.1864 14.7308 17.0591L38.0486 10.9092C38.2073 10.8673 38.3685 10.8465 38.5287 10.8465C38.855 10.8465 39.1771 10.9329 39.4669 11.1017C39.8984 11.353 40.2063 11.7577 40.3336 12.2406L48.7711 44.2321C49.0341 45.2291 48.4369 46.2542 47.4398 46.5171Z" fill="black"/>
<path id="Vector_2" d="M29.9453 36.1606C30.7098 36.1606 31.4794 36.0581 32.2369 35.8511C32.3907 35.8091 32.542 35.7624 32.6914 35.7127C32.7164 35.7044 32.7408 35.6947 32.7656 35.6861C32.8938 35.6421 33.0206 35.5958 33.1455 35.5464C33.1598 35.5408 33.1739 35.5344 33.1881 35.5288C33.325 35.4737 33.4596 35.4155 33.5923 35.3541C33.5952 35.3527 33.5982 35.3513 33.601 35.3499C33.8924 35.2146 34.1732 35.0642 34.4434 34.8998C34.444 34.8993 34.4447 34.8989 34.4453 34.8986C36.258 33.7957 37.5809 32.0683 38.2018 30.0878C38.213 30.053 38.2241 30.0183 38.2346 29.9833C38.2564 29.9106 38.2769 29.8376 38.2969 29.7642C38.3091 29.719 38.3208 29.6739 38.3324 29.6284C38.3502 29.558 38.368 29.4878 38.3841 29.4169C38.3966 29.3618 38.4074 29.3064 38.419 29.251C38.4412 29.143 38.4615 29.0346 38.4798 28.9258C38.4903 28.8627 38.501 28.7997 38.5101 28.7363C38.5188 28.6758 38.5266 28.6153 38.5339 28.5546C38.542 28.4876 38.5494 28.4203 38.556 28.3531C38.5615 28.2969 38.5673 28.241 38.5718 28.1847C38.58 28.0798 38.5863 27.9748 38.5907 27.8694C38.5926 27.823 38.5935 27.7765 38.5946 27.73C38.5971 27.6369 38.5983 27.5438 38.5976 27.4504C38.5972 27.4022 38.5959 27.354 38.5949 27.3059C38.5928 27.2209 38.5894 27.1358 38.5848 27.0505C38.5823 27.006 38.5803 26.9615 38.5772 26.9168C38.5685 26.7911 38.5577 26.665 38.5433 26.5388C38.5417 26.5258 38.5396 26.5126 38.538 26.4998C38.5241 26.383 38.5075 26.2663 38.4887 26.1495C38.4821 26.1089 38.4748 26.0685 38.4676 26.028C38.4511 25.9336 38.4328 25.8395 38.413 25.7452C38.4049 25.7062 38.3968 25.667 38.3882 25.628C38.3591 25.4985 38.3278 25.3689 38.2925 25.2395C38.2573 25.1104 38.2182 24.9831 38.1776 24.857C38.1654 24.8195 38.1525 24.7824 38.14 24.7451C38.1087 24.6525 38.0758 24.5609 38.0417 24.4699C38.028 24.4333 38.0146 24.3967 38.0003 24.3604C37.9529 24.2394 37.9038 24.1196 37.8513 24.0018C37.8476 23.9931 37.8432 23.9847 37.8392 23.9761C37.79 23.8665 37.7386 23.7589 37.6853 23.6521C37.6665 23.6147 37.6473 23.5778 37.6281 23.5409C37.5862 23.46 37.543 23.3801 37.4987 23.3009C37.4785 23.2647 37.4586 23.2286 37.4379 23.1928C37.3757 23.0851 37.3118 22.9786 37.2452 22.8743C37.2339 22.8566 37.2217 22.8394 37.2102 22.8218C37.153 22.7335 37.0943 22.6465 37.0339 22.5606C37.0076 22.5232 36.9808 22.4862 36.9538 22.4493C36.9047 22.3817 36.8545 22.3149 36.8034 22.2487C36.776 22.2128 36.7486 22.1769 36.7205 22.1415C36.6466 22.0492 36.5716 21.958 36.4944 21.869C36.4727 21.844 36.4501 21.82 36.4282 21.7953C36.3669 21.726 36.3047 21.6577 36.2413 21.5907C36.2072 21.5548 36.1727 21.5196 36.1382 21.4844C36.0834 21.4283 36.0279 21.3734 35.9716 21.3191C35.9371 21.2857 35.9028 21.2521 35.8677 21.2192C35.7827 21.1397 35.6966 21.0615 35.6086 20.9857C35.5454 20.911 35.4701 20.8485 35.3855 20.802C35.287 20.7228 35.1871 20.6459 35.0853 20.571C35.0818 20.5685 35.0782 20.5658 35.0748 20.5633C34.975 20.49 34.8737 20.4191 34.7709 20.3502C34.7659 20.3468 34.7609 20.3434 34.7558 20.34C34.6532 20.2715 34.5491 20.2053 34.4436 20.1412C34.4394 20.1386 34.4352 20.136 34.431 20.1335C34.3236 20.0685 34.2149 20.0057 34.1048 19.9455C34.1044 19.9452 34.1039 19.945 34.1034 19.9446C32.751 19.2041 31.2017 18.8224 29.6096 18.8869H29.6093C29.6026 18.8873 29.5962 18.8876 29.5896 18.8876C29.4251 18.8948 29.26 18.906 29.0945 18.9229C29.0926 18.923 29.0906 18.9231 29.0887 18.9233C28.9432 18.9381 28.7976 18.9566 28.6517 18.9791C28.6383 18.9812 28.6248 18.9826 28.6112 18.9849C28.478 19.0061 28.3448 19.0309 28.2116 19.0585C28.1876 19.0634 28.1637 19.0671 28.1398 19.0723C27.9865 19.1053 27.8335 19.1421 27.6805 19.1839C27.555 19.2182 27.4314 19.2562 27.3088 19.2957C27.2703 19.3081 27.2321 19.3208 27.1941 19.3336C27.1041 19.3641 27.0151 19.3958 26.9267 19.429C26.8671 19.4513 26.8079 19.4744 26.749 19.4979C26.673 19.5285 26.5973 19.5593 26.5226 19.5919C26.455 19.6212 26.388 19.6518 26.3214 19.6826C26.2895 19.6975 26.2578 19.7127 26.2261 19.728C25.9806 19.8455 25.7427 19.9736 25.5123 20.1119C25.5078 20.1142 25.504 20.1171 25.4998 20.1195C25.3779 20.193 25.2582 20.2692 25.1408 20.3482C25.1389 20.3495 25.1372 20.3507 25.1353 20.3519C24.3182 20.903 23.6109 21.5847 23.0346 22.3602C23.0325 22.3629 23.0305 22.3657 23.0284 22.3683C22.5203 23.0537 22.1147 23.811 21.8264 24.6153C21.819 24.6338 21.8115 24.6521 21.8058 24.6714L21.8057 24.6717C21.7772 24.7531 21.7506 24.8352 21.7246 24.9175C21.7144 24.9494 21.7042 24.9814 21.6944 25.0136C21.6702 25.0932 21.6469 25.1728 21.6248 25.2532C21.6162 25.2849 21.6082 25.3166 21.5999 25.3484C21.5333 25.6035 21.4781 25.8619 21.435 26.1235C21.4271 26.171 21.4192 26.2187 21.4121 26.2667C21.4017 26.3371 21.3921 26.4075 21.3834 26.4784C21.3765 26.534 21.3709 26.5895 21.3651 26.6453C21.3583 26.7113 21.3511 26.7773 21.3458 26.8436C21.3369 26.9554 21.3301 27.0676 21.3255 27.1803C21.3234 27.2345 21.3231 27.289 21.322 27.3434C21.3204 27.4174 21.3194 27.4916 21.3197 27.5657C21.32 27.6212 21.321 27.6767 21.3223 27.7322C21.3242 27.8113 21.3275 27.8905 21.3316 27.9699C21.3341 28.0181 21.3362 28.0662 21.3395 28.1146C21.348 28.2386 21.3589 28.3627 21.3729 28.487C21.376 28.5147 21.3805 28.5424 21.384 28.57C21.3966 28.673 21.411 28.7759 21.4275 28.879C21.4344 28.9223 21.4421 28.9657 21.4498 29.009C21.4659 29.1013 21.4837 29.1935 21.5032 29.2859C21.5115 29.3261 21.5197 29.3663 21.5286 29.4062C21.5578 29.536 21.5891 29.6657 21.6244 29.7952C22.2328 32.0212 23.6717 33.8769 25.676 35.0208C26.9992 35.7756 28.4631 36.1606 29.9453 36.1606ZM27.7319 34.2164C27.6347 34.1839 27.5381 34.1483 27.4419 34.1114C27.4109 34.0994 27.3799 34.0867 27.3489 34.0744C27.2811 34.0473 27.2137 34.019 27.1466 33.9897C27.1141 33.9755 27.0816 33.9615 27.0493 33.9468C26.9678 33.9097 26.8867 33.8711 26.8063 33.8308C26.7928 33.824 26.779 33.8179 26.7655 33.811L27.3196 33.6596C27.4527 33.8479 27.5897 34.0339 27.7322 34.2165C27.7319 34.2164 27.7319 34.2164 27.7319 34.2164ZM26.8373 29.1908L29.4044 28.4892L30.1575 31.2439L28.0101 31.8308C27.5224 31.0024 27.1305 30.1221 26.8373 29.1908ZM31.044 34.4901C30.9054 34.512 30.7667 34.5291 30.6279 34.5427C30.6145 34.544 30.6012 34.5451 30.5879 34.5464C30.4483 34.5592 30.3088 34.5685 30.1693 34.573C29.7267 34.1408 29.3217 33.6869 28.9519 33.2133L30.5746 32.7698L31.0448 34.4901C31.0446 34.4901 31.0444 34.4901 31.044 34.4901ZM33.0225 33.8753H33.0223C32.8745 33.9461 32.7241 34.0122 32.5708 34.0729L32.1006 32.3528L33.421 31.9919C33.3329 32.5991 33.2031 33.2267 33.0225 33.8753ZM33.5616 30.3134L31.6837 30.8267L30.9307 28.0721L33.2985 27.4248C33.4836 28.3126 33.5836 29.2772 33.5616 30.3134ZM34.9413 32.5171C34.9958 32.1858 35.0376 31.8608 35.07 31.5413L35.9051 31.313C35.6248 31.752 35.3027 32.1558 34.9413 32.5171ZM36.9314 26.4318C36.9509 26.5554 36.9669 26.6792 36.9797 26.803C36.9805 26.8108 36.9811 26.8185 36.982 26.8262C36.9937 26.9438 37.0026 27.0612 37.0085 27.1786C37.009 27.1881 37.0094 27.1976 37.0098 27.2071C37.0153 27.3249 37.0178 27.4425 37.0172 27.5601C37.0171 27.5671 37.0172 27.5741 37.0171 27.5813C37.0161 27.7047 37.0121 27.8278 37.0048 27.9506V27.951C36.9741 28.4551 36.8889 28.9545 36.75 29.442L35.1472 29.88C35.1373 28.8467 35.0196 27.8864 34.831 27.006L36.9314 26.4318ZM34.7872 22.3745C34.9713 22.5468 35.1464 22.7291 35.312 22.9213C35.3134 22.923 35.3147 22.9245 35.3161 22.9261C35.5638 23.2144 35.7896 23.5242 35.9901 23.8541C35.9904 23.8545 35.9907 23.8549 35.991 23.8554C36.1919 24.1861 36.3674 24.5369 36.5141 24.9057V24.9058L34.4153 25.4795C34.1243 24.6048 33.7751 23.8333 33.4203 23.1749C33.3521 23.0485 33.283 22.9258 33.2134 22.8049L34.7872 22.3745ZM31.7518 20.6945C31.8657 20.7246 31.9786 20.7577 32.0905 20.7934C32.0939 20.7946 32.0975 20.7956 32.1009 20.7967C32.4408 20.9057 32.7715 21.0399 33.09 21.198L33.0905 21.1982L32.3085 21.4119C32.1186 21.1517 31.9317 20.9126 31.7518 20.6945ZM32.8789 25.8994L30.5134 26.5459L29.7494 23.7515L31.6213 23.2398C32.0837 23.9921 32.5303 24.8812 32.8789 25.8994ZM28.8743 20.5472C29.0422 20.521 29.2099 20.5005 29.3773 20.4864C29.3797 20.4862 29.3819 20.4858 29.3844 20.4857C29.6478 20.7264 30.1207 21.1908 30.6564 21.8635L29.3326 22.2253L28.8738 20.5473L28.8743 20.5472ZM26.5554 21.3365C26.5554 21.3365 26.5557 21.3362 26.556 21.3362C26.6773 21.2694 26.8012 21.2063 26.9272 21.1463C26.9375 21.1415 26.9476 21.1365 26.9578 21.1317C27.085 21.072 27.2143 21.0153 27.3463 20.9628C27.3465 20.9628 27.3467 20.9625 27.3471 20.9624L27.8064 22.6425L26.271 23.0622C26.3546 22.2744 26.4771 21.6713 26.5554 21.3365ZM28.2235 24.1685L28.9874 26.963L26.4506 27.6564C26.3365 27.0606 26.2563 26.4478 26.2142 25.8164C26.1892 25.4389 26.1793 25.075 26.1805 24.7272L28.2235 24.1685ZM24.705 22.8116C24.6807 23.0309 24.6592 23.263 24.6421 23.5075L24.0485 23.6698C24.2448 23.3678 24.4644 23.0813 24.705 22.8116ZM22.9867 28.6029C22.967 28.4767 22.951 28.3505 22.9383 28.2245C22.9369 28.2109 22.9359 28.1974 22.9346 28.1839C22.9239 28.071 22.9159 27.9583 22.9106 27.8458C22.9097 27.8261 22.909 27.8064 22.9083 27.7867C22.9042 27.6798 22.9025 27.5734 22.9032 27.467C22.9033 27.4449 22.9036 27.4226 22.9039 27.4006C22.9058 27.2956 22.91 27.1909 22.9165 27.0866C22.9178 27.0652 22.9188 27.0437 22.9202 27.0222C22.9278 26.914 22.9383 26.8063 22.951 26.699C22.9529 26.6829 22.9542 26.6669 22.9563 26.6509C23.0032 26.275 23.08 25.9055 23.1853 25.5455L24.6022 25.1582C24.6074 25.3865 24.6166 25.6199 24.6316 25.859C24.6792 26.6156 24.7773 27.3546 24.923 28.0736L22.9868 28.6029C22.9868 28.6032 22.9867 28.6029 22.9867 28.6029ZM23.9143 31.1622C23.9108 31.1564 23.9073 31.1506 23.904 31.1448C23.8435 31.0438 23.7858 30.941 23.7305 30.8367C23.7261 30.8284 23.7217 30.82 23.7172 30.8117C23.6625 30.7075 23.6103 30.6017 23.5607 30.4946C23.5575 30.4875 23.5542 30.4807 23.551 30.4737C23.4991 30.3605 23.4498 30.2459 23.4036 30.1294L25.3189 29.6058C25.6092 30.5324 25.9885 31.4173 26.4483 32.2575L25.0911 32.6285C24.6339 32.1944 24.2387 31.7017 23.9143 31.1622Z" fill="black"/>
<path id="Vector_3" d="M38.7558 38.396L27.6716 41.3194C26.1124 41.7307 25.1784 43.3338 25.5895 44.8931C25.7887 45.6483 26.2703 46.281 26.945 46.6742C27.3981 46.9382 27.9018 47.0729 28.4123 47.0729C28.6625 47.0729 28.9146 47.0405 29.163 46.9751L40.247 44.0517C41.0025 43.8525 41.6351 43.371 42.0282 42.6961C42.4214 42.0212 42.5285 41.2335 42.3292 40.4781C41.9181 38.9189 40.315 37.9855 38.7558 38.396Z" fill="black"/>
<path id="Vector_4" d="M13.8203 34.0419L11.1421 23.6305C11.0331 23.2073 10.6009 22.9526 10.1787 23.0616C9.75574 23.1706 9.50097 23.6016 9.60972 24.0248L12.288 34.4364C12.3799 34.7932 12.7012 35.0303 13.0535 35.0303C13.1189 35.0303 13.1852 35.0223 13.2513 35.0053C13.6744 34.8963 13.929 34.4652 13.8203 34.0419Z" fill="black"/>
<path id="Vector_5" d="M14.5124 39.908C14.9354 39.7991 15.1902 39.368 15.0814 38.9447L14.6478 37.2596C14.5387 36.8364 14.1074 36.5819 13.6846 36.6906C13.2616 36.7995 13.0068 37.2306 13.1156 37.6539L13.5491 39.339C13.641 39.696 13.9623 39.9331 14.3146 39.9331C14.38 39.9331 14.4462 39.925 14.5124 39.908Z" fill="black"/>
<path id="Vector_6" d="M15.8696 42.0092C15.7607 41.5861 15.3287 41.3317 14.9064 41.4402C14.4833 41.5492 14.2287 41.9803 14.3374 42.4036L15.9534 48.6853C16.0453 49.0422 16.3666 49.2794 16.7189 49.2794C16.7843 49.2794 16.8505 49.2713 16.9167 49.2543C17.3396 49.1453 17.5944 48.7142 17.4857 48.291L15.8696 42.0092Z" fill="black"/>
<path id="Vector_7" d="M48.3307 30.2692L48.7741 31.952C48.8679 32.3067 49.188 32.5415 49.5386 32.5415C49.6051 32.5415 49.6731 32.533 49.7407 32.5152C50.163 32.4038 50.4153 31.971 50.304 31.5486L49.8605 29.866C49.7491 29.4436 49.3166 29.1914 48.894 29.3026C48.4716 29.4141 48.2193 29.8467 48.3307 30.2692Z" fill="black"/>
<path id="Vector_8" d="M47.5239 27.2097C47.6175 27.5645 47.9377 27.7992 48.2883 27.7992C48.355 27.7992 48.4227 27.7908 48.4904 27.7729C48.9128 27.6615 49.1651 27.2288 49.0536 26.8064L47.4002 20.5344C47.2887 20.1121 46.8558 19.8604 46.4337 19.9711C46.0111 20.0824 45.7589 20.5153 45.8702 20.9376L47.5239 27.2097Z" fill="black"/>
</g>
</g>
</svg>
