<svg width="60" height="60" viewBox="0 0 60 60" fill="none" xmlns="http://www.w3.org/2000/svg">
<g id="cat-icon">
<g id="Layer_2">
<g id="Group">
<path id="Vector" d="M30 10.9688C26.625 10.9688 23.25 12.2813 20.7188 14.8125C18.1875 17.3438 16.875 20.7188 16.875 24.0938C16.875 27.4688 18.1875 30.8437 20.7188 33.375C23.25 35.9062 26.625 37.2188 30 37.2188C33.375 37.2188 36.75 35.9062 39.2813 33.375C41.8125 30.8437 43.125 27.4688 43.125 24.0938C43.125 20.7188 41.8125 17.3438 39.2813 14.8125C36.75 12.2813 33.375 10.9688 30 10.9688ZM37.9688 32.0625C35.8125 34.2188 32.9062 35.3438 30 35.3438C27.0938 35.3438 24.2812 34.2188 22.0312 32.0625C19.875 29.9062 18.75 27 18.75 24.0938C18.75 21.1875 19.875 18.375 22.0312 16.125C24.1875 13.9688 27.0938 12.8438 30 12.8438C32.9062 12.8438 35.7188 13.9688 37.9688 16.125C40.125 18.2813 41.25 21.1875 41.25 24.0938C41.25 27 40.125 29.8125 37.9688 32.0625Z" fill="black"/>
<path id="Vector_2" d="M27.5625 24.5625L24.0938 21.0937L23.4375 21.75L20.625 24.75L27.6562 31.7813L39.2813 20.1562L35.625 16.5L27.5625 24.5625ZM27.6562 29.1562L23.25 24.75L24.1875 23.7187L27.6562 27.1875L35.7187 19.125L36.75 20.1562L27.6562 29.1562Z" fill="black"/>
<path id="Vector_3" d="M49.9688 21.8437C49.875 21.2812 49.6875 20.9062 49.5 20.4375C49.125 19.875 48.6562 19.4062 48.375 18.9375C48 18.5625 47.7188 18.0937 47.625 17.8125C47.5312 17.625 47.5312 17.3438 47.5312 16.9688C47.5312 16.5 47.5312 16.0312 47.5312 15.4688C47.5312 14.8125 47.4375 14.0625 47.0625 13.3125C46.7812 12.8437 46.4062 12.5625 46.0312 12.2812C45.4688 11.9062 44.9062 11.7187 44.3438 11.4375C43.875 11.25 43.4062 10.9687 43.2188 10.7812C42.9375 10.5 42.6562 9.84375 42.2812 9.09375C42.0938 8.71875 41.9062 8.34375 41.7188 7.96875C41.4375 7.59375 41.1563 7.21875 40.6875 6.9375C40.0313 6.5625 39.2812 6.5625 38.5312 6.5625C37.9688 6.5625 37.5 6.5625 37.0312 6.5625C36.6562 6.5625 36.375 6.5625 36.1875 6.46875C35.8125 6.375 35.25 5.90625 34.6875 5.34375C34.4062 5.0625 34.0313 4.78125 33.6563 4.59375C33.2813 4.3125 32.8125 4.125 32.25 4.125C32.1563 4.125 32.0625 4.125 31.9688 4.125C31.5 4.125 31.0313 4.21875 30.6563 4.40625C30 4.59375 29.5312 4.875 29.0625 5.15625C28.5938 5.4375 28.2188 5.53125 27.9375 5.625H27.75C27.375 5.625 26.9062 5.53125 26.3438 5.34375C25.7812 5.15625 25.125 4.96875 24.375 4.96875C24.0938 4.96875 23.7187 4.96875 23.3437 5.15625C22.875 5.34375 22.4062 5.625 22.125 5.90625C21.6562 6.375 21.2812 6.9375 21 7.40625C20.625 7.875 20.3437 8.25 20.0625 8.34375C19.875 8.4375 19.6875 8.53125 19.4063 8.53125C18.9375 8.625 18.375 8.71875 17.7187 8.90625C17.0625 9.09375 16.4062 9.28125 15.8437 9.84375C15.4687 10.2187 15.2812 10.6875 15.0938 11.0625C14.9062 11.7187 14.8125 12.375 14.7187 12.9375C14.625 13.5 14.5312 13.9688 14.3438 14.1562C14.1562 14.5312 13.5938 14.9062 12.9375 15.375C12.6562 15.6562 12.2812 15.8437 11.9062 16.2187C11.625 16.5 11.25 16.9688 11.1562 17.4375C11.0625 17.8125 10.9687 18.0938 10.9687 18.4688C10.9687 19.2188 11.1563 19.875 11.3438 20.4375C11.5313 21 11.625 21.5625 11.625 21.8437V22.0312C11.625 22.4062 11.3437 22.9688 10.9687 23.625C10.7812 24 10.5938 24.2812 10.4063 24.75C10.2188 25.125 10.125 25.5937 10.125 26.0625C10.125 26.1562 10.125 26.25 10.125 26.3438C10.2188 26.9062 10.4062 27.2812 10.5938 27.75C10.9688 28.3125 11.4375 28.7812 11.7187 29.25C12.0937 29.625 12.375 30.0938 12.4688 30.375C12.5625 30.5625 12.5625 30.8437 12.5625 31.2187C12.5625 31.6875 12.5625 32.1562 12.5625 32.7188C12.5625 33.375 12.6562 34.125 13.0312 34.875C13.3125 35.3437 13.6875 35.625 14.0625 35.9062C14.625 36.2812 15.1875 36.4687 15.75 36.75C16.2187 36.9375 16.6875 37.2187 16.875 37.4062C17.1562 37.6875 17.4375 38.3437 17.8125 39.0937C18 39.4687 18.1875 39.8437 18.375 40.2187C18.6562 40.5937 18.9375 40.9687 19.4063 41.25C19.5 41.3437 19.6875 41.3437 19.7812 41.4375L15.8437 53.1562L22.0312 51.1875L25.7813 56.5312L30.0938 43.6875C30.0938 43.6875 30.1875 43.6875 30.1875 43.5937L34.5 56.4375L38.25 51.0937L44.4375 53.0625L40.0313 39.9375L40.125 39.8437C40.3125 39.75 40.5 39.6562 40.875 39.5625C41.3438 39.4687 41.9063 39.375 42.5625 39.1875C43.2188 39 43.875 38.8125 44.4375 38.25C44.8125 37.875 45 37.4062 45.1875 37.0312C45.375 36.375 45.4688 35.7187 45.5625 35.1562C45.6562 34.5937 45.75 34.125 45.9375 33.9375C46.125 33.5625 46.6875 33.1875 47.3438 32.7188C47.625 32.4375 48 32.25 48.375 31.875C48.6562 31.5937 49.0313 31.125 49.125 30.6562C49.2188 30.2812 49.3125 30 49.3125 29.625C49.3125 28.875 49.125 28.2187 48.9375 27.6562C48.75 27.0937 48.6563 26.5312 48.6563 26.25V26.0625C48.6563 25.6875 48.9375 25.125 49.3125 24.4688C49.5 24.0938 49.6875 23.8125 49.875 23.3437C50.0625 22.9687 50.1562 22.5 50.1562 22.0312C50.0625 22.0312 49.9688 21.9375 49.9688 21.8437ZM25.0313 52.3125L22.6875 48.9375L18.75 50.1562L21.6562 41.625C22.125 41.625 22.6875 41.625 23.0625 41.625C23.4375 41.625 23.7188 41.625 23.9062 41.7187C24.2812 41.8125 24.8437 42.2812 25.4062 42.8437C25.6875 43.125 26.0625 43.4062 26.4375 43.5937C26.8125 43.875 27.2813 44.0625 27.8438 44.0625L25.0313 52.3125ZM37.3125 48.9375L34.9688 52.3125L31.7813 42.75C31.875 42.75 32.0625 42.6562 32.1562 42.6562H32.3438C32.7188 42.6562 33.1875 42.75 33.75 42.9375C34.3125 43.125 34.9688 43.3125 35.7188 43.3125C36 43.3125 36.375 43.3125 36.75 43.125C37.2188 42.9375 37.6875 42.6562 37.9688 42.375C38.1562 42.1875 38.3438 41.9062 38.5312 41.7187L41.3438 50.25L37.3125 48.9375ZM48 22.7812C47.8125 23.1562 47.625 23.625 47.3438 24.1875C47.0625 24.75 46.7812 25.3125 46.6875 25.9688C46.6875 26.0625 46.6875 26.25 46.6875 26.3438C46.6875 27.0938 46.875 27.75 47.0625 28.3125C47.25 28.875 47.3438 29.4375 47.3438 29.7188C47.3438 29.9062 47.3438 30 47.25 30.0937C47.1563 30.2812 47.0625 30.375 46.875 30.5625C46.5938 30.8437 46.125 31.2187 45.6562 31.5C45.1875 31.875 44.625 32.25 44.25 32.9062C43.9688 33.2812 43.875 33.75 43.7812 34.125C43.5938 34.7812 43.5938 35.3437 43.4062 35.8125C43.3125 36.2812 43.125 36.6562 42.9375 36.8437C42.8438 36.9375 42.6562 37.0312 42.375 37.125C42 37.3125 41.4375 37.3125 40.875 37.5C40.3125 37.5937 39.6562 37.7812 39 38.1562C38.1562 38.7187 37.6875 39.4687 37.2188 40.0312C37.0313 40.3125 36.75 40.5937 36.5625 40.7812C36.375 40.9687 36.1875 41.0625 36.0938 41.1562C36 41.1562 35.9062 41.25 35.7188 41.25C35.3438 41.25 34.875 41.1562 34.3125 40.9687C33.75 40.7812 33.0938 40.5937 32.3438 40.5937C32.25 40.5937 32.0625 40.5937 31.9688 40.5937C31.0312 40.6875 30.2812 41.1562 29.625 41.5312C29.3438 41.7187 28.9688 41.8125 28.7813 42C28.5 42.0937 28.3125 42.1875 28.125 42.1875H28.0312C27.8437 42.1875 27.6562 42.0937 27.4688 42C27.0938 41.8125 26.7188 41.4375 26.25 40.9687C25.7813 40.5937 25.2188 40.125 24.5625 39.9375C24 39.75 23.5312 39.75 23.0625 39.75C22.5 39.75 21.9375 39.8437 21.5625 39.75C21 39.75 20.625 39.6562 20.4375 39.5625C20.3437 39.4687 20.1562 39.375 20.0625 39.0937C19.875 38.7187 19.5938 38.25 19.4063 37.6875C19.125 37.125 18.8438 36.4687 18.375 36C17.625 35.3437 16.7813 34.9687 16.125 34.6875C15.75 34.5 15.4687 34.4062 15.2812 34.2187C15.0937 34.0312 14.9062 33.9375 14.8125 33.8437C14.7188 33.6562 14.625 33.2812 14.625 32.7188C14.625 32.25 14.625 31.7812 14.625 31.2187C14.625 30.75 14.625 30.2812 14.4375 29.7188C14.0625 28.7812 13.5 28.125 12.9375 27.5625C12.6562 27.2812 12.4687 27 12.375 26.8125C12.1875 26.5312 12.1875 26.3437 12.1875 26.25V26.1562C12.1875 25.9687 12.1875 25.7812 12.375 25.5C12.5625 25.125 12.75 24.6562 13.0312 24.0938C13.3125 23.5312 13.5938 22.9687 13.6875 22.3125C13.6875 22.2187 13.6875 22.0312 13.6875 21.9375C13.6875 21.1875 13.5 20.5312 13.3125 19.9687C13.125 19.4062 13.0312 18.8437 13.0312 18.5625C13.0312 18.375 13.0312 18.2812 13.125 18.1875C13.2187 18 13.3125 17.9062 13.5 17.7187C13.7812 17.4375 14.25 17.0625 14.7187 16.7812C15.1875 16.4062 15.75 16.0312 16.125 15.375C16.4063 15 16.5 14.5312 16.5938 14.1562C16.7813 13.5 16.7812 12.9375 16.9688 12.4687C17.0625 12 17.25 11.625 17.4375 11.4375C17.5312 11.3437 17.7188 11.25 18 11.1562C18.375 10.9687 18.9375 10.9687 19.5 10.7812C20.0625 10.6875 20.7187 10.5 21.375 10.125C22.2187 9.5625 22.6875 8.8125 23.1563 8.25C23.3438 7.96875 23.625 7.6875 23.8125 7.5C24 7.3125 24.1875 7.21875 24.2812 7.125C24.375 7.125 24.4687 7.03125 24.6562 7.03125C25.0312 7.03125 25.5 7.125 26.0625 7.3125C26.625 7.5 27.2812 7.6875 28.0312 7.6875C28.125 7.6875 28.3125 7.6875 28.4062 7.6875C29.3438 7.59375 30.0938 7.125 30.75 6.75C31.0312 6.5625 31.4063 6.46875 31.5938 6.28125C31.875 6.1875 32.0625 6.09375 32.25 6.09375H32.3438C32.5312 6.09375 32.7188 6.1875 32.9062 6.28125C33.2812 6.46875 33.6563 6.84375 34.125 7.3125C34.5938 7.6875 35.1563 8.15625 35.8125 8.34375C36.0938 8.4375 36.5625 8.4375 37.0312 8.4375C37.5938 8.4375 38.1562 8.34375 38.5312 8.4375C39.0938 8.4375 39.4688 8.53125 39.6562 8.625C39.75 8.71875 39.9375 8.8125 40.0313 9.09375C40.2188 9.46875 40.5 9.9375 40.6875 10.5C40.9688 11.0625 41.25 11.7188 41.7188 12.1875C42.4688 12.8438 43.3125 13.2187 43.9688 13.5C44.3438 13.6875 44.625 13.7812 44.8125 13.9687C45 14.1562 45.1875 14.25 45.2812 14.3437C45.375 14.5312 45.4688 14.9062 45.4688 15.4688C45.4688 15.9375 45.4688 16.4062 45.4688 16.9688C45.4688 17.4375 45.4688 17.9062 45.6562 18.4688C46.0312 19.4062 46.5938 20.0625 47.1562 20.625C47.4375 20.9062 47.625 21.1875 47.7188 21.375C47.9063 21.6562 47.9062 21.8437 47.9062 21.9375V22.0312C48.1875 22.3125 48.0938 22.5 48 22.7812Z" fill="black"/>
</g>
</g>
</g>
</svg>
