<svg width="19" height="25" viewBox="0 0 19 25" fill="none" xmlns="http://www.w3.org/2000/svg">
<path id="documentation" d="M18.5903 6.30242L17.0625 4.7817V1.90505C17.0625 1.86598 17.0548 1.82729 17.0397 1.7912C17.0247 1.7551 17.0027 1.7223 16.975 1.69468C16.9472 1.66705 16.9143 1.64514 16.878 1.63019C16.8417 1.61524 16.8029 1.60754 16.7636 1.60754H15.4478V0.297508C15.4478 0.218604 15.4163 0.142932 15.3602 0.0871382C15.3042 0.0313445 15.2282 0 15.1489 0H0.298889C0.219619 0 0.143595 0.0313445 0.0875425 0.0871382C0.03149 0.142932 0 0.218604 0 0.297508V21.373C0 21.4519 0.03149 21.5276 0.0875425 21.5834C0.143595 21.6392 0.219619 21.6705 0.298889 21.6705H1.615V22.9795C1.615 23.0584 1.64649 23.134 1.70254 23.1898C1.7586 23.2456 1.83462 23.277 1.91389 23.277H3.23V24.587C3.23 24.6659 3.26149 24.7416 3.31754 24.7974C3.3736 24.8532 3.44962 24.8845 3.52889 24.8845H18.3789C18.4582 24.8845 18.5342 24.8532 18.5902 24.7974C18.6463 24.7416 18.6778 24.6659 18.6778 24.587V6.51283C18.6777 6.43394 18.6462 6.35828 18.5903 6.30242ZM15.6636 4.23037L17.6575 6.21505H15.6636V4.23037ZM0.597778 21.0747V0.59474H14.85V1.60754H1.91389C1.87464 1.60754 1.83577 1.61524 1.79951 1.63019C1.76325 1.64514 1.7303 1.66705 1.70254 1.69468C1.67479 1.7223 1.65277 1.7551 1.63775 1.7912C1.62273 1.82729 1.615 1.86598 1.615 1.90505V21.0747H0.597778ZM2.21278 22.6822V2.20228H16.465V4.18723L15.5761 3.30245C15.5484 3.27483 15.5154 3.25292 15.4791 3.23798C15.4429 3.22303 15.404 3.21535 15.3647 3.21536H3.52889C3.44986 3.21536 3.37405 3.24651 3.31803 3.30201C3.26202 3.3575 3.23037 3.43282 3.23 3.51148V22.6822H2.21278ZM3.82778 24.2898V3.8101H15.0661V6.51283C15.0661 6.59166 15.0976 6.66726 15.1536 6.72301C15.2096 6.77875 15.2855 6.81006 15.3647 6.81006H18.08V24.2898H3.82778ZM13.3861 6.15754V4.84557C13.3861 4.76698 13.3548 4.69158 13.2991 4.63588C13.2434 4.58018 13.1678 4.5487 13.0889 4.54834H4.85611C4.81687 4.5483 4.77801 4.55596 4.74175 4.57088C4.70549 4.5858 4.67254 4.60769 4.64478 4.6353C4.61702 4.6629 4.595 4.69568 4.57998 4.73176C4.56496 4.76784 4.55722 4.80651 4.55722 4.84557V6.15754C4.55722 6.19659 4.56496 6.23527 4.57998 6.27135C4.595 6.30743 4.61702 6.3402 4.64478 6.36781C4.67254 6.39541 4.70549 6.4173 4.74175 6.43222C4.77801 6.44714 4.81687 6.4548 4.85611 6.45477H13.0889C13.1678 6.4544 13.2434 6.42293 13.2991 6.36722C13.3548 6.31152 13.3861 6.23613 13.3861 6.15754ZM12.7886 5.86003H5.155V5.1428H12.7886V5.86003ZM8.48917 7.69015H16.3825C16.4618 7.69015 16.5378 7.72149 16.5938 7.77728C16.6499 7.83308 16.6814 7.90875 16.6814 7.98765C16.6814 8.06656 16.6499 8.14223 16.5938 8.19802C16.5378 8.25382 16.4618 8.28516 16.3825 8.28516H8.48917C8.4099 8.28516 8.33387 8.25382 8.27782 8.19802C8.22177 8.14223 8.19028 8.06656 8.19028 7.98765C8.19028 7.90875 8.22177 7.83308 8.27782 7.77728C8.33387 7.72149 8.4099 7.69015 8.48917 7.69015ZM16.6814 9.77215C16.6814 9.85105 16.6499 9.92673 16.5938 9.98252C16.5378 10.0383 16.4618 10.0697 16.3825 10.0697H6.52139C6.48139 10.0709 6.44155 10.0641 6.40424 10.0497C6.36693 10.0353 6.3329 10.0136 6.30418 9.98584C6.27545 9.95811 6.25262 9.92492 6.23702 9.88823C6.22143 9.85155 6.21339 9.81212 6.21339 9.77229C6.21339 9.73246 6.22143 9.69303 6.23702 9.65635C6.25262 9.61966 6.27545 9.58647 6.30418 9.55874C6.3329 9.531 6.36693 9.50929 6.40424 9.4949C6.44155 9.4805 6.48139 9.47371 6.52139 9.47492H16.3825C16.4217 9.47488 16.4606 9.48254 16.4969 9.49746C16.5331 9.51239 16.5661 9.53427 16.5938 9.56188C16.6216 9.58948 16.6436 9.62226 16.6586 9.65834C16.6737 9.69442 16.6814 9.73309 16.6814 9.77215ZM16.6814 11.5566C16.6814 11.6356 16.6499 11.7112 16.5938 11.767C16.5378 11.8228 16.4618 11.8542 16.3825 11.8542H6.52139C6.48139 11.8554 6.44155 11.8486 6.40424 11.8342C6.36693 11.8198 6.3329 11.7981 6.30418 11.7703C6.27545 11.7426 6.25262 11.7094 6.23702 11.6727C6.22143 11.636 6.21339 11.5966 6.21339 11.5568C6.21339 11.517 6.22143 11.4775 6.23702 11.4408C6.25262 11.4042 6.27545 11.371 6.30418 11.3432C6.3329 11.3155 6.36693 11.2938 6.40424 11.2794C6.44155 11.265 6.48139 11.2582 6.52139 11.2594H16.3825C16.4218 11.2594 16.4607 11.2671 16.4971 11.282C16.5334 11.297 16.5664 11.319 16.5941 11.3467C16.6219 11.3744 16.6439 11.4072 16.6589 11.4434C16.6738 11.4796 16.6815 11.5184 16.6814 11.5575V11.5566ZM16.6814 13.3414C16.6814 13.3805 16.6737 13.4191 16.6586 13.4552C16.6436 13.4913 16.6216 13.5241 16.5938 13.5517C16.5661 13.5793 16.5331 13.6012 16.4969 13.6161C16.4606 13.631 16.4217 13.6387 16.3825 13.6387H6.52139C6.48139 13.6399 6.44155 13.6331 6.40424 13.6187C6.36693 13.6043 6.3329 13.5826 6.30418 13.5548C6.27545 13.5271 6.25262 13.4939 6.23702 13.4572C6.22143 13.4205 6.21339 13.3811 6.21339 13.3413C6.21339 13.3014 6.22143 13.262 6.23702 13.2253C6.25262 13.1887 6.27545 13.1555 6.30418 13.1277C6.3329 13.1 6.36693 13.0783 6.40424 13.0639C6.44155 13.0495 6.48139 13.0427 6.52139 13.0439H16.3825C16.4618 13.0439 16.5378 13.0753 16.5938 13.1311C16.6499 13.1868 16.6814 13.2625 16.6814 13.3414ZM16.6814 15.1259C16.6814 15.165 16.6737 15.2036 16.6586 15.2397C16.6436 15.2758 16.6216 15.3086 16.5938 15.3362C16.5661 15.3638 16.5331 15.3857 16.4969 15.4006C16.4606 15.4155 16.4217 15.4232 16.3825 15.4231H6.52139C6.48139 15.4244 6.44155 15.4176 6.40424 15.4032C6.36693 15.3888 6.3329 15.3671 6.30418 15.3393C6.27545 15.3116 6.25262 15.2784 6.23702 15.2417C6.22143 15.205 6.21339 15.1656 6.21339 15.1258C6.21339 15.0859 6.22143 15.0465 6.23702 15.0098C6.25262 14.9732 6.27545 14.94 6.30418 14.9122C6.3329 14.8845 6.36693 14.8628 6.40424 14.8484C6.44155 14.834 6.48139 14.8272 6.52139 14.8284H16.3825C16.4618 14.8284 16.5378 14.8598 16.5938 14.9155C16.6499 14.9713 16.6814 15.047 16.6814 15.1259ZM16.6814 16.9104C16.6814 16.9495 16.6737 16.9881 16.6586 17.0242C16.6436 17.0603 16.6216 17.0931 16.5938 17.1207C16.5661 17.1483 16.5331 17.1702 16.4969 17.1851C16.4606 17.2 16.4217 17.2077 16.3825 17.2076H6.52139C6.48139 17.2089 6.44155 17.2021 6.40424 17.1877C6.36693 17.1733 6.3329 17.1516 6.30418 17.1238C6.27545 17.0961 6.25262 17.0629 6.23702 17.0262C6.22143 16.9895 6.21339 16.9501 6.21339 16.9103C6.21339 16.8704 6.22143 16.831 6.23702 16.7943C6.25262 16.7576 6.27545 16.7245 6.30418 16.6967C6.3329 16.669 6.36693 16.6473 6.40424 16.6329C6.44155 16.6185 6.48139 16.6117 6.52139 16.6129H16.3825C16.4618 16.6129 16.5378 16.6442 16.5938 16.7C16.6499 16.7558 16.6814 16.8315 16.6814 16.9104ZM11.7511 18.6949C11.7511 18.7738 11.7196 18.8495 11.6636 18.9053C11.6075 18.9611 11.5315 18.9924 11.4522 18.9924H6.52195C6.44268 18.9924 6.36665 18.9611 6.3106 18.9053C6.25455 18.8495 6.22306 18.7738 6.22306 18.6949C6.22306 18.616 6.25455 18.5403 6.3106 18.4845C6.36665 18.4287 6.44268 18.3974 6.52195 18.3974H11.4522C11.5315 18.3974 11.6075 18.4287 11.6636 18.4845C11.7196 18.5403 11.7511 18.616 11.7511 18.6949ZM7.99111 20.7769C7.91184 20.7769 7.83582 20.7456 7.77977 20.6898C7.72371 20.634 7.69222 20.5583 7.69222 20.4794C7.69222 20.4005 7.72371 20.3248 7.77977 20.269C7.83582 20.2132 7.91184 20.1819 7.99111 20.1819H10.78C10.8593 20.1819 10.9353 20.2132 10.9913 20.269C11.0474 20.3248 11.0789 20.4005 11.0789 20.4794C11.0789 20.5583 11.0474 20.634 10.9913 20.6898C10.9353 20.7456 10.8593 20.7769 10.78 20.7769H7.99111ZM11.2531 22.2639C11.2532 22.303 11.2455 22.3417 11.2306 22.3779C11.2156 22.4141 11.1936 22.4469 11.1659 22.4746C11.1382 22.5023 11.1052 22.5243 11.0689 22.5393C11.0326 22.5542 10.9937 22.562 10.9544 22.562H6.52195C6.44268 22.562 6.36665 22.5306 6.3106 22.4748C6.25455 22.419 6.22306 22.3434 6.22306 22.2645C6.22306 22.1856 6.25455 22.1099 6.3106 22.0541C6.36665 21.9983 6.44268 21.9669 6.52195 21.9669H10.9544C11.0336 21.9669 11.1095 21.9982 11.1655 22.0539C11.2215 22.1096 11.253 22.1851 11.2531 22.2639ZM14.7036 17.8505C14.1597 17.8505 13.628 18.011 13.1758 18.3118C12.7236 18.6126 12.3711 19.0401 12.1629 19.5403C11.9548 20.0404 11.9003 20.5908 12.0065 21.1218C12.1126 21.6528 12.3745 22.1405 12.7591 22.5234C13.1437 22.9062 13.6337 23.1669 14.1671 23.2725C14.7006 23.3781 15.2535 23.3239 15.756 23.1167C16.2585 22.9095 16.688 22.5587 16.9902 22.1086C17.2923 21.6584 17.4536 21.1292 17.4536 20.5878C17.4531 19.862 17.1632 19.166 16.6476 18.6528C16.132 18.1396 15.4328 17.851 14.7036 17.8505ZM14.7036 22.7281C14.2781 22.7281 13.8622 22.6025 13.5084 22.3672C13.1546 22.1319 12.8788 21.7975 12.716 21.4062C12.5532 21.0149 12.5106 20.5843 12.5936 20.1689C12.6766 19.7535 12.8815 19.3719 13.1824 19.0725C13.4832 18.773 13.8666 18.569 14.2839 18.4864C14.7012 18.4038 15.1338 18.4462 15.5269 18.6082C15.92 18.7703 16.256 19.0448 16.4924 19.397C16.7288 19.7491 16.855 20.1631 16.855 20.5867C16.8543 21.1544 16.6274 21.6986 16.224 22.1C15.8207 22.5014 15.2739 22.7275 14.7036 22.7281ZM16.2667 19.5692C16.3227 19.625 16.3541 19.7006 16.3541 19.7795C16.3541 19.8583 16.3227 19.9339 16.2667 19.9897L14.6444 21.6045C14.5884 21.6602 14.5124 21.6915 14.4332 21.6915C14.354 21.6915 14.278 21.6602 14.2219 21.6045L13.1411 20.5286C13.1126 20.5012 13.0899 20.4684 13.0743 20.4321C13.0587 20.3958 13.0504 20.3568 13.0501 20.3173C13.0498 20.2779 13.0573 20.2387 13.0724 20.2022C13.0874 20.1657 13.1095 20.1325 13.1376 20.1046C13.1656 20.0766 13.1989 20.0545 13.2356 20.0396C13.2723 20.0246 13.3116 20.0171 13.3513 20.0174C13.3909 20.0177 13.4301 20.0258 13.4666 20.0413C13.503 20.0569 13.536 20.0795 13.5636 20.1078L14.4333 20.9735L15.8442 19.5692C15.9002 19.5135 15.9762 19.4823 16.0554 19.4823C16.1346 19.4823 16.2106 19.5135 16.2667 19.5692Z" fill="#302D54"/>
</svg>
