<svg version="1.2" xmlns="http://www.w3.org/2000/svg" viewBox="0 0 30 30" width="30" height="30">
	<title>documentation (1)-svg</title>
	<style>
		.s0 { fill: #302d54 } 
	</style>
	<path id="documentation" fill-rule="evenodd" class="s0" d="m24.7 9.5v18.1q0 0.1-0.1 0.2-0.1 0.1-0.2 0.1h-14.9q-0.1 0-0.2-0.1-0.1-0.1-0.1-0.2v-1.3h-1.3q-0.1 0-0.2-0.1-0.1-0.1-0.1-0.2v-1.3h-1.3q-0.1 0-0.2-0.1-0.1-0.1-0.1-0.2v-21.1q0-0.1 0.1-0.2 0.1-0.1 0.2-0.1h14.8q0.2 0 0.3 0.1 0 0.1 0 0.2v1.3h1.4q0 0 0.1 0 0 0.1 0.1 0.1 0 0 0 0.1 0.1 0 0.1 0.1v2.9l1.5 1.5q0.1 0.1 0.1 0.2zm-0.6 17.8v-17.5h-2.7q-0.2 0-0.2-0.1-0.1-0.1-0.1-0.2v-2.7h-11.3v20.5zm-16.4-3.2v-19.2q0-0.1 0-0.1 0-0.1 0.1-0.1 0 0 0-0.1 0.1 0 0.2 0h12.9v-1h-14.3v20.5zm1.7 1.6v-19.2q0-0.1 0-0.2 0.1-0.1 0.3-0.1h11.8q0.1 0 0.1 0 0.1 0.1 0.1 0.1l0.9 0.9v-2h-14.3v20.5zm12.5-16.5h2l-2-2zm-2.4 0.2q-0.1 0.1-0.2 0.1h-8.2q-0.1 0-0.1-0.1-0.1 0-0.1 0-0.1-0.1-0.1-0.1 0-0.1 0-0.1v-1.3q0-0.1 0-0.2 0 0 0.1 0 0-0.1 0.1-0.1 0 0 0.1 0h8.2q0.1 0 0.2 0.1 0.1 0 0.1 0.2v1.3q0 0.1-0.1 0.2zm-0.5-1.2h-7.6v0.7h7.6zm-4.3 2.5h7.9q0.1 0 0.2 0.1 0.1 0.1 0.1 0.2 0 0.1-0.1 0.2-0.1 0.1-0.2 0.1h-7.9q-0.1 0-0.2-0.1-0.1-0.1-0.1-0.2 0-0.1 0.1-0.2 0.1-0.1 0.2-0.1zm8.2 2.1q0 0.1-0.1 0.2-0.1 0.1-0.2 0.1h-9.9q0 0-0.1 0 0 0-0.1-0.1 0 0 0-0.1-0.1 0-0.1-0.1 0-0.1 0.1-0.1 0-0.1 0-0.1 0.1-0.1 0.1-0.1 0.1 0 0.1 0h9.9q0.1 0 0.1 0 0.1 0.1 0.1 0.1 0 0 0.1 0.1 0 0 0 0.1zm0 1.8q0 0.1-0.1 0.2-0.1 0.1-0.2 0.1h-9.9q0 0-0.1 0 0-0.1-0.1-0.1 0 0 0-0.1-0.1-0.1-0.1-0.1 0-0.1 0.1-0.1 0-0.1 0-0.1 0.1-0.1 0.1-0.1 0.1 0 0.1 0h9.9q0.1 0 0.1 0 0.1 0 0.1 0.1 0 0 0.1 0.1 0 0 0 0.1zm0 1.8q0 0 0 0.1-0.1 0-0.1 0.1 0 0-0.1 0 0 0.1-0.1 0.1h-9.9q0 0-0.1 0 0-0.1-0.1-0.1 0-0.1 0-0.1-0.1-0.1-0.1-0.1 0-0.1 0.1-0.1 0-0.1 0-0.1 0.1-0.1 0.1-0.1 0.1 0 0.1 0h9.9q0.1 0 0.2 0.1 0.1 0.1 0.1 0.2zm0 1.8q0 0 0 0.1-0.1 0-0.1 0.1 0 0-0.1 0 0 0.1-0.1 0.1h-9.9q0 0-0.1-0.1 0 0-0.1 0 0-0.1 0-0.1-0.1-0.1-0.1-0.1 0-0.1 0.1-0.2 0 0 0-0.1 0.1 0 0.1 0 0.1 0 0.1 0h9.9q0.1 0 0.2 0 0.1 0.1 0.1 0.3zm0 1.7q0 0.1 0 0.2-0.1 0-0.1 0.1 0 0-0.1 0 0 0-0.1 0h-9.9q0 0-0.1 0 0 0-0.1 0 0-0.1 0-0.1-0.1-0.1-0.1-0.2 0 0 0.1-0.1 0 0 0-0.1 0.1 0 0.1 0 0.1-0.1 0.1-0.1h9.9q0.1 0 0.2 0.1 0.1 0.1 0.1 0.2zm-4.9 1.8q0 0.2-0.1 0.2-0.1 0.1-0.2 0.1h-5q-0.1 0-0.2-0.1-0.1 0-0.1-0.2 0-0.1 0.1-0.2 0.1-0.1 0.2-0.1h5q0.1 0 0.2 0.1 0.1 0.1 0.1 0.2zm-3.8 2.1q-0.1 0-0.2-0.1-0.1-0.1-0.1-0.2 0-0.1 0.1-0.2 0.1-0.1 0.2-0.1h2.8q0.1 0 0.2 0.1 0.1 0.1 0.1 0.2 0 0.1-0.1 0.2-0.1 0.1-0.2 0.1zm3.3 1.5q0 0.1-0.1 0.1 0 0.1 0 0.1-0.1 0-0.1 0.1-0.1 0-0.1 0h-4.5q-0.1 0-0.2-0.1-0.1-0.1-0.1-0.2 0-0.1 0.1-0.2 0.1-0.1 0.2-0.1h4.5q0.1 0 0.2 0.1 0.1 0.1 0.1 0.2zm5.3-3.6c0.6 0.5 0.9 1.2 0.9 1.9 0 0.6-0.2 1.1-0.5 1.5-0.3 0.5-0.7 0.8-1.2 1.1-0.5 0.2-1.1 0.2-1.6 0.1-0.6-0.1-1.1-0.4-1.4-0.7-0.4-0.4-0.7-0.9-0.8-1.4-0.1-0.6 0-1.1 0.2-1.6 0.2-0.5 0.5-1 1-1.3 0.4-0.3 1-0.4 1.5-0.4 0.7 0 1.4 0.3 1.9 0.8zm-0.4 3.4c0.4-0.4 0.7-0.9 0.7-1.5q0-0.6-0.4-1.2-0.4-0.5-1-0.8-0.6-0.2-1.2-0.1-0.7 0.2-1.1 0.6-0.5 0.5-0.6 1.1-0.1 0.6 0.1 1.2 0.3 0.6 0.8 1 0.6 0.4 1.2 0.4c0.6 0 1.1-0.3 1.5-0.7zm0.1-2.5q0.1 0.1 0.1 0.2 0 0.1-0.1 0.2l-1.7 1.6q0 0.1-0.2 0.1-0.1 0-0.2-0.1l-1.1-1q0-0.1 0-0.1 0-0.1 0-0.1 0-0.1 0-0.2 0 0 0-0.1 0.1 0 0.1 0 0.1 0 0.2 0 0 0 0.1 0 0 0 0.1 0l0.8 0.9 1.4-1.4q0.1-0.1 0.3-0.1 0.1 0 0.2 0.1z"/>
</svg>