<svg width="25" height="25" viewBox="0 0 25 25" fill="none" xmlns="http://www.w3.org/2000/svg">
<path id="financing" d="M15.1265 6.23464V7.0217C16.2672 7.18332 17.356 7.97241 17.356 9.13703C17.356 9.40052 17.1431 9.61239 16.8784 9.61239C16.6137 9.61239 16.4009 9.40052 16.4009 9.13703C16.4009 8.52111 15.7316 8.10347 15.1265 7.98599V10.4171C16.2944 10.6426 17.356 10.9814 17.356 12.4842C17.356 13.6509 16.2672 14.44 15.1265 14.5996V15.3887C17.4665 15.1496 19.271 13.181 19.271 10.811C19.271 8.44098 17.4665 6.47232 15.1265 6.23328V6.23464ZM15.1265 11.3862V13.6387C15.7316 13.5191 16.4009 13.1035 16.4009 12.4856C16.4009 11.7888 15.8223 11.5403 15.1265 11.3862ZM14.1713 15.39V14.6009C13.0286 14.4413 11.9397 13.6522 11.9397 12.4856C11.9397 12.2235 12.1547 12.0102 12.4173 12.0102C12.68 12.0102 12.8949 12.2241 12.8949 12.4856C12.8949 13.1035 13.5641 13.5191 14.1713 13.6387V11.2076C13.0013 10.9821 11.9397 10.6419 11.9397 9.13839C11.9397 7.97377 13.0286 7.18468 14.1713 7.02306V6.236C11.8292 6.47504 10.0254 8.44369 10.0254 10.8137C10.0254 13.1837 11.8299 15.1523 14.1713 15.3914V15.39ZM14.1713 10.2385V7.98599C13.5641 8.10347 12.8949 8.52111 12.8949 9.13703C12.8949 9.83581 13.4734 10.0823 14.1713 10.2378V10.2385ZM15.1613 18.9335C15.1401 20.3364 14.2041 21.0603 12.8273 20.5463C12.0284 20.2482 10.9921 19.4917 9.78935 18.1824C9.61129 17.9902 9.62494 17.6894 9.81869 17.5142C10.0118 17.3369 10.314 17.3505 10.49 17.5434C11.5788 18.727 12.5033 19.4204 13.1623 19.6587C13.543 19.7952 13.9128 19.8509 14.0888 19.5181C14.1761 19.3524 14.2164 19.1195 14.2089 18.8289C13.9789 18.5382 13.7586 18.2401 13.5396 17.9434C12.3409 16.319 11.1668 14.7306 8.9543 15.7126H8.95635C7.80951 16.2552 5.90063 17.3587 4.70399 18.086L4.80428 21.8033L10.7991 23.3393C10.8127 23.3434 10.8263 23.3468 10.8379 23.3509C11.482 23.5723 12.1587 23.6436 12.8219 23.5702C13.4734 23.4989 14.1079 23.287 14.6782 22.9407L20.482 18.342C21.0796 17.8551 20.8975 16.7597 20.0447 16.5383C19.6906 16.446 19.2478 16.7421 18.8671 16.9424L15.1619 18.9328L15.1613 18.9335ZM4.50546 17.0993C4.8152 16.9125 5.12629 16.7278 5.43398 16.5485L5.24227 16.2171V16.2192L4.36015 14.7001C4.24826 14.5079 4.28851 14.2689 4.44133 14.1208L6.53169 11.9729C6.42117 11.2028 6.42117 10.4212 6.53169 9.6511L4.43178 7.49162C4.2735 7.33 4.25372 7.08146 4.37584 6.90082L6.12235 3.89046C6.23083 3.70167 6.44914 3.61543 6.6504 3.66704V3.665L9.58195 4.39637C10.1932 3.91898 10.8755 3.52443 11.5993 3.23582L12.4289 0.344294C12.4889 0.134458 12.6786 0 12.8874 0H16.4091C16.6356 0 16.8245 0.156189 16.875 0.366025L17.6971 3.23582C18.4203 3.52443 19.1032 3.91694 19.7145 4.39637L22.646 3.665C22.8705 3.60932 23.0963 3.72068 23.1932 3.92101L24.0535 5.40481H24.0555L24.9356 6.92391C25.0475 7.11609 25.0093 7.35513 24.8544 7.50113L22.7641 9.6511C22.8746 10.4212 22.8746 11.2028 22.7641 11.9729L24.864 14.1324C25.0168 14.2885 25.04 14.5215 24.9356 14.7001L23.1741 17.7335C23.0656 17.9223 22.8473 18.0072 22.6481 17.9569L22.646 17.959L21.7775 17.7417C21.7311 18.2422 21.4719 18.7718 21.0776 19.0856L15.2547 23.6979V23.6959C15.2411 23.7074 15.2261 23.7189 15.2083 23.7284C14.5063 24.1617 13.7252 24.4252 12.9263 24.5141C12.1335 24.6024 11.321 24.5182 10.5459 24.2527L4.69785 22.7553C4.6883 23.5621 4.02312 24.2167 3.21059 24.2167H1.48727C0.66927 24.2167 0 23.5505 0 22.7363V17.8279C0 17.0117 0.66927 16.3475 1.48727 16.3475H3.21059C3.75774 16.3475 4.24553 16.6443 4.50615 17.0999L4.50546 17.0993ZM6.25744 16.0752C7.08908 15.6053 8.0367 15.0973 8.54701 14.8549C9.23129 14.5432 9.87736 14.4121 10.4095 14.4237C8.51426 12.2194 8.64388 8.93535 10.7035 6.88588C12.8812 4.71826 16.4145 4.71826 18.5922 6.88588C20.7719 9.05555 20.7719 12.5705 18.5922 14.7395C17.2618 16.0637 15.3236 16.6545 13.4229 16.2314C13.8984 16.8052 14.3453 17.4497 14.8038 18.0486L18.4162 16.1085C19.0295 15.7832 19.5439 15.4287 20.2821 15.6216C20.8702 15.7757 21.3518 16.1798 21.6008 16.721L22.5294 16.9519L23.9293 14.5364L21.9297 12.4808C21.8178 12.3769 21.7557 12.2173 21.7844 12.0537C21.9256 11.2334 21.9276 10.3927 21.7844 9.57436C21.7612 9.42972 21.8035 9.27625 21.914 9.16216L23.9293 7.09096L23.2293 5.8822H23.2314L22.5294 4.67344L19.7138 5.37832C19.5705 5.41295 19.4143 5.3824 19.2922 5.27985C18.6904 4.77937 17.8997 4.30605 17.1534 4.04596C17.0081 3.99775 16.8887 3.88231 16.8436 3.72476L16.0488 0.950713H13.2469L12.4521 3.72476C12.4112 3.86533 12.3068 3.98621 12.1581 4.04053C11.4001 4.3176 10.6224 4.75492 10.0118 5.27442C9.89783 5.37289 9.73887 5.41703 9.58264 5.37832L6.76706 4.67344L5.36508 7.08893L7.36675 9.14451C7.48068 9.25044 7.54072 9.40799 7.51206 9.57368C7.37084 10.392 7.36879 11.2327 7.51206 12.053C7.53526 12.1977 7.49432 12.3511 7.38448 12.4632L5.36781 14.5364L6.06778 15.7452H6.06573L6.2588 16.0766L6.25744 16.0752ZM3.2099 17.2976H1.48658C1.19664 17.2976 0.954443 17.5359 0.954443 17.8272V22.7356C0.954443 23.0242 1.19595 23.2653 1.48658 23.2653H3.2099C3.5019 23.2653 3.74341 23.0249 3.74341 22.7356V17.8272C3.74341 17.5366 3.5019 17.2976 3.2099 17.2976Z" fill="#302D54"/>
</svg>
