<svg width="38" height="40" viewBox="0 0 38 40" fill="none" xmlns="http://www.w3.org/2000/svg">
<path d="M35.3182 27.0017H31.98V4.43011C31.98 1.98796 30.1424 0 27.884 0H3.55459C2.6122 0.00113828 1.70872 0.383507 1.04235 1.06323C0.375975 1.74296 0.00111592 2.66453 0 3.62581V11.5505C0.000781267 12.2764 0.283796 12.9722 0.786949 13.4855C1.2901 13.9987 1.9723 14.2874 2.68387 14.2882H6.02004V35.4275C6.02004 37.9488 7.91751 40 10.2476 40H34.4454C35.3878 39.9989 36.2913 39.6165 36.9577 38.9368C37.624 38.257 37.9989 37.3355 38 36.3742V29.7394C37.9992 29.0139 37.7165 28.3184 37.2138 27.8052C36.7111 27.292 36.0294 27.0031 35.3182 27.0017ZM2.68387 13.1772C2.26106 13.1767 1.85569 13.0052 1.55672 12.7003C1.25775 12.3953 1.08959 11.9818 1.08915 11.5505V3.62581C1.08915 3.29555 1.15292 2.96853 1.27682 2.66342C1.40072 2.35831 1.58232 2.08107 1.81126 1.84755C2.0402 1.61402 2.31199 1.42878 2.61111 1.3024C2.91023 1.17602 3.23083 1.11097 3.55459 1.11097C3.87836 1.11097 4.19896 1.17602 4.49808 1.3024C4.7972 1.42878 5.06899 1.61402 5.29793 1.84755C5.52687 2.08107 5.70847 2.35831 5.83237 2.66342C5.95627 2.96853 6.02004 3.29555 6.02004 3.62581V13.1772H2.68387ZM7.10919 35.4275V3.62581C7.10964 2.68722 6.752 1.7853 6.11196 1.11097H27.884C29.5415 1.11097 30.8908 2.59957 30.8908 4.43011V36.3742C30.8904 37.3128 31.248 38.2147 31.888 38.889H10.2476C8.51711 38.889 7.10919 37.3359 7.10919 35.4275ZM36.9109 36.3738C36.9109 37.0407 36.6511 37.6804 36.1887 38.152C35.7264 38.6236 35.0993 38.8886 34.4454 38.8886C33.7915 38.8886 33.1644 38.6236 32.7021 38.152C32.2397 37.6804 31.98 37.0407 31.98 36.3738V28.1127H35.3182C35.741 28.1133 36.1463 28.2848 36.4453 28.5898C36.7442 28.8947 36.9124 29.3081 36.913 29.7394L36.9109 36.3738ZM12.5486 13.1794C13.441 13.1794 14.3133 12.9094 15.0553 12.4037C15.7973 11.898 16.3755 11.1792 16.717 10.3382C17.0585 9.49719 17.1478 8.57181 16.9736 7.67905C16.7995 6.7863 16.3697 5.96628 15.7386 5.32269C15.1075 4.6791 14.3035 4.24086 13.4283 4.06338C12.553 3.8859 11.6458 3.97716 10.8214 4.32562C9.99704 4.67408 9.29246 5.26408 8.7968 6.02101C8.30114 6.77795 8.03667 7.66781 8.03684 8.57806C8.03818 9.79813 8.51398 10.9678 9.35983 11.8305C10.2057 12.6931 11.3525 13.1782 12.5486 13.1794ZM12.5486 5.08817C13.2254 5.08817 13.887 5.29289 14.4497 5.67643C15.0124 6.05997 15.451 6.60511 15.7099 7.24291C15.9689 7.8807 16.0367 8.58251 15.9046 9.25958C15.7725 9.93665 15.4466 10.5586 14.968 11.0467C14.4894 11.5348 13.8797 11.8672 13.2159 12.0018C12.5521 12.1364 11.8641 12.0672 11.2389 11.803C10.6136 11.5388 10.0792 11.0913 9.7033 10.5173C9.32736 9.94326 9.12675 9.2684 9.12683 8.57806C9.12784 7.65273 9.48868 6.76559 10.1302 6.11132C10.7717 5.45705 11.6414 5.08908 12.5486 5.08817ZM12.0004 11.1037V11.4477C11.9984 11.522 12.011 11.5959 12.0375 11.6651C12.0639 11.7343 12.1037 11.7974 12.1545 11.8506C12.2052 11.9039 12.266 11.9462 12.333 11.9751C12.4001 12.004 12.4722 12.0189 12.545 12.0189C12.6178 12.0189 12.6899 12.004 12.757 11.9751C12.8241 11.9462 12.8848 11.9039 12.9356 11.8506C12.9863 11.7974 13.0261 11.7343 13.0526 11.6651C13.079 11.5959 13.0916 11.522 13.0896 11.4477V11.1037C13.3514 11.0099 13.579 10.8369 13.7418 10.6077C13.9046 10.3785 13.995 10.1041 14.0008 9.82108V9.40645C14.0156 9.18667 13.97 8.96704 13.8689 8.77233C13.7679 8.57762 13.6155 8.41559 13.429 8.30452H13.4564C13.528 8.30452 13.5988 8.29014 13.6649 8.26221C13.7309 8.23428 13.791 8.19334 13.8415 8.14173C13.8921 8.09012 13.9322 8.02886 13.9595 7.96144C13.9868 7.89402 14.0009 7.82177 14.0008 7.74882V7.33462C13.9951 7.05162 13.9047 6.77716 13.7419 6.54795C13.579 6.31874 13.3515 6.14572 13.0896 6.05204V5.70796C13.0856 5.56331 13.0265 5.42594 12.9248 5.32505C12.8231 5.22416 12.6869 5.16772 12.545 5.16772C12.4032 5.16772 12.2669 5.22416 12.1652 5.32505C12.0635 5.42594 12.0044 5.56331 12.0004 5.70796V6.05204C11.7386 6.14578 11.5111 6.31881 11.3482 6.548C11.1854 6.7772 11.095 7.05164 11.0892 7.33462V7.74882C11.0743 7.96897 11.1202 8.18897 11.2216 8.38389C11.3231 8.5788 11.476 8.74084 11.6631 8.85161H11.6361C11.5646 8.85156 11.4938 8.86588 11.4277 8.89376C11.3616 8.92164 11.3015 8.96253 11.2509 9.0141C11.2003 9.06566 11.1602 9.12689 11.1328 9.19429C11.1054 9.26169 11.0913 9.33393 11.0913 9.40688V9.82151C11.0971 10.1041 11.1873 10.3783 11.3497 10.6073C11.5121 10.8364 11.7391 11.0095 12.0004 11.1037ZM12.6595 8.03527C12.1784 7.92989 12.1784 7.90624 12.1784 7.74968V7.33548C12.2033 7.25624 12.2522 7.1871 12.3181 7.13805C12.384 7.089 12.4634 7.06256 12.545 7.06256C12.6266 7.06256 12.7061 7.089 12.772 7.13805C12.8379 7.1871 12.8868 7.25624 12.9117 7.33548V7.74968C12.9115 7.82263 12.9255 7.89489 12.9528 7.96229C12.9802 8.02969 13.0204 8.09089 13.071 8.14237C12.9363 8.09921 12.7993 8.06346 12.6608 8.03527H12.6595ZM12.431 9.12129C12.9117 9.22667 12.9117 9.25032 12.9117 9.40645V9.82108C12.8868 9.90032 12.8379 9.96946 12.772 10.0185C12.7061 10.0676 12.6266 10.094 12.545 10.094C12.4634 10.094 12.384 10.0676 12.3181 10.0185C12.2522 9.96946 12.2033 9.90032 12.1784 9.82108V9.40645C12.1785 9.33357 12.1645 9.26138 12.1372 9.19406C12.1098 9.12673 12.0696 9.0656 12.019 9.01419C12.1547 9.05749 12.2927 9.09324 12.4322 9.12129H12.431ZM17.9459 7.71613C17.9459 7.56875 18.0032 7.4274 18.1054 7.32319C18.2076 7.21898 18.3462 7.16043 18.4906 7.16043H26.2787C26.4205 7.16446 26.5552 7.22475 26.6541 7.32848C26.753 7.43221 26.8083 7.57121 26.8083 7.71591C26.8083 7.86062 26.753 7.99961 26.6541 8.10335C26.5552 8.20708 26.4205 8.26737 26.2787 8.2714H18.4889C18.3448 8.27094 18.2068 8.21225 18.105 8.10818C18.0032 8.00411 17.946 7.86314 17.9459 7.71613ZM17.9459 10.163C17.946 10.0157 18.0034 9.87447 18.1056 9.77035C18.2077 9.66623 18.3462 9.60774 18.4906 9.60774H23.6973C23.8391 9.61177 23.9738 9.67206 24.0727 9.77579C24.1716 9.87953 24.2269 10.0185 24.2269 10.1632C24.2269 10.3079 24.1716 10.4469 24.0727 10.5507C23.9738 10.6544 23.8391 10.7147 23.6973 10.7187H18.4889C18.3448 10.7183 18.2066 10.6595 18.1048 10.5553C18.003 10.4512 17.9459 10.3101 17.9459 10.163ZM12.6751 15.4908H9.78251C9.71099 15.4907 9.64016 15.505 9.57406 15.5329C9.50797 15.5608 9.44791 15.6017 9.39732 15.6532C9.34672 15.7048 9.30659 15.766 9.27921 15.8334C9.25182 15.9008 9.23773 15.9731 9.23773 16.046V18.9987C9.23773 19.1461 9.29512 19.2874 9.39729 19.3916C9.49946 19.4959 9.63803 19.5544 9.78251 19.5544H12.6751C12.7469 19.5549 12.8181 19.5408 12.8846 19.5131C12.9511 19.4854 13.0116 19.4445 13.0625 19.3929C13.1135 19.3412 13.1539 19.2798 13.1815 19.2122C13.2091 19.1445 13.2233 19.072 13.2233 18.9987V16.046C13.2233 15.9728 13.2091 15.9003 13.1815 15.8326C13.1539 15.765 13.1134 15.7036 13.0625 15.652C13.0115 15.6004 12.9511 15.5596 12.8846 15.5319C12.8181 15.5042 12.7469 15.4902 12.6751 15.4908ZM12.1324 18.443H10.3269V16.6021H12.1324V18.443ZM28.7623 16.7256C28.7623 16.7986 28.7483 16.8709 28.7209 16.9383C28.6936 17.0058 28.6534 17.067 28.6028 17.1187C28.5522 17.1703 28.4922 17.2112 28.426 17.2391C28.3599 17.267 28.289 17.2813 28.2175 17.2813H14.7994C14.7266 17.2834 14.6542 17.2705 14.5863 17.2435C14.5185 17.2165 14.4566 17.176 14.4044 17.1242C14.3522 17.0724 14.3108 17.0105 14.2824 16.942C14.2541 16.8736 14.2395 16.8001 14.2395 16.7258C14.2395 16.6515 14.2541 16.578 14.2824 16.5096C14.3108 16.4412 14.3522 16.3792 14.4044 16.3274C14.4566 16.2757 14.5185 16.2351 14.5863 16.2081C14.6542 16.1811 14.7266 16.1683 14.7994 16.1703H28.2175C28.289 16.1703 28.3598 16.1846 28.4259 16.2125C28.492 16.2403 28.5521 16.2812 28.6027 16.3328C28.6533 16.3844 28.6934 16.4456 28.7208 16.513C28.7482 16.5804 28.7623 16.6526 28.7623 16.7256ZM14.2546 18.317C14.2552 18.17 14.3128 18.0292 14.4149 17.9254C14.5171 17.8217 14.6553 17.7634 14.7994 17.7634H21.7079C21.8524 17.7634 21.991 17.822 22.0931 17.9262C22.1953 18.0304 22.2527 18.1718 22.2527 18.3191C22.2527 18.4665 22.1953 18.6079 22.0931 18.7121C21.991 18.8163 21.8524 18.8748 21.7079 18.8748H14.7994C14.655 18.8747 14.5165 18.8161 14.4143 18.712C14.3122 18.6078 14.2548 18.4665 14.2546 18.3191V18.317ZM12.6751 21.0198H9.78251C9.71095 21.0197 9.64009 21.0341 9.57397 21.062C9.50785 21.0899 9.44777 21.1308 9.39717 21.1824C9.34657 21.234 9.30644 21.2953 9.27908 21.3628C9.25173 21.4302 9.23767 21.5025 9.23773 21.5755V24.5282C9.23773 24.6011 9.25182 24.6734 9.27921 24.7408C9.30659 24.8082 9.34672 24.8694 9.39732 24.921C9.44791 24.9725 9.50797 25.0134 9.57406 25.0413C9.64016 25.0692 9.71099 25.0835 9.78251 25.0834H12.6751C12.7469 25.084 12.8181 25.07 12.8846 25.0423C12.9511 25.0146 13.0115 24.9738 13.0625 24.9222C13.1134 24.8706 13.1539 24.8092 13.1815 24.7416C13.2091 24.6739 13.2233 24.6014 13.2233 24.5282V21.5755C13.2233 21.5022 13.2092 21.4296 13.1816 21.362C13.154 21.2943 13.1136 21.2329 13.0626 21.1812C13.0117 21.1295 12.9512 21.0887 12.8847 21.061C12.8182 21.0333 12.7469 21.0193 12.6751 21.0198ZM12.1307 23.9725H10.3269V22.1312H12.1324L12.1307 23.9725ZM28.7606 22.2551C28.7606 22.328 28.7465 22.4003 28.7191 22.4677C28.6917 22.5351 28.6516 22.5964 28.601 22.648C28.5504 22.6996 28.4904 22.7405 28.4243 22.7685C28.3582 22.7964 28.2873 22.8108 28.2158 22.8108H14.7994C14.6549 22.8108 14.5164 22.7522 14.4142 22.648C14.312 22.5438 14.2546 22.4024 14.2546 22.2551C14.2546 22.1077 14.312 21.9663 14.4142 21.8621C14.5164 21.7579 14.6549 21.6994 14.7994 21.6994H28.2175C28.362 21.6994 28.5005 21.7579 28.6027 21.8621C28.7049 21.9663 28.7623 22.1077 28.7623 22.2551H28.7606ZM14.253 23.8465C14.2531 23.6991 14.3105 23.5579 14.4127 23.4538C14.5148 23.3497 14.6533 23.2912 14.7977 23.2912H21.7079C21.7807 23.2891 21.8531 23.302 21.921 23.3289C21.9888 23.3559 22.0507 23.3965 22.1029 23.4483C22.1551 23.5001 22.1966 23.562 22.2249 23.6304C22.2532 23.6989 22.2678 23.7724 22.2678 23.8467C22.2678 23.9209 22.2532 23.9945 22.2249 24.0629C22.1966 24.1313 22.1551 24.1932 22.1029 24.245C22.0507 24.2968 21.9888 24.3374 21.921 24.3644C21.8531 24.3914 21.7807 24.4042 21.7079 24.4022H14.7994C14.6552 24.4022 14.5169 24.3438 14.4148 24.24C14.3127 24.1362 14.2551 23.9953 14.2546 23.8482L14.253 23.8465ZM12.6751 26.5492H9.78251C9.71099 26.5492 9.64016 26.5635 9.57406 26.5914C9.50797 26.6193 9.44791 26.6602 9.39732 26.7117C9.34672 26.7633 9.30659 26.8245 9.27921 26.8919C9.25182 26.9593 9.23773 27.0316 9.23773 27.1045V30.0572C9.23767 30.1302 9.25173 30.2025 9.27908 30.2699C9.30644 30.3374 9.34657 30.3987 9.39717 30.4503C9.44777 30.5019 9.50785 30.5428 9.57397 30.5707C9.64009 30.5986 9.71095 30.613 9.78251 30.6129H12.6751C12.7469 30.6134 12.8182 30.5994 12.8847 30.5717C12.9512 30.544 13.0117 30.5032 13.0626 30.4515C13.1136 30.3998 13.154 30.3384 13.1816 30.2707C13.2092 30.2031 13.2233 30.1305 13.2233 30.0572V27.1045C13.2233 27.0313 13.2091 26.9587 13.1815 26.8911C13.1539 26.8235 13.1134 26.7621 13.0625 26.7105C13.0115 26.6589 12.9511 26.6181 12.8846 26.5904C12.8181 26.5627 12.7469 26.5487 12.6751 26.5492ZM12.1307 29.5019H10.3269V27.6602H12.1324L12.1307 29.5019ZM28.7623 27.7849C28.7622 27.8579 28.7481 27.9301 28.7207 27.9974C28.6933 28.0648 28.6531 28.1259 28.6025 28.1775C28.5519 28.229 28.4919 28.2698 28.4258 28.2977C28.3598 28.3255 28.289 28.3398 28.2175 28.3398H14.7994C14.7266 28.3419 14.6542 28.329 14.5863 28.302C14.5185 28.275 14.4566 28.2345 14.4044 28.1827C14.3522 28.1309 14.3108 28.0689 14.2824 28.0005C14.2541 27.9321 14.2395 27.8586 14.2395 27.7843C14.2395 27.71 14.2541 27.6365 14.2824 27.5681C14.3108 27.4997 14.3522 27.4377 14.4044 27.3859C14.4566 27.3341 14.5185 27.2936 14.5863 27.2666C14.6542 27.2396 14.7266 27.2268 14.7994 27.2288H28.2175C28.2891 27.2288 28.36 27.2431 28.4261 27.271C28.4923 27.299 28.5524 27.3399 28.603 27.3916C28.6536 27.4433 28.6937 27.5046 28.721 27.5721C28.7484 27.6396 28.7624 27.7119 28.7623 27.7849ZM22.2527 29.3763C22.2531 29.4496 22.2394 29.5222 22.2122 29.5901C22.185 29.6579 22.145 29.7195 22.0943 29.7715C22.0437 29.8235 21.9835 29.8647 21.9172 29.8929C21.8508 29.921 21.7797 29.9355 21.7079 29.9355H14.7994C14.6549 29.9355 14.5164 29.8769 14.4142 29.7727C14.312 29.6685 14.2546 29.5272 14.2546 29.3798C14.2546 29.2324 14.312 29.0911 14.4142 28.9868C14.5164 28.8826 14.6549 28.8241 14.7994 28.8241H21.7079C21.8518 28.8241 21.9899 28.8822 22.0919 28.9856C22.194 29.0891 22.2518 29.2296 22.2527 29.3763Z" fill="#E3E5EA"/>
</svg>
