<svg width="31" height="39" viewBox="0 0 31 39" fill="none" xmlns="http://www.w3.org/2000/svg">
<path d="M30.8716 5.85713L25.3253 0.133774C25.2421 0.0481817 25.1294 8.14085e-05 25.012 0H3.39044C3.27296 0 3.16029 0.0481583 3.07722 0.133881C2.99415 0.219603 2.94749 0.335867 2.94749 0.457097V3.04074H0.444175C0.385937 3.04058 0.328239 3.05226 0.274382 3.07513C0.220526 3.09801 0.171569 3.13161 0.130313 3.17403C0.0890571 3.21645 0.0563118 3.26684 0.033951 3.32233C0.0115903 3.37782 5.3209e-05 3.43732 0 3.49742V38.5429C0 38.6641 0.0466682 38.7804 0.129738 38.8661C0.212809 38.9518 0.325476 39 0.442955 39H27.6108C27.7283 39 27.8409 38.9518 27.924 38.8661C28.0071 38.7804 28.0537 38.6641 28.0537 38.5429V35.9597H30.557C30.6745 35.9597 30.7872 35.9115 30.8703 35.8258C30.9533 35.7401 31 35.6238 31 35.5026V6.18045C31.0002 6.05941 30.9541 5.94318 30.8716 5.85713ZM25.457 1.56042L29.4911 5.72335H25.457V1.56042ZM27.1711 38.0862H0.885911V3.95452H2.94627V35.5026C2.94627 35.6238 2.99293 35.7401 3.076 35.8258C3.15908 35.9115 3.27174 35.9597 3.38922 35.9597H27.169L27.1711 38.0862ZM3.83218 35.0455V0.914194H24.569V6.18045C24.569 6.30168 24.6157 6.41795 24.6988 6.50367C24.7818 6.58939 24.8945 6.63755 25.012 6.63755H30.1153V35.0455H3.83218ZM6.98001 9.04548C6.98012 8.92433 7.02683 8.80817 7.10989 8.72254C7.19295 8.63691 7.30555 8.58881 7.42296 8.58881H13.8312C13.8905 8.58695 13.9495 8.5974 14.0048 8.61953C14.0601 8.64165 14.1105 8.67501 14.153 8.71762C14.1956 8.76023 14.2294 8.81122 14.2526 8.86758C14.2757 8.92393 14.2876 8.9845 14.2876 9.04569C14.2876 9.10689 14.2757 9.16745 14.2526 9.22381C14.2294 9.28016 14.1956 9.33116 14.153 9.37377C14.1105 9.41638 14.0601 9.44973 14.0048 9.47186C13.9495 9.49399 13.8905 9.50443 13.8312 9.50258H7.42296C7.30548 9.50258 7.19282 9.45442 7.10975 9.3687C7.02668 9.28298 6.98001 9.16671 6.98001 9.04548ZM6.98001 12.1906C6.98001 12.0694 7.02668 11.9532 7.10975 11.8674C7.19282 11.7817 7.30548 11.7335 7.42296 11.7335H17.0351C17.1526 11.7335 17.2653 11.7817 17.3483 11.8674C17.4314 11.9532 17.4781 12.0694 17.4781 12.1906C17.4781 12.3119 17.4314 12.4281 17.3483 12.5139C17.2653 12.5996 17.1526 12.6477 17.0351 12.6477H7.42296C7.36469 12.6477 7.30699 12.6359 7.25317 12.6128C7.19935 12.5898 7.15046 12.556 7.10932 12.5134C7.06817 12.4708 7.03556 12.4203 7.01338 12.3647C6.99119 12.3091 6.97985 12.2495 6.98001 12.1894V12.1906ZM11.2088 26.6102C11.2087 26.7313 11.162 26.8475 11.0789 26.9331C10.9959 27.0187 10.8833 27.0668 10.7659 27.0668H7.42296C7.36369 27.0687 7.30466 27.0582 7.24938 27.0361C7.19409 27.014 7.14367 26.9806 7.10111 26.938C7.05855 26.8954 7.02471 26.8444 7.00161 26.7881C6.9785 26.7317 6.96659 26.6711 6.96659 26.61C6.96659 26.5488 6.9785 26.4882 7.00161 26.4318C7.02471 26.3755 7.05855 26.3245 7.10111 26.2819C7.14367 26.2393 7.19409 26.2059 7.24938 26.1838C7.30466 26.1617 7.36369 26.1512 7.42296 26.1531H10.7659C10.8833 26.1531 10.996 26.2012 11.0791 26.2869C11.1621 26.3727 11.2088 26.4889 11.2088 26.6102ZM26.9675 26.6102C26.9674 26.7313 26.9207 26.8475 26.8376 26.9331C26.7545 27.0187 26.6419 27.0668 26.5245 27.0668H12.3824C12.3232 27.0687 12.2641 27.0582 12.2089 27.0361C12.1536 27.014 12.1032 26.9806 12.0606 26.938C12.018 26.8954 11.9842 26.8444 11.9611 26.7881C11.938 26.7317 11.9261 26.6711 11.9261 26.61C11.9261 26.5488 11.938 26.4882 11.9611 26.4318C11.9842 26.3755 12.018 26.3245 12.0606 26.2819C12.1032 26.2393 12.1536 26.2059 12.2089 26.1838C12.2641 26.1617 12.3232 26.1512 12.3824 26.1531H26.5245C26.642 26.1531 26.7547 26.2012 26.8377 26.2869C26.9208 26.3727 26.9675 26.4889 26.9675 26.6102ZM26.9675 22.7773C26.9675 22.8985 26.9208 23.0148 26.8377 23.1005C26.7547 23.1862 26.642 23.2344 26.5245 23.2344H22.2892C22.1717 23.2344 22.0591 23.1862 21.976 23.1005C21.8929 23.0148 21.8463 22.8985 21.8463 22.7773C21.8463 22.656 21.8929 22.5398 21.976 22.454C22.0591 22.3683 22.1717 22.3202 22.2892 22.3202H26.5245C26.642 22.3202 26.7547 22.3683 26.8377 22.454C26.9208 22.5398 26.9675 22.656 26.9675 22.7773ZM6.98001 22.7773C6.98001 22.7172 6.99147 22.6578 7.01373 22.6023C7.03599 22.5469 7.06861 22.4965 7.10975 22.454C7.15088 22.4116 7.19971 22.3779 7.25345 22.355C7.30719 22.332 7.36479 22.3202 7.42296 22.3202H20.6743C20.7917 22.3202 20.9044 22.3683 20.9875 22.454C21.0705 22.5398 21.1172 22.656 21.1172 22.7773C21.1172 22.8985 21.0705 23.0148 20.9875 23.1005C20.9044 23.1862 20.7917 23.2344 20.6743 23.2344H7.42296C7.30548 23.2344 7.19282 23.1862 7.10975 23.1005C7.02668 23.0148 6.98001 22.8985 6.98001 22.7773ZM26.9675 18.9444C26.9675 19.0044 26.956 19.0638 26.9338 19.1193C26.9115 19.1747 26.8789 19.2251 26.8377 19.2676C26.7966 19.31 26.7478 19.3437 26.694 19.3667C26.6403 19.3896 26.5827 19.4015 26.5245 19.4015H7.42459C7.36532 19.4033 7.30629 19.3929 7.251 19.3707C7.19572 19.3486 7.1453 19.3152 7.10274 19.2726C7.06018 19.23 7.02634 19.179 7.00323 19.1227C6.98012 19.0663 6.96822 19.0058 6.96822 18.9446C6.96822 18.8834 6.98012 18.8228 7.00323 18.7664C7.02634 18.7101 7.06018 18.6591 7.10274 18.6165C7.1453 18.5739 7.19572 18.5405 7.251 18.5184C7.30629 18.4963 7.36532 18.4858 7.42459 18.4877H26.5245C26.6419 18.4877 26.7545 18.5358 26.8376 18.6214C26.9207 18.707 26.9674 18.8232 26.9675 18.9444ZM26.9675 15.1119C26.9675 15.2331 26.9208 15.3494 26.8377 15.4351C26.7547 15.5208 26.642 15.569 26.5245 15.569H18.9719C18.8544 15.569 18.7418 15.5208 18.6587 15.4351C18.5756 15.3494 18.529 15.2331 18.529 15.1119C18.529 14.9906 18.5756 14.8744 18.6587 14.7887C18.7418 14.7029 18.8544 14.6548 18.9719 14.6548H26.5245C26.642 14.6548 26.7547 14.7029 26.8377 14.7887C26.9208 14.8744 26.9675 14.9906 26.9675 15.1119ZM6.98001 15.1119C6.98001 15.0518 6.99147 14.9924 7.01373 14.9369C7.03599 14.8815 7.06861 14.8311 7.10975 14.7887C7.15088 14.7462 7.19971 14.7125 7.25345 14.6896C7.30719 14.6666 7.36479 14.6548 7.42296 14.6548H17.357C17.4744 14.6548 17.5871 14.7029 17.6702 14.7887C17.7532 14.8744 17.7999 14.9906 17.7999 15.1119C17.7999 15.2331 17.7532 15.3494 17.6702 15.4351C17.5871 15.5208 17.4744 15.569 17.357 15.569H7.42296C7.30548 15.569 7.19282 15.5208 7.10975 15.4351C7.02668 15.3494 6.98001 15.2331 6.98001 15.1119ZM26.362 30.0552C26.3615 30.1761 26.3147 30.2919 26.2317 30.3773C26.1486 30.4627 26.0362 30.5106 25.919 30.5106C25.9011 30.5106 25.882 30.5106 25.8633 30.5106C24.8665 30.5139 23.8741 30.6465 22.9094 30.9052C22.6891 30.9576 22.2892 31.0536 22.0519 30.7823L21.8117 30.8943C21.5065 31.0369 21.305 31.1308 21.1615 31.1878C21.0573 31.2483 20.9384 31.2768 20.819 31.2698C20.6996 31.2628 20.5847 31.2207 20.4877 31.1484C20.4098 31.0699 20.3569 30.9689 20.3358 30.8587C20.3148 30.7485 20.3266 30.6342 20.3699 30.5311C20.1061 30.6607 19.7961 30.8167 19.5339 30.9505C18.2941 31.5749 18.0832 31.6705 17.9202 31.6818H17.8905C17.7799 31.6821 17.6732 31.6397 17.5914 31.5629C17.5096 31.4861 17.4585 31.3805 17.4483 31.2668C17.4382 31.1532 17.4695 31.0397 17.5363 30.9487C17.6031 30.8578 17.7005 30.7958 17.8093 30.7752C17.9718 30.7194 18.6468 30.3785 19.1446 30.1277C19.5047 29.9465 19.8761 29.7587 20.1606 29.622C20.6255 29.3989 20.8181 29.3066 21.0412 29.4144C21.1013 29.4441 21.1543 29.4871 21.1965 29.5404C21.2386 29.5937 21.2689 29.6559 21.285 29.7226C21.3156 29.8503 21.3317 29.9811 21.333 30.1126L21.4411 30.0619L21.8068 29.8941C22.2022 29.7109 22.5436 29.5528 22.798 29.8484C22.8311 29.8859 22.8585 29.9283 22.8793 29.9742C23.873 29.7203 24.8932 29.5935 25.917 29.5968C25.9754 29.5966 26.0333 29.6083 26.0873 29.6312C26.1414 29.6542 26.1905 29.6879 26.2318 29.7305C26.2732 29.7731 26.306 29.8237 26.3283 29.8794C26.3506 29.9351 26.3621 29.9949 26.362 30.0552Z" fill="#E3E5EA"/>
</svg>
