<svg width="24" height="25" viewBox="0 0 24 25" fill="none" xmlns="http://www.w3.org/2000/svg">
<g id="inspection">
<path id="Vector" d="M1.06601 20.9001H11.0208C11.7772 21.2404 12.6144 21.4306 13.4974 21.4306C14.4718 21.4306 15.3925 21.1975 16.2081 20.7876L19.8126 24.3754C20.1545 24.7157 20.6014 24.8845 21.0509 24.8845C21.5005 24.8845 21.9473 24.7157 22.2892 24.3754L22.6742 23.9922C23.3552 23.3143 23.3552 22.2077 22.6742 21.5298L19.0051 17.8803C19.3442 17.13 19.5354 16.2967 19.5354 15.4205C19.5354 12.3659 17.2338 9.83912 14.2673 9.45863V1.06108C14.2673 0.476951 13.7908 0 13.2012 0H1.06601C0.479164 0 0 0.474272 0 1.06108V19.839C0 20.4231 0.476472 20.9001 1.06601 20.9001ZM0.80758 1.06108C0.80758 0.919069 0.923334 0.80385 1.06601 0.80385H13.2039C13.3466 0.80385 13.4624 0.919069 13.4624 1.06108V9.4104C10.1486 9.42916 7.45935 12.1194 7.45935 15.4205C7.45935 17.3096 8.33961 18.995 9.70981 20.0989H1.06601C0.923334 20.0989 0.80758 19.9837 0.80758 19.8417V1.06108ZM22.3781 22.7624C22.3781 23.0142 22.2811 23.2473 22.1035 23.4269L21.7185 23.81C21.3632 24.1637 20.7414 24.1637 20.386 23.81L16.9269 20.3669C17.5999 19.9033 18.1733 19.3085 18.6093 18.6198L22.1062 22.1005C22.2838 22.2774 22.3807 22.5132 22.3807 22.765L22.3781 22.7624ZM13.4974 20.6268C10.6116 20.6268 8.26424 18.2903 8.26424 15.4178C8.26424 12.5454 10.6116 10.2089 13.4974 10.2089C16.3831 10.2089 18.7305 12.5454 18.7305 15.4178C18.7305 18.2903 16.3831 20.6268 13.4974 20.6268Z" fill="#302D54"/>
<path id="Vector_2" d="M2.78886 6.95329H11.4784C11.7019 6.95329 11.8822 6.77377 11.8822 6.55137V2.29096C11.8822 2.06856 11.7019 1.88904 11.4784 1.88904H2.78886C2.56543 1.88904 2.38507 2.06856 2.38507 2.29096V6.54869C2.38507 6.77109 2.56543 6.95061 2.78886 6.95061V6.95329ZM3.19265 2.69557H11.0773V6.14944H3.19265V2.69289V2.69557Z" fill="#302D54"/>
<path id="Vector_3" d="M2.78886 9.43453H9.11491C9.33834 9.43453 9.5187 9.255 9.5187 9.0326C9.5187 8.8102 9.33834 8.63068 9.11491 8.63068H2.78886C2.56543 8.63068 2.38507 8.8102 2.38507 9.0326C2.38507 9.255 2.56543 9.43453 2.78886 9.43453Z" fill="#302D54"/>
<path id="Vector_4" d="M2.78886 12.3632H6.25877C6.4822 12.3632 6.66256 12.1837 6.66256 11.9613C6.66256 11.7389 6.4822 11.5594 6.25877 11.5594H2.78886C2.56543 11.5594 2.38507 11.7389 2.38507 11.9613C2.38507 12.1837 2.56543 12.3632 2.78886 12.3632Z" fill="#302D54"/>
<path id="Vector_5" d="M2.78886 15.2919H5.61001C5.83344 15.2919 6.0138 15.1124 6.0138 14.89C6.0138 14.6676 5.83344 14.4881 5.61001 14.4881H2.78886C2.56543 14.4881 2.38507 14.6676 2.38507 14.89C2.38507 15.1124 2.56543 15.2919 2.78886 15.2919Z" fill="#302D54"/>
<path id="Vector_6" d="M2.78886 18.2206H5.95188C6.17532 18.2206 6.35567 18.0411 6.35567 17.8187C6.35567 17.5963 6.17532 17.4167 5.95188 17.4167H2.78886C2.56543 17.4167 2.38507 17.5963 2.38507 17.8187C2.38507 18.0411 2.56543 18.2206 2.78886 18.2206Z" fill="#302D54"/>
<path id="Vector_7" d="M16.41 12.5159C14.8029 10.9163 12.1864 10.9163 10.5793 12.5159C9.80132 13.2903 9.37061 14.3219 9.37061 15.4178C9.37061 16.5138 9.79862 17.5454 10.5793 18.3197C11.3842 19.1209 12.4394 19.5202 13.4946 19.5202C14.5499 19.5202 15.6051 19.1209 16.41 18.3197C18.0171 16.7201 18.0171 14.1156 16.41 12.5159ZM11.15 17.7517C10.5228 17.1274 10.1782 16.2994 10.1782 15.4178C10.1782 14.5363 10.5228 13.7083 11.15 13.084C11.796 12.4409 12.6467 12.1194 13.4946 12.1194C14.3426 12.1194 15.1933 12.4409 15.8393 13.084C17.1315 14.3702 17.1315 16.4655 15.8393 17.7517C14.5472 19.0378 12.4421 19.0378 11.15 17.7517Z" fill="#302D54"/>
</g>
</svg>
