<svg width="147" height="60" viewBox="0 0 147 60" fill="none" xmlns="http://www.w3.org/2000/svg">
<path d="M46.7311 35.8888C46.5198 35.8888 46.3086 35.8888 46.1238 35.8888C33.6358 35.8888 21.1478 35.8888 8.65977 35.8888C8.23734 35.8888 8.07893 35.8888 8.02612 35.73V24.4552H7.99972C7.99972 22.9731 7.99972 21.4645 7.99972 19.9824C7.99972 19.7706 7.99972 19.5324 7.99972 19.2678C7.6301 19.4266 7.36608 19.5589 7.07566 19.6912C4.83152 20.8028 2.58737 21.9409 0.343222 23.0525C0.105607 23.1848 0 23.3172 0 23.6083C0 24.1112 0 24.5876 0 25.0904V43.8024H0.132009C0.211214 43.8553 0.316821 43.8553 0.448829 43.8553C3.089 43.8553 5.75558 43.8553 8.39575 43.8553C18.3228 43.8553 28.2498 43.8553 38.1769 43.8553C38.7841 43.8553 38.7841 43.8553 38.7841 44.4641C38.7841 46.7931 38.7577 49.1222 38.7577 51.4513C38.7577 52.0071 38.7577 52.0071 38.2033 52.0071C33.5566 52.0071 28.9363 52.0071 24.2896 52.0071H15.577C10.5871 52.0071 5.57076 52.0071 0.580838 52.0071C0 52.0071 0 52.0071 0 52.5629C0 54.7067 0 56.8505 0 58.9943C0 60 0 60 0.976864 60C5.83478 60 10.6927 60 15.5506 60H37.7545C40.4739 60 43.1932 60 45.9126 60C46.7047 60 46.7047 60 46.7047 59.1795C46.7047 51.7953 46.7047 44.4376 46.7047 37.0534C46.7311 36.7093 46.7311 36.3123 46.7311 35.8888Z" fill="white"/>
<path d="M46.7311 30.9131V30.0132L46.7575 29.9868C46.7575 29.9074 46.7575 29.8544 46.7311 29.775H46.7047V28.7693C46.7047 28.7428 46.7047 28.7428 46.7047 28.7428C46.7311 28.2929 46.7311 27.8694 46.7311 27.4195C46.7311 19.2942 46.7311 11.1689 46.7311 3.04367C46.7311 2.03794 46.7311 1.0322 46.7311 0C46.6255 0.0264667 46.5726 0.0264667 46.5198 0.0529334C44.0117 1.29687 41.5035 2.5408 38.9953 3.8112C38.8633 3.86414 38.7577 4.07587 38.7577 4.23467C38.7313 7.88708 38.7313 11.5395 38.7313 15.1919C38.7313 20.2735 38.7577 25.3286 38.7841 30.4102C38.7841 30.7278 38.7841 31.0454 38.7841 31.363C38.8633 31.3895 38.8897 31.3895 38.9425 31.3895C41.4243 31.3895 43.9325 31.3895 46.4142 31.3895C46.4406 31.3895 46.467 31.3895 46.4934 31.3895H46.7047V31.3101C46.7839 31.1778 46.7575 31.0454 46.7311 30.9131Z" fill="white"/>
<path d="M25.8209 30.8337C25.8209 30.9925 25.8209 31.1513 25.8209 31.3366C25.9793 31.3366 26.0849 31.363 26.1905 31.363C28.5403 31.363 30.8636 31.363 33.2134 31.363C33.8206 31.363 33.8206 31.363 33.8206 30.7543C33.8206 22.7878 33.8206 14.8478 33.8206 6.88134C33.8206 6.74901 33.7942 6.61667 33.7942 6.45787C33.6358 6.51081 33.5566 6.53727 33.4774 6.59021C31.022 7.80768 28.5667 9.05161 26.1113 10.2691C25.8473 10.4014 25.8737 10.5867 25.8737 10.7984C25.8209 17.4416 25.8209 24.1376 25.8209 30.8337Z" fill="white"/>
<path d="M13.4649 31.363C15.8146 31.3366 18.1644 31.363 20.5141 31.363C20.6461 31.363 20.7782 31.3366 20.9102 31.3366C20.9102 25.1698 20.9102 19.0296 20.9102 12.8363C20.5669 12.9951 20.2765 13.1275 19.9597 13.2863C17.742 14.3979 15.4978 15.536 13.2801 16.6211C13.0425 16.7534 12.9368 16.8858 12.9368 17.124C12.9368 21.7027 12.9368 26.2814 12.9368 30.8337C12.9632 31.2307 13.0689 31.363 13.4649 31.363Z" fill="white"/>
<path d="M69.8072 13.3009L68.0036 16.2694C66.6509 15.3676 65.1478 14.9166 63.532 14.9166C62.7805 14.9166 62.1793 15.0294 61.7284 15.2924C61.2399 15.5179 61.0144 15.856 61.0144 16.2318C61.0144 16.6827 61.2399 17.0209 61.7284 17.2839C62.2169 17.547 62.9684 17.81 63.9829 18.1106C65.2981 18.4864 66.3878 18.8621 67.2521 19.2003C68.1163 19.5761 68.8678 20.1397 69.5066 20.8912C70.1454 21.6428 70.446 22.6197 70.446 23.8598C70.446 25.1749 70.0703 26.2646 69.3188 27.0537C68.5672 27.8428 67.6278 28.4065 66.5381 28.7447C65.4484 29.0828 64.3211 29.2331 63.1563 29.2331C61.3902 29.2331 59.8496 28.9325 58.5344 28.3313C57.2568 27.7301 56.2798 27.1289 55.6035 26.4901L57.7077 23.5591C58.5344 24.1604 59.3611 24.6489 60.2629 25.0246C61.1647 25.4004 62.1793 25.5883 63.3066 25.5883C64.0581 25.5883 64.6969 25.4755 65.223 25.2125C65.749 24.987 66.0121 24.5737 66.0121 23.9725C66.0121 23.5967 65.8618 23.2585 65.5987 23.0331C65.3357 22.7701 64.9975 22.5822 64.5466 22.4319C64.1333 22.2816 63.4945 22.0561 62.6302 21.8306C61.4653 21.4925 60.4884 21.1543 59.6993 20.8161C58.9102 20.4779 58.2338 19.9518 57.7077 19.2755C57.1441 18.5991 56.8811 17.6973 56.8811 16.6076C56.8811 15.4803 57.1817 14.5409 57.7829 13.7518C58.3841 12.9627 59.1732 12.399 60.1878 11.9857C61.2023 11.5348 62.292 11.3469 63.4945 11.3469C64.7345 11.3469 65.8617 11.5348 66.9515 11.9105C68.0412 12.2863 68.9806 12.7372 69.8072 13.3009Z" fill="white"/>
<path d="M90.399 28.7822L89.6099 17.9603L85.8147 28.7822H81.1553L77.3976 17.9979L76.6085 28.8198H72.0618L73.5649 11.873H79.4643L83.485 23.2585L87.5056 11.8354H93.4051L94.9457 28.7822H90.399Z" fill="white"/>
<path d="M110.051 28.7822L108.999 26.0016H101.785L100.732 28.7822H95.9602L103.1 11.8354H107.722L114.861 28.7822H110.051ZM107.646 22.5822L105.354 16.6076L103.062 22.5822H107.646Z" fill="white"/>
<path d="M129.478 14.353C130.042 15.1797 130.305 16.1191 130.305 17.2464C130.305 18.4488 129.967 19.4634 129.328 20.29C128.689 21.1167 127.787 21.7179 126.66 22.0937L130.831 28.8198H125.871L122.188 22.5446H120.61V28.8198H116.139V11.8354H123.992C125.157 11.8354 126.247 12.0609 127.186 12.4742C128.163 12.8875 128.915 13.5263 129.478 14.353ZM120.61 19.313H123.504C124.255 19.313 124.819 19.1252 125.194 18.7494C125.57 18.3736 125.758 17.8852 125.758 17.3215C125.758 16.7579 125.57 16.2694 125.157 15.8936C124.744 15.5179 124.218 15.33 123.466 15.33H120.61V19.313Z" fill="white"/>
<path d="M140.976 15.593V28.8198H136.505V15.593H131.357V11.8354H146.087V15.593H140.976Z" fill="white"/>
<path d="M57.4071 52.0795V35.1326H59.1356V52.0795H57.4071Z" fill="white"/>
<path d="M76.7213 52.0795L66.7636 37.7629V52.0795H65.0351V35.1326H66.9515L76.7588 49.1861V35.1326H78.4873V52.0795H76.7213Z" fill="white"/>
<path d="M89.5347 52.117L82.5456 35.1326H84.3868L90.2111 49.7122L96.0354 35.1326H97.8766L90.925 52.117H89.5347Z" fill="white"/>
<path d="M103.701 36.7108V42.6854H112.268V44.226H103.701V50.5013H113.508V52.0795H101.935V35.1326H113.245V36.7108H103.701Z" fill="white"/>
<path d="M127.862 37.8757C127.224 37.4248 126.547 37.049 125.833 36.786C125.119 36.4854 124.293 36.3726 123.353 36.3726C122.188 36.3726 121.287 36.5981 120.648 37.0866C120.009 37.5751 119.708 38.1387 119.708 38.8527C119.708 39.4163 119.896 39.9048 120.272 40.2805C120.648 40.6563 121.099 40.9569 121.587 41.22C122.113 41.4454 122.865 41.746 123.842 42.1218C125.157 42.5727 126.209 43.0236 126.923 43.3618C127.675 43.7376 128.313 44.226 128.839 44.9024C129.365 45.5788 129.666 46.443 129.666 47.4952C129.666 48.66 129.365 49.5994 128.727 50.351C128.088 51.1025 127.261 51.6661 126.284 52.0043C125.307 52.3425 124.293 52.5304 123.241 52.5304C121.737 52.5304 120.422 52.2298 119.257 51.591C118.093 50.9898 117.228 50.3134 116.627 49.637L117.754 48.397C118.243 48.9982 118.994 49.5619 119.971 50.0879C120.948 50.614 122.038 50.877 123.241 50.877C123.992 50.877 124.706 50.7643 125.42 50.5388C126.134 50.3134 126.735 49.9376 127.186 49.4491C127.637 48.9606 127.9 48.3218 127.9 47.5703C127.9 46.894 127.712 46.3303 127.299 45.8418C126.885 45.3533 126.359 44.9776 125.721 44.677C125.082 44.3764 124.255 44.0757 123.241 43.7376C122.113 43.3618 121.174 43.0236 120.46 42.6854C119.746 42.3472 119.145 41.8587 118.656 41.2951C118.168 40.7315 117.942 39.9424 117.942 39.0405C117.942 37.8005 118.393 36.786 119.333 35.9969C120.272 35.2078 121.55 34.832 123.241 34.832C125.27 34.832 127.111 35.4332 128.689 36.6357L127.862 37.8757Z" fill="white"/>
<path d="M139.586 36.7108V52.117H137.858V36.7108H132.334V35.1326H145.147V36.7108H139.586Z" fill="white"/>
</svg>
