<svg width="211" height="57" viewBox="0 0 211 57" fill="none" xmlns="http://www.w3.org/2000/svg">
<g clip-path="url(#clip0_14_66)">
<path d="M70.8611 0.424316H58.9802V56.5757H70.8611V0.424316Z" fill="#FFC808"/>
<path d="M36.9863 56.5757H51.8375L39.3201 36.2085L31.4702 48.1601L36.9863 56.5757Z" fill="#FEC80A"/>
<path d="M37.7643 32.9553L38.0471 33.4504C38.4715 34.0868 38.8958 34.794 39.3201 35.5012C41.7246 31.5409 43.9876 28.005 46.0385 24.3275L46.6749 23.2667L42.5732 16.902C39.6737 12.0223 36.7035 7.21339 33.4504 1.90942C23.9032 17.5385 14.4975 32.8846 4.95037 48.5136L0 56.5757H12.5174C12.5881 56.5757 12.6588 56.5757 12.7295 56.5757C12.8002 56.5757 12.871 56.5757 12.871 56.5757H14.8511L19.165 49.2916C21.5695 45.3313 24.0447 41.371 26.5199 37.4107C28.7122 33.804 30.9752 30.1973 33.4504 26.1662C33.9454 26.9442 34.4404 27.7221 34.9355 28.4293L35.0062 28.5707C35.9256 30.0558 36.8449 31.5409 37.7643 32.9553Z" fill="#00B696"/>
<path d="M108.484 12.871L114.212 2.6167C114.212 2.6167 93.1377 -6.78901 83.4491 10.3251C80.196 16.1241 77.0843 29.4902 93.4913 37.0571L98.9367 28.6415C98.9367 28.6415 89.1067 26.0956 92.9963 16.3363C92.9255 16.2656 95.8958 9.61794 108.484 12.871Z" fill="#FEC80A"/>
<path d="M89.3897 44.1292L83.6614 54.3836C83.6614 54.3836 104.736 63.7893 114.424 46.6751C117.678 40.8761 120.789 27.5101 104.382 19.9431L98.9368 28.3587C98.9368 28.3587 108.767 30.9047 104.877 40.664C104.877 40.7347 101.978 47.3823 89.3897 44.1292Z" fill="#074D81"/>
<path d="M131.821 2.05103L136.842 13.9319H133.943L133.094 11.8103H127.79L126.942 13.9319H124.042L129.063 2.05103H131.821ZM130.407 5.02125L128.639 9.61802H132.246L130.407 5.02125Z" fill="black"/>
<path d="M148.723 2.05103V13.9319H145.965L140.591 6.36492V13.8612H137.903V2.05103H140.732L146.107 9.47658V2.05103H148.723Z" fill="black"/>
<path d="M161.029 3.32398L159.685 5.23341C158.765 4.45549 157.775 4.1019 156.715 4.1019C155.654 4.1019 154.805 4.45549 154.098 5.16269C153.462 5.86989 153.108 6.78924 153.108 7.85003C153.108 8.91083 153.462 9.83018 154.098 10.6081C154.734 11.386 155.654 11.7396 156.644 11.7396C157.563 11.7396 158.412 11.4567 159.261 10.8203V8.91083H156.22V7.0014H161.736V11.5982C160.392 13.2954 158.695 14.1441 156.644 14.1441C154.876 14.1441 153.391 13.5076 152.189 12.3054C150.986 11.1031 150.35 9.61802 150.35 7.85003C150.35 6.01132 150.986 4.52621 152.189 3.3947C153.391 2.26319 154.947 1.62671 156.715 1.62671C158.483 1.69743 159.897 2.26319 161.029 3.32398Z" fill="black"/>
<path d="M172.414 2.05103V4.38477H166.474V6.85996H171.707V8.98155H166.474V11.6689H172.556V14.0026H163.716V2.05103H172.414Z" fill="black"/>
<path d="M177.011 2.05103V11.5982H182.81V13.9319H174.324V2.05103H177.011Z" fill="black"/>
<path d="M128.073 22.4182V34.2991H125.386V22.4182H128.073Z" fill="black"/>
<path d="M141.227 22.4182V34.2991H138.469L133.024 26.8028V34.2991H130.336V22.4182H133.165L138.54 29.8438V22.4182H141.227Z" fill="black"/>
<path d="M154.664 22.4182L149.855 34.2991H147.026L142.288 22.4182H145.187L148.44 31.046L151.764 22.4182H154.664Z" fill="black"/>
<path d="M164.352 22.4182V24.752H158.412V27.2271H163.645V29.3487H158.412V32.0361H164.494V34.3698H155.654V22.4182H164.352Z" fill="black"/>
<path d="M175.102 23.4084L173.97 25.2471C172.98 24.6106 171.99 24.257 170.859 24.257C170.576 24.257 170.293 24.257 170.01 24.3277C169.727 24.3984 169.515 24.4692 169.232 24.6813C168.949 24.8935 168.878 25.1056 168.878 25.3885C168.878 25.7421 169.091 26.025 169.444 26.2372C169.798 26.4493 170.363 26.6615 171.141 26.9444C172.202 27.2272 172.909 27.5101 173.404 27.7223C174.819 28.3587 175.526 29.4195 175.526 30.9046C175.526 31.5411 175.385 32.1776 175.102 32.6726C174.819 33.1677 174.394 33.592 173.899 33.8042C173.404 34.087 172.839 34.2992 172.344 34.4406C171.778 34.5821 171.212 34.6528 170.576 34.6528C169.373 34.6528 168.313 34.4406 167.464 34.0163C166.545 33.592 165.908 33.1677 165.413 32.7434L166.757 30.9754C167.959 31.9654 169.232 32.4605 170.646 32.4605C171.212 32.4605 171.707 32.319 172.131 32.1069C172.556 31.8947 172.768 31.5411 172.768 31.0461C172.768 30.7632 172.697 30.4803 172.485 30.2682C172.273 30.056 171.99 29.9146 171.636 29.7731C171.354 29.6317 170.858 29.4903 170.222 29.3488C169.727 29.2074 169.373 29.0659 169.02 28.9952C168.737 28.8538 168.383 28.7123 167.959 28.5002C167.535 28.288 167.252 28.0759 167.04 27.8637C166.827 27.6515 166.615 27.3687 166.474 26.9444C166.332 26.5908 166.262 26.1664 166.262 25.7421C166.262 24.6106 166.686 23.6913 167.535 23.1255C168.383 22.5597 169.444 22.2769 170.646 22.2769C172.344 22.0647 173.758 22.489 175.102 23.4084Z" fill="black"/>
<path d="M185.993 22.4184V24.7521H182.315V34.2993H179.628V24.6814H175.95V22.3477H185.993V22.4184Z" fill="black"/>
<path d="M197.096 23.8327C198.298 25.0349 198.864 26.52 198.864 28.288C198.864 30.056 198.227 31.5411 197.025 32.7434C195.823 33.9456 194.338 34.5113 192.57 34.5113C190.802 34.5113 189.246 33.9456 188.044 32.7434C186.841 31.5411 186.205 30.056 186.205 28.288C186.205 26.52 186.841 25.0349 188.044 23.8327C189.246 22.6305 190.731 22.0647 192.57 22.0647C194.408 22.0647 195.893 22.6305 197.096 23.8327ZM189.034 28.288C189.034 29.3488 189.387 30.1975 190.024 30.9754C190.66 31.7533 191.58 32.1069 192.57 32.1069C193.63 32.1069 194.479 31.7533 195.116 30.9754C195.752 30.1975 196.106 29.3488 196.106 28.288C196.106 27.2272 195.752 26.3079 195.116 25.6007C194.479 24.8935 193.63 24.5399 192.57 24.5399C191.509 24.5399 190.66 24.8935 190.024 25.6714C189.317 26.3786 189.034 27.2272 189.034 28.288Z" fill="black"/>
<path d="M210.037 26.0956C210.037 26.9443 209.825 27.6515 209.33 28.2172C208.835 28.783 208.198 29.2073 207.421 29.4902L210.462 34.2991H207.421L204.663 29.7023H203.248V34.2991H200.561V22.4182H205.865C207.067 22.4182 208.057 22.7718 208.906 23.4083C209.613 23.974 210.037 24.8934 210.037 26.0956ZM205.511 24.5398H203.177V27.7222H205.511C206.006 27.7222 206.431 27.5807 206.784 27.2979C207.138 27.015 207.279 26.6614 207.279 26.0956C207.279 25.6006 207.138 25.1763 206.784 24.8934C206.431 24.6105 206.077 24.5398 205.511 24.5398Z" fill="black"/>
<path d="M134.084 43.7756L132.953 45.6143C131.963 44.9778 130.973 44.6242 129.841 44.6242C129.558 44.6242 129.275 44.6242 128.993 44.6949C128.71 44.7656 128.497 44.8364 128.215 45.0485C128.002 45.19 127.861 45.4728 127.861 45.7557C127.861 46.1093 128.073 46.3922 128.427 46.6043C128.78 46.8165 129.346 47.0287 130.124 47.3115C131.185 47.5944 131.892 47.8773 132.387 48.0895C133.801 48.7259 134.509 49.7867 134.509 51.2718C134.509 51.9083 134.367 52.5448 134.084 53.0398C133.801 53.5349 133.377 53.9592 132.882 54.1713C132.387 54.4542 131.821 54.6664 131.326 54.8078C130.831 54.9493 130.195 55.02 129.558 55.02C128.356 55.02 127.295 54.8078 126.447 54.3835C125.527 53.9592 124.891 53.5349 124.396 53.1105L125.739 51.3426C126.942 52.3326 128.215 52.8277 129.629 52.8277C130.195 52.8277 130.69 52.6862 131.114 52.4741C131.538 52.2619 131.751 51.9083 131.751 51.4133C131.751 51.1304 131.68 50.8475 131.468 50.6354C131.256 50.4232 130.973 50.2818 130.619 50.1403C130.336 49.9989 129.841 49.8574 129.205 49.716C128.71 49.5746 128.356 49.4331 128.002 49.3624C127.72 49.221 127.366 49.0795 126.942 48.8674C126.517 48.6552 126.234 48.4431 126.022 48.2309C125.81 48.0187 125.598 47.7359 125.457 47.3115C125.315 46.9579 125.244 46.5336 125.244 46.1093C125.244 44.9778 125.669 44.0584 126.517 43.4927C127.366 42.9269 128.427 42.644 129.629 42.644C131.326 42.4319 132.741 42.8562 134.084 43.7756Z" fill="black"/>
<path d="M146.319 44.0584L144.975 45.9678C144.056 45.1899 143.066 44.8363 142.005 44.8363C140.944 44.8363 140.095 45.1899 139.388 45.8971C138.752 46.6043 138.398 47.5236 138.398 48.5844C138.398 49.6452 138.752 50.5646 139.388 51.2718C140.095 51.9789 140.944 52.3325 141.934 52.3325C142.995 52.3325 144.126 51.9082 145.187 50.9889L146.531 52.969C145.329 54.1713 143.773 54.8077 142.005 54.8077C140.166 54.8077 138.681 54.242 137.479 53.0397C136.277 51.8375 135.64 50.3524 135.64 48.5844C135.64 46.7457 136.277 45.2606 137.479 44.1291C138.681 42.9268 140.237 42.3611 142.005 42.3611C143.702 42.4318 145.187 42.9976 146.319 44.0584Z" fill="black"/>
<path d="M158.2 42.7856V54.6665H155.513V49.8575H150.633V54.6665H147.946V42.7856H150.633V47.3823H155.442V42.7148H158.2V42.7856Z" fill="black"/>
<path d="M170.646 44.1999C171.849 45.4021 172.414 46.8872 172.414 48.6552C172.414 50.4232 171.778 51.9083 170.576 53.1105C169.373 54.3128 167.888 54.8785 166.12 54.8785C164.352 54.8785 162.797 54.3128 161.594 53.1105C160.392 51.9083 159.756 50.4232 159.756 48.6552C159.756 46.8872 160.392 45.4021 161.594 44.1999C162.797 42.9976 164.282 42.4319 166.12 42.4319C167.888 42.4319 169.444 42.9976 170.646 44.1999ZM162.514 48.6552C162.514 49.716 162.867 50.5646 163.504 51.3426C164.211 52.0498 165.06 52.4741 166.05 52.4741C167.11 52.4741 167.959 52.1205 168.596 51.3426C169.232 50.6354 169.586 49.716 169.586 48.6552C169.586 47.5944 169.232 46.6751 168.596 45.9679C167.959 45.2607 167.11 44.9071 166.05 44.9071C164.989 44.9071 164.14 45.2607 163.504 46.0386C162.867 46.7458 162.514 47.5944 162.514 48.6552Z" fill="black"/>
<path d="M184.366 44.1999C185.568 45.4021 186.134 46.8872 186.134 48.6552C186.134 50.4232 185.498 51.9083 184.295 53.1105C183.093 54.3128 181.608 54.8785 179.84 54.8785C178.072 54.8785 176.516 54.3128 175.314 53.1105C174.112 51.9083 173.475 50.4232 173.475 48.6552C173.475 46.8872 174.112 45.4021 175.314 44.1999C176.516 42.9976 178.001 42.4319 179.84 42.4319C181.679 42.4319 183.164 42.9976 184.366 44.1999ZM176.304 48.6552C176.304 49.716 176.658 50.5646 177.294 51.3426C178.001 52.0498 178.85 52.4741 179.84 52.4741C180.901 52.4741 181.75 52.1205 182.386 51.3426C183.022 50.6354 183.376 49.716 183.376 48.6552C183.376 47.5944 183.022 46.6751 182.386 45.9679C181.75 45.2607 180.901 44.9071 179.84 44.9071C178.779 44.9071 177.931 45.2607 177.294 46.0386C176.658 46.7458 176.304 47.5944 176.304 48.6552Z" fill="black"/>
<path d="M190.519 42.7854V52.3325H196.318V54.6663H187.831V42.7854H190.519Z" fill="black"/>
</g>
<defs>
<clipPath id="clip0_14_66">
<rect width="210.462" height="57" fill="white"/>
</clipPath>
</defs>
</svg>
