<svg width="21" height="25" viewBox="0 0 21 25" fill="none" xmlns="http://www.w3.org/2000/svg">
<path id="management" d="M20.2983 17.2092C20.1163 16.8972 19.8194 16.6679 19.4705 16.5698C19.1217 16.4718 18.7482 16.5127 18.4291 16.6839L14.7235 18.595C14.5546 18.3253 14.2964 18.1227 13.9935 18.0221L8.78955 16.2885C8.24863 16.1008 7.65932 16.1038 7.12037 16.2971L3.69118 17.4799L3.09562 16.5434C3.04834 16.4694 2.97351 16.417 2.88751 16.3977C2.80151 16.3784 2.71134 16.3938 2.63673 16.4406L0.154485 18.0044C0.0800507 18.0516 0.027409 18.1261 0.00809239 18.2118C-0.0112242 18.2974 0.00435941 18.3872 0.0514293 18.4615L4.03591 24.7305C4.08312 24.8047 4.15794 24.8571 4.24396 24.8765C4.26796 24.8818 4.29245 24.8845 4.31702 24.8845C4.37999 24.8846 4.44168 24.8668 4.4948 24.8331L6.9776 23.2692C7.052 23.2222 7.10464 23.1477 7.12401 23.0621C7.14338 22.9765 7.12789 22.8867 7.08093 22.8125L6.90454 22.5343L7.09899 22.4218L11.7085 23.0854C11.8379 23.1039 11.9685 23.1132 12.0993 23.113C12.5891 23.1129 13.0681 22.9702 13.4774 22.7024L19.7788 19.0803C20.0966 18.9003 20.3298 18.6024 20.4274 18.2517C20.525 17.901 20.4791 17.526 20.2996 17.209L20.2983 17.2092ZM4.42008 24.0965L0.790602 18.3868L2.71006 17.1774L6.34065 22.8868L4.42008 24.0965ZM19.7846 18.0752C19.7599 18.1656 19.7173 18.2502 19.6593 18.3241C19.6014 18.398 19.5293 18.4596 19.4471 18.5055L13.1363 22.132C13.1313 22.1348 13.1265 22.1378 13.1218 22.1408C12.7342 22.3989 12.2628 22.5016 11.8024 22.4281L7.07787 21.749C7.00343 21.7382 6.92751 21.753 6.86259 21.7908L6.54759 21.9736L4.05646 18.055L7.33815 16.9228C7.7382 16.7774 8.17663 16.7751 8.57816 16.9164L13.7821 18.6512C13.892 18.6879 13.9913 18.7508 14.0714 18.8344C14.1514 18.9179 14.2098 19.0196 14.2415 19.1306C14.2415 19.1348 14.2435 19.1392 14.2446 19.1433C14.2791 19.2703 14.2773 19.4044 14.2393 19.5304C14.1699 19.7049 14.0396 19.8485 13.8723 19.9348C13.705 20.0212 13.512 20.0445 13.3288 20.0005L9.52734 18.7316C9.44523 18.7094 9.35767 18.7192 9.28262 18.7591C9.20757 18.7991 9.1507 18.8661 9.12367 18.9464C9.09664 19.0267 9.1015 19.1143 9.13725 19.1912C9.173 19.268 9.23693 19.3284 9.31595 19.3598L13.1174 20.6265C13.2494 20.6706 13.3878 20.6932 13.5271 20.6934C13.8084 20.6824 14.0811 20.5932 14.3141 20.4359C14.5471 20.2786 14.7312 20.0595 14.8454 19.8033C14.8524 19.7895 14.8584 19.7752 14.8632 19.7605C14.9203 19.5915 14.9435 19.413 14.9315 19.2351L18.7352 17.2731C18.9013 17.1812 19.0969 17.1572 19.2805 17.2061C19.4641 17.2551 19.6214 17.3732 19.7191 17.5355C19.7653 17.6167 19.7949 17.7062 19.8061 17.7988C19.8174 17.8915 19.8101 17.9854 19.7846 18.0752ZM3.9359 6.55554C4.16429 6.55568 4.388 6.49114 4.58091 6.36946L4.88647 6.17591V13.8493C4.88647 13.9373 4.92159 14.0216 4.9841 14.0839C5.04661 14.1461 5.1314 14.181 5.2198 14.181H10.1823V14.2615C10.1825 14.4032 10.2391 14.539 10.3397 14.6392C10.4403 14.7394 10.5767 14.7958 10.719 14.796H10.9046C10.9143 14.8203 10.9243 14.8446 10.9348 14.8687L10.8032 14.9998C10.7027 15.1001 10.6462 15.2359 10.6462 15.3776C10.6462 15.5192 10.7027 15.6551 10.8032 15.7554L11.6026 16.5512C11.7033 16.6513 11.8398 16.7075 11.9821 16.7075C12.1244 16.7075 12.2608 16.6513 12.3615 16.5512L12.4932 16.4201C12.5176 16.4306 12.5421 16.4409 12.5665 16.4505V16.6358C12.5667 16.7774 12.6232 16.9132 12.7238 17.0134C12.8243 17.1135 12.9607 17.17 13.1029 17.1703H14.2335C14.3758 17.17 14.5121 17.1137 14.6127 17.0136C14.7133 16.9134 14.7699 16.7777 14.7702 16.6361V16.4508C14.7946 16.4409 14.819 16.4309 14.8432 16.4204L14.9752 16.5517C15.0758 16.6518 15.2123 16.708 15.3546 16.708C15.4969 16.708 15.6334 16.6518 15.7341 16.5517L16.5335 15.7563C16.634 15.656 16.6905 15.5201 16.6905 15.3784C16.6905 15.2368 16.634 15.1009 16.5335 15.0006L16.4018 14.8695C16.4121 14.8455 16.4224 14.8211 16.4321 14.7968H16.6182C16.6888 14.7967 16.7587 14.7828 16.8238 14.7558C16.889 14.7288 16.9481 14.6893 16.998 14.6395C17.0478 14.5897 17.0872 14.5307 17.1141 14.4657C17.141 14.4008 17.1548 14.3312 17.1546 14.261V13.1359C17.1545 12.9942 17.098 12.8584 16.9974 12.7582C16.8967 12.6581 16.7603 12.6018 16.618 12.6017H16.4324C16.4227 12.5771 16.4124 12.5528 16.4021 12.5287L16.5338 12.3976C16.6343 12.2973 16.6907 12.1615 16.6907 12.0198C16.6907 11.8782 16.6343 11.7423 16.5338 11.642L15.7343 10.8465C15.7119 10.8243 15.6876 10.8041 15.6616 10.7862V6.17702L15.9671 6.37057C16.2389 6.54136 16.5678 6.59767 16.8813 6.52712C17.0365 6.49219 17.1833 6.42717 17.3133 6.33576C17.4433 6.24436 17.554 6.12836 17.6389 5.99439C17.7239 5.86043 17.7815 5.71111 17.8085 5.55498C17.8355 5.39885 17.8313 5.23896 17.7962 5.08444C17.7611 4.92991 17.6958 4.78378 17.604 4.65438C17.5121 4.52499 17.3956 4.41486 17.261 4.3303L10.4518 0.0509539C10.3986 0.017663 10.3371 0 10.2743 0C10.2115 0 10.15 0.017663 10.0968 0.0509539L3.28701 4.32919C3.06458 4.46876 2.8938 4.67656 2.80044 4.92123C2.70708 5.1659 2.69621 5.43415 2.76947 5.68551C2.84273 5.93687 2.99614 6.15768 3.20656 6.31463C3.41697 6.47158 3.67297 6.55613 3.9359 6.55554ZM8.97622 13.518V9.25996H11.574L11.5826 10.8675L10.8029 11.6434C10.7024 11.7437 10.646 11.8795 10.646 12.0212C10.646 12.1629 10.7024 12.2987 10.8029 12.399L10.9346 12.5301C10.924 12.5541 10.914 12.5785 10.9043 12.6031H10.7179C10.576 12.6035 10.4401 12.6598 10.3398 12.7596C10.2395 12.8594 10.1829 12.9947 10.1823 13.1359V13.518H8.97622ZM15.9718 12.0199L15.7646 12.2262C15.7142 12.2765 15.6813 12.3416 15.6708 12.4118C15.6603 12.4821 15.6727 12.5539 15.7063 12.6166C15.777 12.7482 15.8346 12.8864 15.8782 13.0292C15.8991 13.097 15.9413 13.1565 15.9986 13.1987C16.0558 13.241 16.1252 13.2638 16.1966 13.2639H16.4896V14.1329H16.1966C16.1252 14.133 16.0558 14.1559 15.9985 14.1982C15.9412 14.2405 15.899 14.3 15.8782 14.368C15.8346 14.5108 15.7771 14.6489 15.7063 14.7805C15.6728 14.8432 15.6604 14.9149 15.6709 14.9851C15.6814 15.0554 15.7142 15.1204 15.7646 15.1706L15.9718 15.3772L15.3546 15.9916L15.1471 15.7853C15.0966 15.7351 15.0313 15.7024 14.9607 15.692C14.8902 15.6815 14.8181 15.6939 14.7552 15.7272C14.6229 15.7975 14.4841 15.8549 14.3407 15.8984C14.2725 15.9191 14.2127 15.961 14.1702 16.0181C14.1277 16.0751 14.1047 16.1442 14.1046 16.2152V16.5067H13.2315V16.2152C13.2314 16.1443 13.2085 16.0752 13.166 16.0181C13.1236 15.9611 13.0639 15.9191 12.9957 15.8984C12.8523 15.855 12.7134 15.7976 12.5813 15.7272C12.5182 15.6938 12.4461 15.6814 12.3755 15.6919C12.3049 15.7023 12.2395 15.7351 12.189 15.7853L11.9818 15.9916L11.3643 15.3772L11.5718 15.1706C11.6221 15.1203 11.6549 15.0553 11.6654 14.9851C11.6758 14.9149 11.6634 14.8432 11.6299 14.7805C11.5592 14.6488 11.5016 14.5105 11.4579 14.3677C11.4371 14.2999 11.3949 14.2405 11.3377 14.1982C11.2804 14.156 11.2111 14.1331 11.1399 14.1329H10.8468V13.2639H11.1399C11.2112 13.2638 11.2806 13.241 11.3379 13.1987C11.3952 13.1565 11.4373 13.097 11.4582 13.0292C11.5016 12.8864 11.5591 12.7482 11.6299 12.6166C11.6634 12.5539 11.6759 12.4822 11.6655 12.4119C11.655 12.3416 11.6222 12.2765 11.5718 12.2262L11.3643 12.0199L11.9818 11.4053L12.189 11.6118C12.2396 11.662 12.305 11.6947 12.3756 11.7051C12.4462 11.7155 12.5183 11.7031 12.5813 11.6696C12.7134 11.5992 12.8523 11.5419 12.9957 11.4985C13.0639 11.4777 13.1236 11.4357 13.166 11.3787C13.2085 11.3217 13.2314 11.2526 13.2315 11.1816V10.8899H14.1046V11.1816C14.1047 11.2526 14.1277 11.3217 14.1702 11.3788C14.2127 11.4358 14.2725 11.4778 14.3407 11.4985C14.4841 11.542 14.6229 11.5993 14.7552 11.6696C14.8181 11.7032 14.8901 11.7157 14.9607 11.7055C15.0313 11.6952 15.0967 11.6627 15.1474 11.6127L15.3546 11.4061L15.9718 12.0199ZM14.9957 10.8277C14.9888 10.8341 14.9815 10.8399 14.9749 10.8465L14.8435 10.9776C14.819 10.967 14.7946 10.9571 14.7702 10.9471V10.7619C14.7699 10.6203 14.7133 10.4845 14.6127 10.3844C14.5121 10.2843 14.3758 10.2279 14.2335 10.2277H13.1029C12.9607 10.2279 12.8243 10.2843 12.7237 10.3844C12.6231 10.4845 12.5665 10.6203 12.5663 10.7619V10.9471C12.5415 10.9571 12.5174 10.967 12.4929 10.9776L12.3612 10.8465C12.3273 10.8129 12.289 10.784 12.2474 10.7605L12.2379 8.92567C12.2373 8.83806 12.202 8.75423 12.1395 8.69249C12.0771 8.63074 11.9926 8.59609 11.9046 8.59609H8.64344C8.59967 8.59609 8.55632 8.60467 8.51588 8.62135C8.47544 8.63802 8.43869 8.66246 8.40774 8.69327C8.37679 8.72408 8.35223 8.76066 8.33548 8.80091C8.31873 8.84117 8.31011 8.88431 8.31011 8.92789V13.5177H5.55286V5.75896L10.2751 2.79242L14.9974 5.75896L14.9957 10.8277ZM3.64201 4.88937L10.2743 0.722565L16.9063 4.88937C17.0257 4.96781 17.1094 5.0897 17.1395 5.22889C17.1697 5.36808 17.1438 5.51348 17.0675 5.63389C16.9911 5.75431 16.8704 5.84014 16.7312 5.87298C16.592 5.90583 16.4455 5.88305 16.3229 5.80955L10.4518 2.12081C10.3986 2.08752 10.3371 2.06986 10.2743 2.06986C10.2115 2.06986 10.15 2.08752 10.0968 2.12081L4.22563 5.80955C4.10312 5.88305 3.95654 5.90583 3.81735 5.87298C3.67816 5.84014 3.55745 5.75431 3.48112 5.63389C3.40478 5.51348 3.3789 5.36808 3.40903 5.22889C3.43917 5.0897 3.52291 4.96781 3.64229 4.88937H3.64201ZM13.6682 12.1247C13.3555 12.1247 13.0498 12.2169 12.7897 12.3898C12.5297 12.5627 12.327 12.8085 12.2072 13.0961C12.0875 13.3837 12.0562 13.7001 12.1172 14.0054C12.1781 14.3107 12.3287 14.5912 12.5498 14.8113C12.7709 15.0315 13.0526 15.1814 13.3594 15.2421C13.6661 15.3029 13.984 15.2717 14.2729 15.1526C14.5619 15.0335 14.8088 14.8318 14.9826 14.573C15.1563 14.3141 15.2491 14.0098 15.2491 13.6986C15.2485 13.2814 15.0817 12.8815 14.7854 12.5864C14.4891 12.2914 14.0873 12.1254 13.6682 12.1247ZM13.6682 12.7883C13.8795 12.7886 14.0841 12.8615 14.2476 12.9946C14.4111 13.1278 14.5234 13.3131 14.5654 13.5191H12.7707C12.8125 13.3128 12.9248 13.1272 13.0883 12.9938C13.2519 12.8605 13.4568 12.7875 13.6682 12.7872V12.7883ZM13.6682 14.611C13.513 14.6106 13.3604 14.5711 13.2247 14.496C13.0891 14.4208 12.9748 14.3127 12.8926 14.1816H14.4438C14.3615 14.3125 14.2471 14.4204 14.1115 14.4953C13.9758 14.5702 13.8233 14.6097 13.6682 14.6099V14.611Z" fill="#302D54"/>
</svg>
