<svg width="28" height="25" viewBox="0 0 28 25" fill="none" xmlns="http://www.w3.org/2000/svg">
<g id="negotiation">
<path id="Vector" d="M13.9474 11.0238C15.0431 11.0262 16.1149 10.7049 17.0271 10.1007C17.9393 9.49646 18.6509 8.63645 19.0719 7.62949C19.4928 6.62253 19.6042 5.5139 19.3919 4.44391C19.1796 3.37392 18.6531 2.39068 17.8792 1.61863C17.1052 0.846582 16.1186 0.320437 15.0441 0.106789C13.9696 -0.106859 12.8556 0.0015959 11.843 0.418425C10.8305 0.835255 9.96495 1.54172 9.35595 2.4484C8.74695 3.35509 8.42188 4.42123 8.42188 5.51189C8.42345 6.97119 9.00573 8.37044 10.0413 9.40344C11.0768 10.4364 12.4813 11.0191 13.9474 11.0238ZM13.9474 0.898734C14.8652 0.89637 15.7631 1.16517 16.5274 1.67109C17.2917 2.17701 17.888 2.8973 18.2407 3.74075C18.5935 4.58421 18.6869 5.51289 18.509 6.4092C18.3312 7.30551 17.8902 8.12914 17.2418 8.77579C16.5934 9.42245 15.7668 9.86304 14.8667 10.0418C13.9666 10.2205 13.0334 10.1294 12.1853 9.77991C11.3373 9.43042 10.6125 8.8383 10.1027 8.07853C9.59299 7.31876 9.3212 6.42551 9.32179 5.51189C9.32337 4.29044 9.81093 3.11933 10.6778 2.2548C11.5447 1.39026 12.7202 0.902681 13.9474 0.898734Z" fill="#302D54"/>
<path id="Vector_2" d="M11.7486 8.19918C11.8275 8.26522 11.9274 8.3012 12.0305 8.3007C12.0976 8.30069 12.1638 8.28596 12.2244 8.25758C12.2851 8.22919 12.3387 8.18784 12.3815 8.13648L16.2301 3.45464C16.3065 3.36278 16.3431 3.24449 16.3319 3.12578C16.3206 3.00706 16.2624 2.89766 16.1701 2.82164C16.1245 2.784 16.0718 2.75568 16.0151 2.73831C15.9584 2.72094 15.8988 2.71486 15.8398 2.7204C15.7205 2.7316 15.6106 2.7895 15.5342 2.88136L11.6856 7.56916C11.6478 7.61449 11.6194 7.66684 11.6021 7.72316C11.5848 7.77948 11.5789 7.83867 11.5848 7.89727C11.5907 7.95588 11.6082 8.01274 11.6363 8.06457C11.6644 8.1164 11.7025 8.16215 11.7486 8.19918Z" fill="#302D54"/>
<path id="Vector_3" d="M12.7475 4.84905C12.9848 4.84905 13.2168 4.779 13.4141 4.64776C13.6114 4.51653 13.7652 4.33 13.856 4.11176C13.9468 3.89352 13.9706 3.65338 13.9243 3.4217C13.878 3.19002 13.7637 2.97721 13.5959 2.81017C13.4281 2.64314 13.2143 2.52939 12.9816 2.48331C12.7488 2.43722 12.5075 2.46088 12.2883 2.55127C12.069 2.64167 11.8816 2.79475 11.7498 2.99116C11.6179 3.18757 11.5476 3.41848 11.5476 3.6547C11.5476 3.97146 11.674 4.27525 11.899 4.49923C12.124 4.72321 12.4292 4.84905 12.7475 4.84905ZM12.7475 3.37105C12.8068 3.37105 12.8648 3.38856 12.9141 3.42137C12.9634 3.45418 13.0019 3.50081 13.0246 3.55537C13.0473 3.60993 13.0532 3.66996 13.0417 3.72788C13.0301 3.7858 13.0015 3.83901 12.9596 3.88076C12.9176 3.92252 12.8642 3.95096 12.806 3.96248C12.7478 3.974 12.6875 3.96809 12.6327 3.94549C12.5779 3.92289 12.531 3.88462 12.498 3.83552C12.4651 3.78642 12.4475 3.72869 12.4475 3.66963C12.4475 3.59044 12.4791 3.5145 12.5354 3.4585C12.5916 3.4025 12.6679 3.37105 12.7475 3.37105Z" fill="#302D54"/>
<path id="Vector_4" d="M15.1712 6.16577C14.9339 6.16577 14.7019 6.23582 14.5046 6.36705C14.3073 6.49829 14.1535 6.68482 14.0627 6.90306C13.9719 7.1213 13.9481 7.36144 13.9944 7.59312C14.0407 7.8248 14.155 8.03761 14.3228 8.20464C14.4906 8.37168 14.7044 8.48543 14.9371 8.53151C15.1699 8.5776 15.4112 8.55394 15.6304 8.46355C15.8497 8.37315 16.0371 8.22007 16.1689 8.02366C16.3007 7.82725 16.3711 7.59634 16.3711 7.36012C16.3711 7.04336 16.2447 6.73957 16.0197 6.51559C15.7947 6.2916 15.4895 6.16577 15.1712 6.16577ZM15.1712 7.64079C15.1119 7.64079 15.0539 7.62328 15.0046 7.59047C14.9552 7.55766 14.9168 7.51102 14.8941 7.45647C14.8714 7.40191 14.8654 7.34187 14.877 7.28395C14.8886 7.22603 14.9172 7.17283 14.9591 7.13107C15.0011 7.08931 15.0545 7.06087 15.1127 7.04935C15.1709 7.03783 15.2312 7.04374 15.286 7.06634C15.3408 7.08894 15.3877 7.12721 15.4206 7.17632C15.4536 7.22542 15.4712 7.28315 15.4712 7.3422C15.4737 7.38289 15.4677 7.42365 15.4537 7.46197C15.4398 7.50029 15.4181 7.53536 15.39 7.56501C15.3619 7.59466 15.328 7.61827 15.2903 7.63439C15.2527 7.6505 15.2122 7.65878 15.1712 7.6587V7.64079Z" fill="#302D54"/>
<path id="Vector_5" d="M23.3515 13.7529C23.9699 13.7535 24.5747 13.5714 25.0891 13.2298C25.6036 12.8881 26.0047 12.4022 26.2417 11.8336C26.4786 11.265 26.5408 10.6392 26.4203 10.0354C26.2997 9.43155 26.002 8.8769 25.5647 8.44161C25.1274 8.00631 24.5701 7.70993 23.9635 7.58997C23.3569 7.47002 22.7282 7.53188 22.1569 7.76774C21.5857 8.00359 21.0975 8.40284 20.7543 8.91494C20.4111 9.42704 20.2282 10.029 20.2288 10.6446C20.2311 11.4682 20.5609 12.2575 21.146 12.8399C21.7311 13.4223 22.524 13.7505 23.3515 13.7529ZM23.3515 8.42609C23.7917 8.4255 24.2222 8.55486 24.5886 8.79782C24.9549 9.04077 25.2407 9.3864 25.4097 9.79101C25.5787 10.1956 25.6234 10.641 25.5381 11.0709C25.4528 11.5008 25.2413 11.8958 24.9305 12.2061C24.6196 12.5164 24.2233 12.7279 23.7916 12.814C23.36 12.9 22.9124 12.8567 22.5055 12.6896C22.0985 12.5225 21.7505 12.239 21.5055 11.875C21.2604 11.5109 21.1293 11.0828 21.1287 10.6446C21.1287 10.0572 21.3627 9.49386 21.7794 9.07798C22.196 8.66211 22.7614 8.42767 23.3515 8.42609Z" fill="#302D54"/>
<path id="Vector_6" d="M27.848 17.948C27.8311 17.4146 27.7072 16.8899 27.4836 16.4048C27.2601 15.9198 26.9413 15.4841 26.5462 15.1234C26.1557 14.8127 25.7039 14.5873 25.2202 14.4618C24.7364 14.3363 24.2316 14.3135 23.7384 14.3948C22.1096 14.577 20.9667 15.619 20.2948 16.461C20.0156 16.8109 19.6714 17.1039 19.2809 17.324L18.9209 16.049C18.8941 15.9546 18.8372 15.8715 18.7587 15.8122C18.6802 15.7529 18.5844 15.7208 18.4859 15.7205H9.42978C9.33113 15.7203 9.23513 15.7523 9.15654 15.8116C9.07795 15.8709 9.02113 15.9544 8.99482 16.049L8.64685 17.318C8.24927 17.0968 7.89877 16.8007 7.61495 16.4461C6.94301 15.6041 5.80012 14.562 4.17127 14.3799C3.67706 14.3008 3.17165 14.3261 2.6879 14.4542C2.20416 14.5823 1.75292 14.8103 1.36354 15.1234C0.963861 15.4845 0.641294 15.922 0.415055 16.4099C0.188815 16.8977 0.06353 17.4259 0.0466623 17.9629C-0.0583278 19.6111 0.0466623 24.2512 0.0466623 24.4482C0.0470156 24.5071 0.0592863 24.5654 0.0827428 24.6195C0.106199 24.6736 0.140361 24.7225 0.183191 24.7631C0.226022 24.8038 0.276643 24.8355 0.332038 24.8563C0.387433 24.8771 0.446467 24.8866 0.505619 24.8842C0.564712 24.883 0.622995 24.8702 0.67714 24.8467C0.731284 24.8231 0.780229 24.7891 0.821178 24.7467C0.862127 24.7042 0.894278 24.6542 0.915795 24.5994C0.937311 24.5446 0.947771 24.4861 0.946578 24.4273C0.946578 24.3795 0.841587 19.629 0.946578 18.0197C0.954533 17.6008 1.04738 17.1879 1.21954 16.8057C1.3917 16.4234 1.63964 16.0797 1.94848 15.7952C2.24638 15.5645 2.58958 15.3985 2.95591 15.308C3.32224 15.2175 3.70357 15.2044 4.07528 15.2697C5.39816 15.419 6.35207 16.2938 6.91602 17.0015C7.39865 17.6107 8.03832 18.0782 8.76684 18.3541C8.88083 18.3959 8.99482 18.4347 9.11181 18.4675L11.1216 19.0319C11.2171 19.0586 11.302 19.1139 11.3648 19.1903C11.4276 19.2666 11.4652 19.3604 11.4726 19.4588C11.4785 19.525 11.4704 19.5916 11.4487 19.6544C11.4269 19.7171 11.3922 19.7746 11.3466 19.8231C11.3014 19.8715 11.2466 19.91 11.1857 19.9362C11.1247 19.9624 11.059 19.9758 10.9926 19.9754H9.1718C8.90496 19.9777 8.63859 19.9526 8.37688 19.9008H8.32888C8.05497 19.8419 7.78766 19.7558 7.53096 19.644L6.08509 19.005C6.01461 18.9741 5.93732 18.9617 5.86063 18.969C5.78395 18.9763 5.71044 19.0031 5.64714 19.0468C5.58388 19.0913 5.53306 19.1511 5.49947 19.2206C5.46588 19.2901 5.45063 19.3669 5.45515 19.4439L5.77612 24.4572C5.78374 24.5707 5.83449 24.6771 5.91807 24.7547C6.00164 24.8324 6.11176 24.8755 6.22608 24.8752H6.25308C6.3722 24.8675 6.48346 24.8133 6.56267 24.7244C6.64187 24.6355 6.68261 24.5191 6.67604 24.4004L6.40006 20.1247L7.16799 20.4621C7.35227 20.5404 7.54051 20.6092 7.73194 20.6681L7.00001 23.3554C6.98136 23.4219 6.97842 23.4919 6.99143 23.5597C7.00444 23.6276 7.03304 23.6915 7.075 23.7465C7.11723 23.8009 7.1713 23.845 7.23313 23.8755C7.29496 23.906 7.36295 23.9222 7.43197 23.9227H20.4807C20.553 23.9222 20.624 23.9043 20.6877 23.8705C20.7514 23.8367 20.806 23.788 20.8467 23.7286C20.889 23.6737 20.918 23.6099 20.9315 23.5421C20.945 23.4743 20.9427 23.4043 20.9247 23.3375L20.1898 20.6502C20.3755 20.5942 20.5578 20.5274 20.7357 20.4502L21.5036 20.1128L21.2277 24.3885C21.2211 24.5071 21.2618 24.6236 21.341 24.7125C21.4202 24.8014 21.5315 24.8556 21.6506 24.8633H21.6776C21.7919 24.8635 21.9021 24.8204 21.9856 24.7428C22.0692 24.6652 22.12 24.5588 22.1276 24.4452L22.4486 19.432C22.4531 19.355 22.4378 19.2781 22.4042 19.2087C22.3706 19.1392 22.3198 19.0794 22.2566 19.0349C22.1912 18.9915 22.1155 18.9659 22.0371 18.9606C21.9587 18.9554 21.8802 18.9707 21.8096 19.005L20.3638 19.644C20.1064 19.7568 19.838 19.8428 19.5628 19.9008C19.2903 19.9558 19.013 19.9838 18.7349 19.9844H16.8961C16.8297 19.9847 16.764 19.9714 16.7031 19.9452C16.6421 19.9189 16.5873 19.8804 16.5421 19.8321C16.4965 19.7836 16.4618 19.7261 16.4401 19.6633C16.4183 19.6006 16.4102 19.5339 16.4161 19.4678C16.4235 19.3694 16.4612 19.2756 16.5239 19.1992C16.5867 19.1228 16.6716 19.0675 16.7671 19.0408L18.7769 18.4765C19.6503 18.2297 20.423 17.7145 20.9847 17.0045C21.5486 16.2968 22.5026 15.422 23.8254 15.2727C24.196 15.2079 24.5761 15.2209 24.9413 15.3108C25.3065 15.4008 25.6488 15.5658 25.9462 15.7952C26.2527 16.0783 26.4991 16.4197 26.6706 16.7992C26.8422 17.1787 26.9356 17.5887 26.9451 18.0047C27.0471 19.6141 26.9451 24.3646 26.9451 24.4124C26.9439 24.4712 26.9544 24.5297 26.9759 24.5845C26.9974 24.6393 27.0296 24.6893 27.0705 24.7317C27.1115 24.7742 27.1604 24.8081 27.2146 24.8317C27.2687 24.8553 27.327 24.8681 27.3861 24.8692C27.4452 24.8716 27.5043 24.8622 27.5597 24.8414C27.6151 24.8206 27.6657 24.7889 27.7085 24.7482C27.7513 24.7075 27.7855 24.6587 27.809 24.6046C27.8324 24.5505 27.8447 24.4922 27.845 24.4333C27.854 24.2362 27.953 19.6022 27.848 17.948ZM16.5211 18.1749C16.2104 18.2735 15.9447 18.4781 15.7709 18.7527C15.5971 19.0274 15.5264 19.3543 15.5712 19.6758C15.6161 19.9973 15.7736 20.2927 16.016 20.5098C16.2585 20.7268 16.5702 20.8517 16.8961 20.8622H18.7229C18.9154 20.8609 19.1077 20.8489 19.2988 20.8264L19.8988 22.9941H8.02291L8.62286 20.8294C8.80706 20.8508 8.99234 20.8618 9.1778 20.8622H11.0046C11.3305 20.8517 11.6422 20.7268 11.8847 20.5098C12.1271 20.2927 12.2846 19.9973 12.3295 19.6758C12.3744 19.3543 12.3036 19.0274 12.1298 18.7527C11.956 18.4781 11.6903 18.2735 11.3796 18.1749L9.49577 17.6464L9.77175 16.6163H18.147L18.4289 17.6405L16.5211 18.1749Z" fill="#302D54"/>
<path id="Vector_7" d="M4.54325 13.7529C5.16158 13.7529 5.76603 13.5703 6.28011 13.2283C6.79419 12.8863 7.19482 12.4002 7.43131 11.8315C7.6678 11.2629 7.72952 10.6371 7.60867 10.0335C7.48783 9.42992 7.18983 8.87555 6.75239 8.44055C6.31496 8.00555 5.75773 7.70947 5.1512 7.58975C4.54468 7.47004 3.91611 7.53208 3.34501 7.76802C2.77392 8.00397 2.28596 8.40321 1.94286 8.91525C1.59976 9.42729 1.41695 10.0291 1.41754 10.6446C1.41913 11.469 1.74905 12.2591 2.33498 12.8418C2.9209 13.4244 3.71502 13.7521 4.54325 13.7529ZM4.54325 8.42609C4.98334 8.42609 5.41356 8.55596 5.77952 8.79927C6.14548 9.04258 6.43077 9.38842 6.59932 9.79308C6.76788 10.1977 6.81213 10.643 6.72649 11.0727C6.64085 11.5024 6.42916 11.8972 6.11818 12.2071C5.8072 12.5171 5.41088 12.7284 4.97932 12.8142C4.54775 12.9 4.10031 12.8566 3.69355 12.6893C3.28679 12.5221 2.93896 12.2386 2.69403 11.8746C2.4491 11.5107 2.31805 11.0826 2.31746 10.6446C2.31706 10.3534 2.37434 10.065 2.48602 9.79583C2.5977 9.52669 2.76159 9.2821 2.96832 9.07606C3.17504 8.87001 3.42054 8.70655 3.69078 8.59502C3.96102 8.4835 4.2507 8.42609 4.54325 8.42609Z" fill="#302D54"/>
</g>
</svg>
