<svg width="25" height="24" viewBox="0 0 25 24" fill="none" xmlns="http://www.w3.org/2000/svg">
<g id="payment">
<path id="Vector" d="M1.93176 17.4512C2.16938 17.4512 2.362 17.2595 2.362 17.0229C2.362 16.7865 2.16938 16.5947 1.93176 16.5947C1.69418 16.5947 1.50153 16.7865 1.50153 17.0229C1.50153 17.2595 1.69418 17.4512 1.93176 17.4512Z" fill="#302D54"/>
<path id="Vector_2" d="M24.8617 14.5375C24.9856 14.3483 25.0283 14.1217 24.9814 13.9004C24.9351 13.6785 24.8044 13.4892 24.6143 13.3653L23.8465 12.8666L24.482 11.8976C24.7382 11.5067 24.6278 10.981 24.2351 10.7254L7.94555 0.137353C7.55285 -0.117713 7.02469 -0.00728738 6.76844 0.383633L1.35891 8.62889C1.10266 9.01872 1.21359 9.54545 1.60633 9.80052L2.37406 10.2998L1.73809 11.2687C1.6141 11.4575 1.57141 11.684 1.61777 11.9049C1.66465 12.1268 1.79484 12.317 1.98551 12.4404L5.62672 14.8071C4.99441 14.8636 4.27774 14.9486 3.45949 15.0694H0.378671C0.169804 15.0694 0 15.2374 0 15.4469V22.0631C0 22.2721 0.169296 22.4406 0.378671 22.4406H3.42981C3.93242 22.5914 7.32211 23.5578 11.5014 23.5578C13.4884 23.5578 15.6515 23.3287 17.7636 22.6967L18.275 23.0295C18.4151 23.1208 18.575 23.1679 18.7386 23.1679C18.7969 23.1679 18.8563 23.1617 18.9146 23.1488C19.137 23.1026 19.3277 22.9725 19.4516 22.7838L20.0823 21.8231C21.2986 21.2502 22.4684 20.5089 23.5403 19.5529C23.5741 19.5223 23.6158 19.4891 23.6622 19.4513C23.9606 19.2081 24.4606 18.8011 24.4637 18.2308C24.4658 17.8897 24.2918 17.5709 23.9455 17.28C23.734 17.1038 23.4856 17.0561 23.1866 17.0913L24.8617 14.5375ZM24.1997 13.9973C24.2268 14.0139 24.2361 14.0382 24.2398 14.0548C24.2434 14.0725 24.2445 14.0979 24.2268 14.1248L23.1736 15.7315C23.1658 15.7232 23.158 15.717 23.1502 15.7102C23.0684 15.6319 22.9923 15.549 22.9236 15.4619C22.9137 15.4494 22.9043 15.4349 22.8949 15.4225C22.8324 15.34 22.7757 15.254 22.7252 15.1643C22.7168 15.1498 22.7074 15.1363 22.6996 15.1218C22.6475 15.0243 22.6022 14.9248 22.5637 14.8226C22.5559 14.8024 22.5491 14.7812 22.5418 14.7604C22.4679 14.5494 22.423 14.3291 22.4095 14.1067C22.4085 14.0844 22.4064 14.0631 22.4059 14.0408C22.4022 13.9325 22.4048 13.8231 22.4158 13.7137C22.4173 13.6966 22.4204 13.679 22.423 13.6608C22.435 13.5597 22.4543 13.4571 22.4793 13.3565C22.4829 13.342 22.4855 13.3275 22.4897 13.3135C22.5194 13.2062 22.5579 13.1015 22.6027 12.9978C22.6069 12.9874 22.6121 12.9775 22.6163 12.9672L24.1997 13.9973ZM2.02039 9.16958C1.97766 9.14108 1.9657 9.08353 1.99383 9.04104L7.40231 0.795783C7.42055 0.768293 7.45074 0.754295 7.48094 0.754295C7.49817 0.754295 7.51586 0.758961 7.53148 0.769342L23.821 11.3574C23.8643 11.3849 23.8757 11.4424 23.8481 11.4849L23.2122 12.4539L8.32422 2.77725C7.93148 2.52219 7.40336 2.63261 7.14711 3.02353L2.78762 9.66781L2.02039 9.16958ZM9.53152 4.46217C9.5232 4.4715 9.51539 4.48033 9.50653 4.48966C9.42895 4.57364 9.34715 4.65191 9.2602 4.72139C9.24715 4.73228 9.23359 4.7406 9.22059 4.75094C9.13883 4.81421 9.0534 4.87121 8.96539 4.92358C8.9482 4.93346 8.93153 4.94485 8.91328 4.95469C8.81692 5.00862 8.71746 5.05422 8.61535 5.09416C8.59297 5.10349 8.57004 5.11076 8.54817 5.11854C8.44297 5.15637 8.33621 5.18903 8.2268 5.21236C8.22473 5.21286 8.22211 5.21286 8.22004 5.21341C8.11172 5.23674 8.00078 5.24864 7.89035 5.25591C7.86535 5.25851 7.84086 5.26007 7.81641 5.26162C7.70754 5.26524 7.59762 5.26318 7.48879 5.25279C7.46793 5.25073 7.44711 5.24762 7.42625 5.24451C7.32574 5.23258 7.22523 5.21391 7.12574 5.19008C7.10906 5.18541 7.09293 5.18281 7.07574 5.17919C6.96793 5.1491 6.86113 5.11021 6.75645 5.06461C6.74551 5.06045 6.73406 5.05477 6.72363 5.04956L7.78199 3.43669C7.81012 3.39369 7.86797 3.38226 7.91067 3.40924L9.53152 4.46217ZM4.22461 12.1019C4.22254 12.1216 4.21941 12.1408 4.21734 12.1594C4.20535 12.2611 4.18606 12.3637 4.16106 12.4637C4.15691 12.4798 4.15379 12.4954 4.15016 12.5104C4.11992 12.6183 4.08137 12.7245 4.03555 12.8292C4.03086 12.8401 4.02512 12.8516 4.02043 12.8624L2.39957 11.8084C2.37301 11.7913 2.36363 11.7675 2.35945 11.7499C2.35582 11.7338 2.35527 11.7073 2.37301 11.6809L3.43187 10.067C3.44023 10.0758 3.44906 10.0831 3.45793 10.0909C3.5423 10.1692 3.62148 10.2516 3.69281 10.3387C3.70219 10.3506 3.71055 10.363 3.72043 10.375C3.78449 10.4579 3.84285 10.5435 3.89598 10.6321C3.90586 10.6492 3.91629 10.6648 3.92566 10.6829C3.97981 10.7783 4.02617 10.8784 4.0668 10.9805C4.07566 11.0023 4.08293 11.0235 4.09074 11.0453C4.1668 11.2574 4.21367 11.4793 4.2298 11.7042C4.23137 11.727 4.23293 11.7499 4.23398 11.7727C4.23711 11.8826 4.23504 11.9925 4.22461 12.1019ZM4.66367 13.2803C4.69805 13.2108 4.72774 13.1419 4.75691 13.0714C4.76266 13.0589 4.76891 13.046 4.7741 13.033C4.81004 12.9418 4.84078 12.8495 4.86785 12.7567C4.87723 12.725 4.88348 12.6939 4.89234 12.6613C4.90797 12.5996 4.92359 12.5363 4.93559 12.4731C4.9434 12.4363 4.94859 12.3979 4.9543 12.3606C4.96367 12.3025 4.97152 12.2439 4.97723 12.1854C4.9809 12.147 4.98402 12.1081 4.98715 12.0687C4.99027 12.0107 4.99184 11.951 4.99234 11.8925C4.99289 11.8556 4.9934 11.8173 4.99234 11.7799C4.99027 11.7172 4.98559 11.6545 4.98035 11.5917C4.97723 11.5591 4.97566 11.5269 4.97203 11.4943C4.96109 11.403 4.94652 11.3138 4.92828 11.2242C4.92672 11.2174 4.92516 11.2112 4.92359 11.2039C4.90484 11.1143 4.8809 11.0261 4.85434 10.938C4.84496 10.9074 4.83348 10.8779 4.82309 10.8483C4.80277 10.7877 4.78141 10.728 4.75691 10.6679C4.74336 10.6342 4.72774 10.6005 4.71266 10.5673C4.68816 10.5129 4.66266 10.4584 4.63555 10.4056C4.61836 10.3724 4.60016 10.3387 4.58141 10.306C4.55172 10.2526 4.51992 10.2013 4.4866 10.1505C4.46734 10.1188 4.44805 10.0888 4.42723 10.0582C4.38918 10.0038 4.3491 9.95037 4.30691 9.898C4.28816 9.87362 4.27047 9.84928 4.25066 9.8254C4.18816 9.74974 4.12203 9.67715 4.05172 9.60821C4.04547 9.60094 4.03816 9.59627 4.03191 9.59005C3.97406 9.53406 3.91473 9.47857 3.85168 9.42624L6.30383 5.68827C6.32313 5.69761 6.34238 5.70488 6.36219 5.71421C6.38563 5.7251 6.40957 5.73443 6.43356 5.74582C6.55906 5.8008 6.68719 5.85002 6.81688 5.8884C6.82625 5.89046 6.83613 5.89256 6.84551 5.89513C6.97051 5.9309 7.09656 5.95633 7.22418 5.97655C7.24711 5.98016 7.27055 5.98483 7.29348 5.98743C7.4216 6.00454 7.54918 6.01333 7.67731 6.01488C7.69086 6.01488 7.70492 6.01803 7.71848 6.01803C7.73567 6.01803 7.75231 6.01488 7.77055 6.01387C7.8716 6.01282 7.97262 6.00711 8.07317 5.99571C8.08774 5.99466 8.10235 5.99466 8.11692 5.9921C8.22785 5.97861 8.33777 5.95734 8.4466 5.93195C8.47941 5.92468 8.51066 5.9164 8.54297 5.90757C8.63879 5.88268 8.73254 5.85368 8.82528 5.81946C8.84192 5.81324 8.85859 5.80908 8.87473 5.80336C8.97996 5.76293 9.08207 5.71576 9.18363 5.66389C9.21121 5.64939 9.23883 5.63384 9.26695 5.61883C9.35445 5.57112 9.44039 5.5198 9.52371 5.46326C9.53778 5.45343 9.5534 5.44514 9.56801 5.43426C9.66277 5.36839 9.75238 5.29529 9.83988 5.21858C9.86227 5.19887 9.88363 5.17814 9.90551 5.15792C9.98156 5.08688 10.055 5.01328 10.1248 4.93396C10.1357 4.92101 10.1493 4.90857 10.1602 4.89508C10.1649 4.88936 10.1706 4.88419 10.1753 4.87953L21.9741 12.5477C21.9407 12.6146 21.9121 12.6825 21.8845 12.7505C21.8793 12.7629 21.873 12.7753 21.8679 12.7878C21.8319 12.879 21.8006 12.9713 21.7736 13.0641C21.7657 13.0905 21.7606 13.117 21.7532 13.1424C21.7361 13.2098 21.7194 13.2767 21.7064 13.3446C21.6996 13.3788 21.6949 13.413 21.6892 13.4477C21.6793 13.5074 21.6709 13.568 21.6647 13.6302C21.6616 13.6655 21.6584 13.7023 21.6559 13.7386C21.6517 13.7987 21.6496 13.8594 21.6491 13.92C21.6491 13.9553 21.6481 13.9906 21.6491 14.0253C21.6506 14.0906 21.6553 14.1549 21.6605 14.2197C21.6631 14.2492 21.6642 14.2793 21.6678 14.3094C21.6782 14.4001 21.6918 14.4903 21.71 14.5795C21.71 14.5826 21.7105 14.5857 21.7116 14.5894C21.7303 14.6827 21.7538 14.7739 21.7809 14.8646C21.7897 14.8926 21.7996 14.9196 21.8084 14.9471C21.8293 15.0093 21.8507 15.0715 21.8751 15.1327C21.8876 15.1653 21.9022 15.1975 21.9157 15.2296C21.9402 15.2846 21.9657 15.3406 21.9928 15.395C22.009 15.4271 22.0262 15.4588 22.0434 15.4909C22.073 15.5448 22.1043 15.5972 22.1371 15.6495C22.1559 15.6796 22.1736 15.7092 22.1934 15.7387C22.2309 15.7942 22.271 15.8492 22.3127 15.9015C22.3298 15.9254 22.3465 15.9492 22.3647 15.971C22.4262 16.0467 22.4907 16.1198 22.56 16.1898C22.5637 16.1934 22.5684 16.1976 22.572 16.2012C22.6304 16.2593 22.6908 16.3168 22.7538 16.3712L20.2923 20.1216C20.222 20.0884 20.1506 20.0594 20.0787 20.0314C20.0678 20.0262 20.0568 20.021 20.0464 20.0174C19.9548 19.9832 19.862 19.9536 19.7693 19.9288C19.7397 19.9199 19.7095 19.9142 19.6792 19.9075C19.6152 19.8919 19.5511 19.8769 19.4865 19.8655C19.45 19.8588 19.4141 19.8546 19.3782 19.8494C19.3188 19.8406 19.2594 19.8344 19.1995 19.8287C19.1615 19.8256 19.124 19.8224 19.086 19.8209C19.0271 19.8178 18.9683 19.8162 18.9099 19.8168C18.8724 19.8168 18.8349 19.8168 18.7979 19.8188C18.7354 19.8209 18.6735 19.8261 18.6115 19.8318C18.5787 19.8349 18.5464 19.837 18.5136 19.8411C18.4224 19.8525 18.3318 19.8676 18.2427 19.8868C18.2271 19.8899 18.212 19.895 18.1964 19.8982C18.1177 19.9158 18.0396 19.936 17.9625 19.9604C17.9292 19.9707 17.8959 19.9832 17.8631 19.9946C17.8068 20.0138 17.7505 20.034 17.6953 20.0563C17.6589 20.0708 17.6234 20.0869 17.587 20.104C17.5354 20.1263 17.4849 20.1507 17.4344 20.1771C17.3989 20.1952 17.3641 20.2139 17.3286 20.2336C17.2786 20.2621 17.2302 20.2922 17.1818 20.3227C17.1489 20.343 17.1166 20.3632 17.0843 20.3855C17.0318 20.4218 16.9807 20.4607 16.9302 20.5011C16.9047 20.5203 16.8786 20.5389 16.8541 20.5597C16.7807 20.6203 16.7093 20.6846 16.6411 20.7531C16.6286 20.766 16.6172 20.7805 16.6047 20.7935C16.5562 20.8433 16.5078 20.8941 16.4625 20.9475L15.5192 20.3347C15.7177 20.288 15.9036 20.2356 16.0661 20.1724C16.9916 19.8131 17.2172 19.2377 17.2432 18.8177C17.2849 18.1495 17.1213 17.6269 16.7583 17.2645C16.2395 16.7471 15.513 16.7839 15.49 16.7844C12.3483 16.9068 11.6202 16.3339 10.918 15.7786C10.1831 15.197 9.47633 14.6396 6.88875 14.7247L4.66367 13.2803ZM0.756797 15.8227H3.10688V21.6852H0.756797V15.8227ZM3.86418 21.7775V15.7719C8.81223 15.0772 9.60551 15.706 10.4467 16.3702C11.2571 17.011 12.0962 17.6746 15.5265 17.5393C15.5312 17.5388 15.9494 17.5279 16.2213 17.799C16.425 18.0017 16.514 18.3294 16.4864 18.7731C16.4802 18.882 16.4593 19.2128 15.7906 19.472C15.101 19.7395 13.5796 19.9697 10.2466 19.5399C10.0394 19.5109 9.84875 19.6586 9.8227 19.865C9.79563 20.0713 9.94199 20.2611 10.1493 20.287C11.8743 20.5099 13.2879 20.5794 14.3848 20.4995L16.8984 22.1326C11.1899 23.578 5.1866 22.1352 3.86418 21.7775ZM18.8177 22.3695C18.8 22.3965 18.7761 22.4058 18.7589 22.41C18.7422 22.4131 18.7157 22.4141 18.6891 22.3965L17.1047 21.3669C17.1125 21.3581 17.1193 21.3503 17.1276 21.342C17.2041 21.2601 17.2854 21.1829 17.3714 21.1144C17.3844 21.1035 17.3984 21.0942 17.4114 21.0838C17.4911 21.0221 17.5745 20.9656 17.6609 20.9148C17.6781 20.9045 17.6953 20.8936 17.713 20.8837C17.8073 20.8303 17.9052 20.7852 18.0052 20.7453C18.0281 20.7359 18.0511 20.7287 18.074 20.7199C18.1745 20.6836 18.2776 20.6509 18.3818 20.6281C18.386 20.6276 18.3896 20.6255 18.3932 20.625C18.5005 20.6011 18.6104 20.5882 18.7198 20.5789C18.7443 20.5768 18.7688 20.5747 18.7932 20.5731C18.9016 20.5675 19.0099 20.5685 19.1183 20.5768C19.137 20.5789 19.1553 20.582 19.174 20.584C19.2735 20.5949 19.373 20.6105 19.4709 20.6338C19.4891 20.638 19.5068 20.6406 19.5245 20.6447C19.6318 20.6722 19.737 20.7085 19.8407 20.7499C19.8511 20.7552 19.861 20.7593 19.8714 20.7639L18.8177 22.3695ZM23.459 17.8565C23.5726 17.9519 23.708 18.0924 23.707 18.2241C23.7054 18.4408 23.3783 18.7073 23.183 18.8665C23.1267 18.9121 23.0762 18.953 23.0356 18.9893C22.3804 19.5742 21.6803 20.0677 20.9538 20.4928L22.5564 18.0494C23.0017 17.8757 23.3543 17.7694 23.459 17.8565Z" fill="#302D54"/>
<path id="Vector_3" d="M11.5942 14.8128L11.4436 15.0419C11.3296 15.2166 11.3785 15.4494 11.5541 15.564C11.6176 15.6055 11.69 15.6251 11.7603 15.6251C11.8837 15.6251 12.0057 15.565 12.0775 15.4546L12.228 15.2259C12.4119 15.2939 12.6035 15.3333 12.7968 15.3333C12.8807 15.3333 12.965 15.326 13.0484 15.3125C13.4609 15.2472 13.8099 15.0253 14.0302 14.6899C14.2609 14.3379 14.3448 13.9625 14.2718 13.6038C14.2171 13.3316 14.0396 12.9334 13.5067 12.5871C13.0353 12.2807 12.9359 11.9344 13.2026 11.528C13.3046 11.3724 13.4708 11.2692 13.6703 11.2371C13.8843 11.2024 14.1068 11.2532 14.2994 11.3781C14.6854 11.6285 14.8214 12.104 14.6031 12.4368C14.4885 12.6115 14.538 12.8453 14.713 12.9594C14.8885 13.0734 15.1234 13.0242 15.2375 12.85C15.6177 12.2698 15.5005 11.5031 15.0052 10.9919L15.1557 10.7633C15.2703 10.5885 15.2208 10.3547 15.0458 10.2406C14.8708 10.1271 14.6354 10.1759 14.5219 10.3511L14.3713 10.5797C14.1078 10.4823 13.8276 10.4485 13.551 10.4916C13.1385 10.558 12.789 10.7798 12.5692 11.1153C12.1775 11.712 12.1093 12.5778 13.0927 13.2186C13.3442 13.3813 13.4911 13.5607 13.5301 13.751C13.5708 13.9548 13.4801 14.1492 13.3963 14.2767C13.2942 14.4328 13.1281 14.5359 12.9291 14.5681C12.7171 14.6018 12.4932 14.5515 12.3004 14.427C12.1072 14.3016 11.9713 14.1181 11.9176 13.9107C11.866 13.7163 11.8947 13.5234 11.9968 13.3679C12.1114 13.1937 12.0619 12.9599 11.8869 12.8458C11.7109 12.7318 11.4764 12.7815 11.3624 12.9552C11.1426 13.2906 11.0791 13.6981 11.1843 14.1004C11.2541 14.3695 11.3989 14.6111 11.5942 14.8128Z" fill="#302D54"/>
<path id="Vector_4" d="M17.9121 17.5196L18.0069 17.5813C18.2215 17.7213 18.4673 17.7929 18.7179 17.7929C18.8075 17.7929 18.8986 17.7825 18.9887 17.7643C19.3298 17.6933 19.6226 17.4937 19.8132 17.2034L19.8752 17.1091C20.2684 16.5092 20.0981 15.7025 19.4955 15.3106L19.4007 15.2499C19.1085 15.0602 18.7606 14.9938 18.4194 15.0664C18.0777 15.1379 17.7855 15.3365 17.5949 15.6268L17.5334 15.7212C17.1397 16.321 17.31 17.1277 17.9121 17.5196ZM18.1673 16.1333L18.2288 16.04C18.309 15.9177 18.4319 15.8347 18.5751 15.8041C18.7178 15.7735 18.8647 15.8015 18.9871 15.8808L19.0819 15.9426C19.3345 16.1064 19.4059 16.4455 19.2413 16.6969L19.1798 16.7912C19.0991 16.9125 18.9762 16.996 18.8335 17.0261C18.6902 17.0561 18.5439 17.0287 18.4215 16.9494L18.3272 16.8887C18.0741 16.7238 18.0022 16.3853 18.1673 16.1333Z" fill="#302D54"/>
<path id="Vector_5" d="M8.18051 10.7394C8.52169 10.6679 8.81493 10.4693 9.00555 10.1785L9.06704 10.0841C9.46028 9.4848 9.29047 8.67812 8.68731 8.28619L8.59251 8.22498C8.30032 8.03473 7.95188 7.96992 7.61126 8.04096C7.26958 8.11301 6.97684 8.31107 6.78673 8.60241L6.72528 8.69678C6.33153 9.29556 6.50184 10.1033 7.10501 10.4952L7.19926 10.5559C7.41383 10.6959 7.65969 10.7679 7.90969 10.7679C7.99926 10.7674 8.09044 10.7586 8.18051 10.7394ZM7.61282 9.92394L7.51852 9.86274C7.2659 9.69842 7.19458 9.35987 7.35915 9.10893L7.42063 9.0146C7.50083 8.89224 7.62376 8.80876 7.767 8.77871C7.91075 8.74811 8.05606 8.77661 8.17895 8.85542L8.27376 8.91713C8.39618 8.99644 8.48004 9.11881 8.51024 9.26135C8.54044 9.40342 8.51231 9.54962 8.43262 9.67144L8.37169 9.7653C8.29145 9.88712 8.16856 9.9711 8.02532 10.0007C7.88001 10.0302 7.7352 10.0033 7.61282 9.92394Z" fill="#302D54"/>
</g>
</svg>
