<svg width="25" height="19" viewBox="0 0 25 19" fill="none" xmlns="http://www.w3.org/2000/svg">
<g id="representation">
<path id="Vector" d="M0.555556 18.4063H24.4444C24.7508 18.4063 25 18.1582 25 17.8533V2.8312C25 2.52628 24.7508 2.27821 24.4444 2.27821H15.6531V1.49671C15.6531 0.671427 14.9786 0 14.1495 0H10.8505C10.0214 0 9.34689 0.671427 9.34689 1.49671V2.27821H0.555556C0.249221 2.27821 0 2.52628 0 2.8312V17.8533C0 18.1582 0.249221 18.4063 0.555556 18.4063ZM10.155 1.49671C10.155 1.11494 10.467 0.804348 10.8505 0.804348H14.1495C14.533 0.804348 14.845 1.11494 14.845 1.49671V2.27821H10.155V1.49671ZM0.808081 3.08256H24.1919V7.12298H0.808081V3.08256ZM0.808081 7.92733H24.1919V17.602H0.808081V7.92733Z" fill="#302D54"/>
</g>
</svg>
