<svg width="46" height="46" viewBox="0 0 46 46" fill="none" xmlns="http://www.w3.org/2000/svg">
<g id="Apartments">
<path id="Vector" d="M8.85693 36.3125H37.4284" stroke="black" stroke-width="2.22222" stroke-linecap="round" stroke-linejoin="round"/>
<path id="Vector_2" d="M16.2858 24.8839H12.8573C12.2261 24.8839 11.7144 25.3956 11.7144 26.0268V35.1697C11.7144 35.8008 12.2261 36.3125 12.8573 36.3125H16.2858C16.917 36.3125 17.4287 35.8008 17.4287 35.1697V26.0268C17.4287 25.3956 16.917 24.8839 16.2858 24.8839Z" stroke="black" stroke-width="2.22222" stroke-linejoin="round"/>
<path id="Vector_3" d="M14.5718 30.5981H15.2861" stroke="black" stroke-width="2.22222" stroke-linecap="square" stroke-linejoin="round"/>
<path id="Vector_4" d="M33.4288 9.16968H18.5716C17.9404 9.16968 17.4287 9.68135 17.4287 10.3125V35.1697C17.4287 35.8009 17.9404 36.3126 18.5716 36.3126H33.4288C34.0599 36.3126 34.5716 35.8009 34.5716 35.1697V10.3125C34.5716 9.68135 34.0599 9.16968 33.4288 9.16968Z" stroke="black" stroke-width="2.22222" stroke-linejoin="round"/>
<path id="Vector_5" d="M24.5716 13.4554H21.7144V16.3126H24.5716V13.4554Z" fill="black"/>
<path id="Vector_6" d="M30.2859 13.4554H27.4287V16.3126H30.2859V13.4554Z" fill="black"/>
<path id="Vector_7" d="M24.5716 18.4554H21.7144V21.3126H24.5716V18.4554Z" fill="black"/>
<path id="Vector_8" d="M30.2859 18.4554H27.4287V21.3126H30.2859V18.4554Z" fill="black"/>
<path id="Vector_9" d="M30.2859 23.4554H27.4287V26.3126H30.2859V23.4554Z" fill="black"/>
<path id="Vector_10" d="M30.2859 28.4554H27.4287V31.3126H30.2859V28.4554Z" fill="black"/>
</g>
</svg>
