<svg width="46" height="46" viewBox="0 0 46 46" fill="none" xmlns="http://www.w3.org/2000/svg">
<g id="Sea view">
<g id="Group">
<g id="Group_2">
<g id="Group_3">
<path id="Vector" d="M31.8847 17.577C31.7693 17.2885 31.9423 16.9423 32.2308 16.827L33.2693 16.4231C33.5577 16.3077 33.9039 16.4808 34.0193 16.7693C34.1347 17.0577 34.0193 17.4039 33.6731 17.5193L32.6347 17.9231C32.3462 18.0385 32 17.8654 31.8847 17.577Z" fill="black"/>
</g>
<g id="Group_4">
<path id="Vector_2" d="M26.2885 11.2308L26.75 10.1923C26.8654 9.90383 27.2116 9.78845 27.5 9.90383C27.7885 10.0192 27.9039 10.3654 27.7885 10.6538L27.3269 11.6923C27.2116 11.9808 26.8654 12.0961 26.5769 11.9808C26.2885 11.8654 26.1731 11.5192 26.2885 11.2308Z" fill="black"/>
</g>
<g id="Group_5">
<path id="Vector_3" d="M35.5769 21.0961C35.5769 21.4422 35.3462 21.673 35 21.673H32.5769C32.2308 21.673 32 21.4422 32 21.0961C32 20.8076 32.2308 20.5192 32.5769 20.5192H35C35.2885 20.5192 35.5769 20.7499 35.5769 21.0961Z" fill="black"/>
</g>
<g id="Group_6">
<path id="Vector_4" d="M12.9616 21.0961C12.9616 21.4422 12.7308 21.673 12.3846 21.673H9.96157C9.61541 21.673 9.38464 21.4422 9.38464 21.0961C9.38464 20.8076 9.61541 20.5192 9.96157 20.5192H12.3846C12.7308 20.5192 12.9616 20.7499 12.9616 21.0961Z" fill="black"/>
</g>
<g id="Group_7">
<path id="Vector_5" d="M13.3077 17.0577C13.1923 17.3461 12.8461 17.4615 12.5577 17.3461L11.5192 16.9423C11.2307 16.8269 11.1154 16.4808 11.2307 16.1923C11.3461 15.9038 11.6923 15.7885 11.9807 15.9038L13.0192 16.3654C13.3077 16.4231 13.423 16.7692 13.3077 17.0577Z" fill="black"/>
</g>
<g id="Group_8">
<path id="Vector_6" d="M21.9038 11V8.57692C21.9038 8.23077 22.1346 8 22.4807 8C22.7692 8 23.0577 8.23077 23.0577 8.57692V11C23.0577 11.2885 22.7692 11.5769 22.4807 11.5769C22.1346 11.5769 21.9038 11.3462 21.9038 11Z" fill="black"/>
</g>
<g id="Group_9">
<path id="Vector_7" d="M17.75 10.4231C17.6346 10.1346 17.8077 9.78849 18.0962 9.6731C18.3846 9.55772 18.7308 9.7308 18.8462 10.0193L19.25 11.0577C19.3654 11.3462 19.25 11.6923 18.9039 11.8077C18.6154 11.9231 18.2692 11.8077 18.1539 11.4616L17.75 10.4231Z" fill="black"/>
</g>
<g id="Group_10">
<path id="Vector_8" d="M13.25 12.673C13.0192 12.4423 13.0192 12.0961 13.25 11.8653C13.4808 11.6346 13.8269 11.6346 14.0577 11.8653L15.7884 13.5961C16.0192 13.8269 16.0192 14.173 15.7884 14.4038C15.5577 14.6346 15.2115 14.6346 14.9808 14.4038L13.25 12.673Z" fill="black"/>
</g>
<g id="Group_11">
<path id="Vector_9" d="M30.6153 20.9808C30.6153 22.4231 30.2115 23.8654 29.5191 25.077C28.7115 25.8847 28.9999 25.7116 28.7691 25.7116C28.2499 25.3077 27.4422 23.8654 25.423 23.8654C23.5191 23.8654 22.5961 25.25 22.3653 25.4808H22.3076H22.2499C21.8461 25.0193 20.7499 24.4423 19.6538 24.4423C17.5768 24.4423 16.7691 26.1731 16.4807 26.1731C15.9615 26.1154 14.3461 23.8654 14.3461 20.9808C14.3461 16.4808 17.9807 12.8462 22.4807 12.8462C26.9807 12.8462 30.6153 16.4808 30.6153 20.9808Z" fill="black"/>
</g>
<g id="Group_12">
<path id="Vector_10" d="M31.7115 12.673L29.9808 14.4038C29.75 14.6346 29.4038 14.6346 29.1731 14.4038C28.9423 14.173 28.9423 13.8269 29.1731 13.5961L30.9038 11.8653C31.1346 11.6346 31.4808 11.6346 31.7115 11.8653C31.9423 12.0384 31.9423 12.4423 31.7115 12.673Z" fill="black"/>
</g>
</g>
<g id="Group_13">
<g id="Group_14">
<path id="Vector_11" d="M40.7692 31.8846C41 32.1154 41 32.4616 40.7692 32.6923C40.5385 32.9231 40.1923 32.9231 39.9615 32.6923L39.1538 31.9423C38 30.7885 37.9423 33.0385 35.8654 33.0385C34.4231 33.0385 33.9038 32 33.2692 31.4808C32.8077 31.0192 31.9423 31.0192 31.4808 31.4808C30.8462 32 30.2692 33.1539 28.8269 33.1539C27.4423 33.1539 26.8654 32.0577 26.2885 31.6539C25.8269 31.1923 24.9615 31.1923 24.5 31.6539L23.9231 32.2308C23 33.1539 21.4423 33.1539 20.5192 32.2308L20.4615 32.1731C19.1346 31.1923 18.3846 32.75 18.0962 32.8654C17.6346 33.3269 17 33.5577 16.3654 33.5577C14.9808 33.5577 14.4038 32.4616 13.8269 32C13.3654 31.5385 12.5577 31.5385 12.0962 32C11.4615 32.8077 9.73077 33.4423 8.46154 32.1731L7.76923 31.4808C7.30769 31.0192 6.44231 31.0192 5.98077 31.4808C5.75 31.7116 5.40385 31.7116 5.17308 31.4808C4.94231 31.25 4.94231 30.9039 5.17308 30.6731C5.63462 30.2116 6.21154 29.9808 6.90385 29.9808C8.69231 29.9808 9.03846 31.7692 10.0769 31.7692C10.1346 31.7692 10.5962 31.7693 11.1731 31.3077C11.6346 30.5 13.4808 30.0962 14.6346 31.25L15.5 31.9423C16.0192 32.4616 16.7692 32.4616 17.2885 31.9423C17.4038 31.8846 19.0192 29.5769 21.1538 31.1923C21.2692 31.25 21.3269 31.3654 21.3846 31.4231C21.8462 31.8269 22.6538 31.8269 23.1154 31.3654L23.6923 30.7885C24.6154 29.8654 26.1731 29.8654 27.0962 30.7885L27.9038 31.5962C28.3654 32.0577 29.2308 32.0577 29.6923 31.5962C30.3846 31.0193 30.9615 29.9231 32.3462 29.9231C33.7308 29.9231 34.3077 30.9616 34.9423 31.4808C35.4038 31.9423 36.2692 31.9423 36.7308 31.4808C37.0192 31.3077 38.2308 29.2885 39.9615 31.0769L40.7692 31.8846Z" fill="black"/>
</g>
<g id="Group_15">
<path id="Vector_12" d="M40.7692 36.9615C41 37.1923 41 37.5384 40.7692 37.7692C40.5385 38 40.1923 38 39.9615 37.7692L39.1538 37.0192C38.9808 36.8461 38.75 36.673 38.5192 36.673C38 36.673 37.4231 38.173 35.8654 38.173C34.4231 38.173 33.9038 37.0769 33.2692 36.6153C32.8077 36.1538 31.9423 36.1538 31.4808 36.6153L30.5 37.4807C30.0385 37.9423 29.4615 38.173 28.7692 38.173C27.3846 38.173 26.8077 37.0769 26.2308 36.673C25.7692 36.2115 24.9038 36.2115 24.4423 36.673C24.0962 36.9615 23.5192 37.9423 22.1923 37.9423C21.4423 37.9423 20.6923 37.5384 20.4038 37.1923C20.1731 37.0192 19.3654 36.5576 18.6731 37.25C18.3269 37.5384 17.75 38.5769 16.3654 38.5769C14.9808 38.5769 14.3462 37.4807 13.8269 37.0192C13.3654 36.5576 12.5577 36.5 12.0962 37.0192C11.3462 37.9423 9.67308 38.4038 8.46154 37.1923L7.76923 36.5C7.25 36.0384 6.44231 36.0384 5.98077 36.5C5.75 36.7307 5.40385 36.7307 5.17308 36.5C4.94231 36.2692 4.94231 35.923 5.17308 35.6923C6.09615 34.7692 7.65385 34.7692 8.57692 35.6923C8.92308 35.8653 9.78846 37.5961 11.1731 36.2115C12.0962 35.2884 13.6538 35.2884 14.5769 36.2115C14.8077 36.3846 16.0192 38.2307 17.2308 37.0192L17.8654 36.3846C19.0192 35.2307 20.75 35.6923 21.3269 36.4423C21.7885 36.8461 22.5962 36.8461 23.0577 36.3846C23.4038 36.0961 23.9808 35.1153 25.3077 35.1153C26.6923 35.1153 27.2692 36.1538 27.7885 36.6153C28.25 37.0769 29.1154 37.0769 29.5769 36.6153L30.5577 35.6346C31.4808 34.7115 33.0385 34.7115 33.9615 35.6346L34.8269 36.5C35.3462 37.0192 36.0962 37.0192 36.6154 36.5C36.6731 36.5 36.6731 36.4423 36.7308 36.4423C36.9038 36.2692 37.4808 35.4038 38.4038 35.4038C38.8654 35.4038 39.3846 35.6346 39.9038 36.0961L40.7692 36.9615Z" fill="black"/>
</g>
<g id="Group_16">
<path id="Vector_13" d="M5.23069 26.3461C4.99992 26.1153 4.99992 25.7691 5.23069 25.5384C5.69223 25.0768 6.26916 24.8461 6.96146 24.8461C8.80762 24.8461 9.09608 26.6345 10.1922 26.6345C10.6538 26.6345 11.1153 26.2884 11.2307 26.173L11.2884 26.1153C12.2115 25.1922 13.7692 25.1922 14.6922 26.1153C14.923 26.2884 16.1345 28.1345 17.3461 26.9807C17.4615 26.923 19.0768 24.6153 21.2115 26.2307C21.3268 26.2884 21.3845 26.4038 21.4422 26.4615C21.9038 26.8653 22.7115 26.8653 23.173 26.4038C23.5192 26.1153 24.0961 25.1345 25.423 25.1345C26.8076 25.1345 27.3845 26.173 27.9038 26.6345C28.3653 27.0961 29.2307 27.0961 29.6922 26.6345L30.673 25.6538C31.1345 25.1922 31.7115 24.9615 32.4038 24.9615C33.7884 24.9615 34.3653 25.9999 34.9999 26.5191C35.4615 26.9807 36.3268 26.9807 36.7884 26.5191C37.0768 26.3461 38.2884 24.3845 40.0192 26.1153L40.8268 26.923C41.0576 27.1538 41.0576 27.4999 40.8268 27.7307C40.0768 28.4807 39.3268 26.5768 38.6345 26.5768C37.9999 26.5768 37.5961 28.0768 35.923 28.0768C34.4807 28.0768 33.9615 26.9807 33.3268 26.5191C32.8653 26.0576 31.9999 26.0576 31.5384 26.5191L30.4999 27.3268C30.0384 27.7884 29.4615 28.0191 28.7692 28.0191C27.3845 28.0191 26.8076 26.923 26.2307 26.5191C25.7692 26.0576 24.9038 26.0576 24.4422 26.5191L23.8653 27.0961C22.6538 28.3076 20.8076 27.7307 20.4038 27.0384C18.6153 25.7691 18.5576 28.423 16.3653 28.423C14.9807 28.423 14.3461 27.3268 13.8268 26.8653C13.3653 26.4038 12.5576 26.3461 12.0961 26.8653C11.9807 26.9807 11.8653 27.0961 11.8076 27.1538C9.55762 28.9422 8.05762 26.5191 7.82685 26.4038C7.36531 25.9422 6.49992 25.9422 6.03839 26.4038C5.80762 26.5768 5.46146 26.5768 5.23069 26.3461Z" fill="black"/>
</g>
</g>
</g>
</g>
</svg>
