<svg width="46" height="46" viewBox="0 0 46 46" fill="none" xmlns="http://www.w3.org/2000/svg">
<g id="Installment">
<g id="Group 85">
<path id="Vector" d="M15.4344 29.5C15.4746 29.5043 15.5152 29.5043 15.5554 29.5L15.921 29.4184C16.0781 29.7461 16.3476 30.0065 16.6804 30.1525C16.7236 30.1682 16.7678 30.1813 16.8125 30.1919V27.7225C16.7636 27.6232 16.6864 27.5406 16.5907 27.485C16.495 27.4294 16.385 27.4032 16.2745 27.4098C16.164 27.4164 16.0579 27.4555 15.9695 27.5221C15.8811 27.5887 15.8143 27.68 15.7775 27.7844C15.7219 27.9553 15.6916 28.1334 15.6875 28.3131L15.3247 28.3919C15.1755 28.4079 15.0388 28.4825 14.9447 28.5994C14.8505 28.7162 14.8067 28.8657 14.8227 29.0148C14.8387 29.164 14.9134 29.3007 15.0302 29.3949C15.147 29.489 15.2965 29.5329 15.4457 29.5169L15.4344 29.5Z" fill="black"/>
<path id="Vector_2" d="M33.2713 20.8262L29.0525 19.8953C29.1449 20.1814 29.1904 20.4806 29.1875 20.7812V21.0793L33.0294 21.9231C33.1736 21.956 33.299 22.0444 33.3785 22.1692C33.458 22.294 33.4852 22.445 33.4541 22.5896L30.4869 35.8731C30.4712 35.9459 30.4413 36.0149 30.3988 36.076C30.3563 36.1372 30.3021 36.1893 30.2393 36.2293C30.1765 36.2693 30.1064 36.2965 30.033 36.3092C29.9596 36.3219 29.8845 36.3199 29.8119 36.3034L28.5744 36.0221C28.2562 36.4216 27.8352 36.7269 27.3566 36.9053L29.5728 37.3918C29.7893 37.4399 30.0131 37.4449 30.2314 37.4065C30.4498 37.3681 30.6584 37.287 30.8455 37.1679C31.0325 37.0488 31.1942 36.894 31.3214 36.7124C31.4485 36.5307 31.5386 36.3258 31.5866 36.1093L34.5566 22.8287C34.6529 22.392 34.5719 21.9349 34.3315 21.5578C34.091 21.1808 33.7107 20.9146 33.2741 20.8178L33.2713 20.8262Z" fill="black"/>
<path id="Vector_3" d="M17.4256 36.0306L16.1881 36.3118C16.1155 36.3284 16.0403 36.3304 15.967 36.3176C15.8936 36.3049 15.8235 36.2778 15.7607 36.2377C15.6979 36.1977 15.6437 36.1456 15.6012 36.0844C15.5587 36.0233 15.5287 35.9543 15.5131 35.8815L12.5431 22.5925C12.512 22.4478 12.5392 22.2968 12.6186 22.172C12.6981 22.0473 12.8236 21.9588 12.9678 21.9259L16.8097 21.0821V20.7812C16.8104 20.4799 16.8597 20.1808 16.9559 19.8953L12.7372 20.8262C12.3006 20.923 11.9202 21.1892 11.6798 21.5663C11.4393 21.9433 11.3583 22.4004 11.4547 22.8371L14.4247 36.1178C14.4726 36.3342 14.5627 36.5392 14.6899 36.7208C14.817 36.9024 14.9787 37.0572 15.1658 37.1763C15.3528 37.2954 15.5614 37.3765 15.7798 37.4149C15.9982 37.4534 16.222 37.4484 16.4384 37.4003L18.6547 36.9137C18.172 36.7372 17.7469 36.4317 17.4256 36.0306Z" fill="black"/>
<path id="Vector_4" d="M25.25 23.5347C25.3992 23.5347 25.5423 23.4754 25.6477 23.3699C25.7532 23.2644 25.8125 23.1214 25.8125 22.9722V21.9063C25.8125 21.7571 25.7532 21.614 25.6477 21.5085C25.5423 21.403 25.3992 21.3438 25.25 21.3438H20.75C20.6008 21.3438 20.4577 21.403 20.3523 21.5085C20.2468 21.614 20.1875 21.7571 20.1875 21.9063V23.0313C20.1875 23.1804 20.2468 23.3235 20.3523 23.429C20.4577 23.5345 20.6008 23.5938 20.75 23.5938C20.8992 23.5938 21.0423 23.5345 21.1477 23.429C21.2532 23.3235 21.3125 23.1804 21.3125 23.0313V22.4688H24.6875V22.9722C24.6875 23.1214 24.7468 23.2644 24.8523 23.3699C24.9577 23.4754 25.1008 23.5347 25.25 23.5347Z" fill="black"/>
<path id="Vector_5" d="M24.2825 28.7491C24.3467 28.7857 24.4176 28.8093 24.491 28.8185C24.5644 28.8277 24.6388 28.8224 24.7102 28.8028C24.7815 28.7832 24.8482 28.7498 24.9066 28.7043C24.965 28.6589 25.0138 28.6024 25.0503 28.5381C25.1268 28.4028 25.1881 28.2594 25.2331 28.1106H25.5313C25.6804 28.1106 25.8235 28.0513 25.929 27.9459C26.0345 27.8404 26.0938 27.6973 26.0938 27.5481C26.0938 27.3989 26.0345 27.2559 25.929 27.1504C25.8235 27.0449 25.6804 26.9856 25.5313 26.9856H25.2697C25.2512 26.9082 25.2277 26.8321 25.1994 26.7578C24.9181 26.0406 24.2459 25.6834 23.5991 25.914C22.8819 26.1644 22.7019 26.8562 22.5697 27.3625C22.4938 27.6437 22.4122 27.9616 22.2688 28.0572C22.238 28.078 22.2018 28.0891 22.1647 28.0891C22.1276 28.0891 22.0913 28.078 22.0606 28.0572C21.9787 27.9535 21.9223 27.8321 21.8959 27.7026C21.8696 27.5731 21.8739 27.4393 21.9088 27.3119C21.9247 27.228 21.9562 27.1479 22.0016 27.0756C22.0396 27.0119 22.0647 26.9413 22.0755 26.8679C22.0863 26.7945 22.0825 26.7197 22.0643 26.6477C22.0462 26.5758 22.014 26.5081 21.9697 26.4486C21.9254 26.389 21.8698 26.3388 21.8061 26.3008C21.7424 26.2627 21.6718 26.2376 21.5984 26.2268C21.525 26.2161 21.4501 26.2199 21.3782 26.238C21.3062 26.2562 21.2386 26.2883 21.179 26.3326C21.1195 26.3769 21.0693 26.4325 21.0313 26.4962C20.9376 26.6483 20.8665 26.8131 20.8203 26.9856H20.4688C20.3196 26.9856 20.1765 27.0449 20.071 27.1504C19.9655 27.2559 19.9062 27.3989 19.9062 27.5481C19.9062 27.6973 19.9655 27.8404 20.071 27.9459C20.1765 28.0513 20.3196 28.1106 20.4688 28.1106H20.8287C20.9072 28.4586 21.1065 28.7676 21.3913 28.9825C21.6141 29.1418 21.8824 29.2246 22.1563 29.2187C22.4208 29.2175 22.6791 29.1383 22.8988 28.9909C23.3881 28.6562 23.5372 28.0937 23.6553 27.6437C23.7538 27.2697 23.8269 27.0222 23.9675 26.9716C24.0209 26.9547 24.1081 27.0587 24.1503 27.1656C24.1964 27.2993 24.2131 27.4413 24.1996 27.582C24.186 27.7227 24.1423 27.8589 24.0716 27.9812C24.0349 28.0455 24.0113 28.1163 24.0021 28.1897C23.9929 28.2631 23.9982 28.3376 24.0178 28.4089C24.0374 28.4802 24.0709 28.547 24.1163 28.6053C24.1617 28.6637 24.2182 28.7125 24.2825 28.7491Z" fill="black"/>
<path id="Vector_6" d="M24.7325 33.7188H25.25C25.3992 33.7188 25.5423 33.6595 25.6477 33.554C25.7532 33.4485 25.8125 33.3055 25.8125 33.1563V32.0903C25.8125 31.9411 25.7532 31.7981 25.6477 31.6926C25.5423 31.5871 25.3992 31.5278 25.25 31.5278C25.1008 31.5278 24.9577 31.5871 24.8523 31.6926C24.7468 31.7981 24.6875 31.9411 24.6875 32.0903V32.2591C24.7072 32.501 24.7128 32.7288 24.7156 32.9285L24.7325 33.7188Z" fill="black"/>
<path id="Vector_7" d="M19.0625 20.7813C19.0625 20.6321 19.1218 20.489 19.2273 20.3835C19.3327 20.278 19.4758 20.2188 19.625 20.2188H26.375C26.5242 20.2188 26.6673 20.278 26.7728 20.3835C26.8782 20.489 26.9375 20.6321 26.9375 20.7813V34.2813C26.9375 34.4304 26.8782 34.5735 26.7728 34.679C26.6673 34.7845 26.5242 34.8438 26.375 34.8438H25.5847C25.9649 35.1751 26.3082 35.5466 26.6084 35.9519C27.0115 35.8956 27.3807 35.6955 27.6479 35.3885C27.9151 35.0815 28.0623 34.6883 28.0625 34.2813V20.7813C28.0625 20.3337 27.8847 19.9045 27.5682 19.588C27.2518 19.2715 26.8226 19.0938 26.375 19.0938H19.625C19.1774 19.0938 18.7482 19.2715 18.4318 19.588C18.1153 19.9045 17.9375 20.3337 17.9375 20.7813V34.2813C17.9411 34.6067 18.0388 34.9241 18.2188 35.1953C18.2553 35.0069 18.2919 34.8213 18.3256 34.6328C18.4803 33.7891 18.6406 32.9313 18.8516 32.0706C18.8656 32.0088 18.8797 31.9469 18.8938 31.8822C18.9373 31.6551 18.9937 31.4307 19.0625 31.21V20.7813Z" fill="black"/>
<path id="Vector_8" d="M28.3438 40.7499H28.0626V37.8896C28.0626 37.7405 28.0033 37.5974 27.8978 37.4919C27.7923 37.3864 27.6493 37.3271 27.5001 37.3271H26.1388C25.5607 36.2729 24.688 35.4099 23.6273 34.8437L23.5907 32.9565C23.6147 32.3705 23.519 31.7858 23.3094 31.2381C22.9551 30.4534 22.0832 30.1524 21.1354 30.4871C20.2916 30.7909 20.1088 31.5643 19.9851 32.1296C19.9682 32.1999 19.9541 32.2703 19.9373 32.3406C19.7348 33.1703 19.5773 34.0281 19.4254 34.8409C19.3466 35.2599 19.2707 35.6846 19.1919 36.0756C19.0738 36.5762 18.8769 37.7631 19.4732 38.2553L21.5235 40.674V40.7499H21.0313C20.8821 40.7499 20.7391 40.8092 20.6336 40.9147C20.5281 41.0202 20.4688 41.1633 20.4688 41.3124V42.4375C20.4688 42.5866 20.5281 42.7297 20.6336 42.8352C20.7391 42.9407 20.8821 43 21.0313 43C21.1805 43 21.3236 42.9407 21.4291 42.8352C21.5346 42.7297 21.5938 42.5866 21.5938 42.4375V41.8749H27.7813V42.4375C27.7813 42.5866 27.8406 42.7297 27.9461 42.8352C28.0516 42.9407 28.1946 43 28.3438 43C28.493 43 28.6361 42.9407 28.7416 42.8352C28.8471 42.7297 28.9063 42.5866 28.9063 42.4375V41.3124C28.9063 41.1633 28.8471 41.0202 28.7416 40.9147C28.6361 40.8092 28.493 40.7499 28.3438 40.7499ZM22.5219 40.0974C22.5219 40.0974 20.2466 37.4199 20.2185 37.3974C20.1594 37.2343 21.0623 32.4474 21.0791 32.3659C21.1944 31.8456 21.2648 31.6262 21.5066 31.539C21.7485 31.4518 22.1338 31.3731 22.2773 31.6909C22.4228 32.1011 22.4868 32.5358 22.4657 32.9706L22.5023 34.9028C22.5023 34.9956 22.5023 35.0912 22.5023 35.184C22.5048 35.2917 22.5383 35.3964 22.5986 35.4856C22.6589 35.5749 22.7436 35.6449 22.8426 35.6874C22.8594 35.6874 24.6313 36.5059 25.2501 38.0837C25.2913 38.1889 25.3633 38.2792 25.4566 38.3429C25.5499 38.4066 25.6602 38.4408 25.7732 38.4409H26.9376V40.7499H22.6541V40.4687C22.6563 40.3331 22.6093 40.2012 22.5219 40.0974Z" fill="black"/>
<path id="Vector_9" d="M9.70248 15.1871L11.8119 19.3468C11.8453 19.4128 11.8914 19.4715 11.9475 19.5196C12.0036 19.5677 12.0686 19.6043 12.1389 19.6273C12.2091 19.6502 12.2832 19.6592 12.3569 19.6535C12.4306 19.6479 12.5025 19.6278 12.5684 19.5943C12.6343 19.5609 12.693 19.5148 12.7412 19.4587C12.7893 19.4026 12.8259 19.3376 12.8489 19.2673C12.8718 19.1971 12.8808 19.123 12.8751 19.0493C12.8695 18.9756 12.8493 18.9037 12.8159 18.8378L10.6728 14.619C10.8013 14.6863 10.9509 14.7012 11.0902 14.6608C11.2296 14.6204 11.3479 14.5277 11.4205 14.4021C11.4931 14.2765 11.5144 14.1277 11.4799 13.9868C11.4454 13.8458 11.3577 13.7237 11.2353 13.6459L9.54779 12.5209H9.53373C9.4501 12.4725 9.35541 12.4464 9.25879 12.4452C9.16217 12.444 9.06687 12.4678 8.98208 12.5141C8.89729 12.5605 8.82587 12.6279 8.77471 12.7099C8.72355 12.7918 8.69437 12.8856 8.68998 12.9821C8.68998 12.9821 8.68998 12.9821 8.68998 13.0018L8.67029 14.875C8.67122 14.9951 8.71061 15.1118 8.7827 15.208C8.85478 15.3042 8.95577 15.3747 9.07087 15.4093C9.18596 15.4439 9.30911 15.4407 9.42227 15.4002C9.53542 15.3597 9.63264 15.2841 9.69966 15.1843L9.70248 15.1871Z" fill="black"/>
<path id="Vector_10" d="M7.25 11.5C7.69501 11.5 8.13002 11.368 8.50003 11.1208C8.87004 10.8736 9.15843 10.5222 9.32873 10.111C9.49903 9.69991 9.54358 9.24751 9.45677 8.81105C9.36995 8.37459 9.15566 7.97368 8.84099 7.65901C8.52632 7.34434 8.12541 7.13005 7.68895 7.04323C7.2525 6.95642 6.8001 7.00097 6.38896 7.17127C5.97783 7.34157 5.62643 7.62996 5.37919 7.99997C5.13196 8.36998 5 8.80499 5 9.25C5 9.84674 5.23705 10.419 5.65901 10.841C6.08097 11.2629 6.65326 11.5 7.25 11.5ZM7.25 8.125C7.4725 8.125 7.69001 8.19098 7.87502 8.3146C8.06002 8.43821 8.20422 8.61392 8.28937 8.81948C8.37451 9.02505 8.39679 9.25125 8.35338 9.46948C8.30998 9.68771 8.20283 9.88816 8.0455 10.0455C7.88816 10.2028 7.68771 10.31 7.46948 10.3534C7.25125 10.3968 7.02505 10.3745 6.81948 10.2894C6.61391 10.2042 6.43821 10.06 6.3146 9.87502C6.19098 9.69001 6.125 9.47251 6.125 9.25C6.125 8.95163 6.24353 8.66549 6.45451 8.45451C6.66548 8.24353 6.95163 8.125 7.25 8.125Z" fill="black"/>
<path id="Vector_11" d="M37.3269 12.8668C37.3064 12.7801 37.2655 12.6994 37.2077 12.6315C37.1499 12.5636 37.0768 12.5104 36.9943 12.4764C36.9119 12.4423 36.8226 12.4283 36.7337 12.4356C36.6448 12.4428 36.5589 12.4711 36.4831 12.5181L34.7956 13.6431C34.6732 13.7209 34.5856 13.8431 34.5511 13.984C34.5165 14.1249 34.5378 14.2737 34.6104 14.3993C34.683 14.5249 34.8013 14.6176 34.9407 14.658C35.08 14.6985 35.2296 14.6835 35.3581 14.6162L33.215 18.835C33.1816 18.9009 33.1615 18.9728 33.1558 19.0465C33.1502 19.1202 33.1591 19.1943 33.1821 19.2645C33.2051 19.3348 33.2417 19.3998 33.2898 19.4559C33.3379 19.512 33.3966 19.5581 33.4625 19.5915C33.5284 19.625 33.6003 19.6451 33.674 19.6507C33.7477 19.6564 33.8218 19.6475 33.8921 19.6245C33.9623 19.6015 34.0273 19.5649 34.0835 19.5168C34.1396 19.4687 34.1857 19.41 34.2191 19.344L36.3285 15.1844C36.3955 15.2841 36.4927 15.3598 36.6058 15.4003C36.719 15.4407 36.8422 15.4439 36.9572 15.4093C37.0723 15.3747 37.1733 15.3042 37.2454 15.208C37.3175 15.1119 37.3569 14.9952 37.3578 14.875L37.3719 12.9934C37.3719 12.9934 37.3719 12.9934 37.3719 12.9737C37.3609 12.9366 37.3458 12.9007 37.3269 12.8668Z" fill="black"/>
<path id="Vector_12" d="M41 9.25C41 8.80499 40.868 8.36998 40.6208 7.99997C40.3736 7.62996 40.0222 7.34157 39.611 7.17127C39.1999 7.00097 38.7475 6.95642 38.311 7.04323C37.8746 7.13005 37.4737 7.34434 37.159 7.65901C36.8443 7.97368 36.6301 8.37459 36.5432 8.81105C36.4564 9.24751 36.501 9.69991 36.6713 10.111C36.8416 10.5222 37.13 10.8736 37.5 11.1208C37.87 11.368 38.305 11.5 38.75 11.5C39.3467 11.5 39.919 11.2629 40.341 10.841C40.7629 10.419 41 9.84674 41 9.25ZM38.75 10.375C38.5275 10.375 38.31 10.309 38.125 10.1854C37.94 10.0618 37.7958 9.88609 37.7106 9.68052C37.6255 9.47495 37.6032 9.24875 37.6466 9.03053C37.69 8.8123 37.7972 8.61184 37.9545 8.45451C38.1118 8.29717 38.3123 8.19003 38.5305 8.14662C38.7488 8.10321 38.975 8.12549 39.1805 8.21064C39.3861 8.29579 39.5618 8.43998 39.6854 8.62499C39.809 8.80999 39.875 9.0275 39.875 9.25C39.875 9.54837 39.7565 9.83452 39.5455 10.0455C39.3345 10.2565 39.0484 10.375 38.75 10.375Z" fill="black"/>
<path id="Vector_13" d="M23 11.5C23.445 11.5 23.88 11.368 24.25 11.1208C24.62 10.8736 24.9084 10.5222 25.0787 10.111C25.249 9.69991 25.2936 9.24751 25.2068 8.81105C25.12 8.37459 24.9057 7.97368 24.591 7.65901C24.2763 7.34434 23.8754 7.13005 23.439 7.04323C23.0025 6.95642 22.5501 7.00097 22.139 7.17127C21.7278 7.34157 21.3764 7.62996 21.1292 7.99997C20.882 8.36998 20.75 8.80499 20.75 9.25C20.75 9.84674 20.9871 10.419 21.409 10.841C21.831 11.2629 22.4033 11.5 23 11.5ZM23 8.125C23.2225 8.125 23.44 8.19098 23.625 8.3146C23.81 8.43821 23.9542 8.61392 24.0394 8.81948C24.1245 9.02505 24.1468 9.25125 24.1034 9.46948C24.06 9.68771 23.9528 9.88816 23.7955 10.0455C23.6382 10.2028 23.4377 10.31 23.2195 10.3534C23.0012 10.3968 22.775 10.3745 22.5695 10.2894C22.3639 10.2042 22.1882 10.06 22.0646 9.87502C21.941 9.69001 21.875 9.47251 21.875 9.25C21.875 8.95163 21.9935 8.66549 22.2045 8.45451C22.4155 8.24353 22.7016 8.125 23 8.125Z" fill="black"/>
<path id="Vector_14" d="M23 17.9688C23.1492 17.9688 23.2923 17.9095 23.3978 17.804C23.5033 17.6985 23.5625 17.5554 23.5625 17.4063V14.8159L23.6525 14.9566C23.6922 15.0194 23.744 15.0737 23.8049 15.1164C23.8657 15.1591 23.9344 15.1893 24.007 15.2053C24.0796 15.2213 24.1546 15.2228 24.2278 15.2096C24.3009 15.1964 24.3707 15.1688 24.4332 15.1285C24.4956 15.0882 24.5494 15.0359 24.5915 14.9746C24.6336 14.9134 24.6632 14.8444 24.6785 14.7717C24.6937 14.6989 24.6945 14.6239 24.6806 14.5509C24.6667 14.4778 24.6385 14.4083 24.5975 14.3463L23.4725 12.6025C23.4215 12.5236 23.3516 12.4587 23.269 12.4137C23.1865 12.3688 23.094 12.3452 23 12.3452C22.906 12.3452 22.8136 12.3688 22.731 12.4137C22.6485 12.4587 22.5785 12.5236 22.5275 12.6025L21.4025 14.3463C21.3616 14.4083 21.3334 14.4778 21.3195 14.5509C21.3056 14.6239 21.3063 14.6989 21.3216 14.7717C21.3369 14.8444 21.3664 14.9134 21.4085 14.9746C21.4506 15.0359 21.5045 15.0882 21.5669 15.1285C21.6293 15.1688 21.6991 15.1964 21.7723 15.2096C21.8454 15.2228 21.9205 15.2213 21.9931 15.2053C22.0657 15.1893 22.1344 15.1591 22.1952 15.1164C22.256 15.0737 22.3078 15.0194 22.3475 14.9566L22.4375 14.8159V17.4063C22.4375 17.5554 22.4968 17.6985 22.6023 17.804C22.7078 17.9095 22.8508 17.9688 23 17.9688Z" fill="black"/>
<path id="Vector_15" d="M16.8126 22.2466L14.3516 22.7866C14.2794 22.8026 14.211 22.8326 14.1504 22.8751C14.0897 22.9175 14.0381 22.9715 13.9984 23.034C13.9587 23.0964 13.9317 23.1661 13.9189 23.239C13.9062 23.3119 13.9079 23.3866 13.9241 23.4588L14.1716 24.5641C14.2003 24.6881 14.2701 24.7987 14.3697 24.8779C14.4693 24.957 14.5928 25.0001 14.7201 25C14.7612 25.0046 14.8027 25.0046 14.8438 25C14.9161 24.984 14.9845 24.954 15.0451 24.9115C15.1057 24.8691 15.1573 24.8151 15.1971 24.7526C15.2368 24.6902 15.2638 24.6205 15.2765 24.5476C15.2893 24.4747 15.2875 24.4 15.2713 24.3278L15.1476 23.7653L16.8126 23.3997V22.2466Z" fill="black"/>
<path id="Vector_16" d="M16.3963 34.5147C16.4227 34.6311 16.4854 34.7361 16.5754 34.8144C16.6654 34.8928 16.778 34.9405 16.8969 34.9507C16.842 34.7318 16.8137 34.507 16.8125 34.2813V32.7372C16.7206 32.7181 16.6253 32.7223 16.5353 32.7495C16.4454 32.7767 16.3637 32.8259 16.2977 32.8927C16.2317 32.9596 16.1835 33.0419 16.1575 33.1321C16.1315 33.2224 16.1285 33.3177 16.1488 33.4094L16.3963 34.5147Z" fill="black"/>
<path id="Vector_17" d="M31.1563 24.9325C31.1974 24.9371 31.2389 24.9371 31.28 24.9325C31.4076 24.9325 31.5314 24.889 31.6311 24.8093C31.7308 24.7295 31.8004 24.6183 31.8284 24.4938L32.0619 23.4475C32.0781 23.3753 32.0798 23.3006 32.0671 23.2277C32.0543 23.1548 32.0273 23.0852 31.9876 23.0227C31.9479 22.9603 31.8963 22.9063 31.8356 22.8638C31.775 22.8214 31.7066 22.7913 31.6344 22.7753L29.1875 22.2466V23.3997L30.8553 23.7653L30.7456 24.2603C30.7124 24.4038 30.7369 24.5546 30.8136 24.6803C30.8904 24.806 31.0134 24.8965 31.1563 24.9325Z" fill="black"/>
<path id="Vector_18" d="M29.1875 30.2397C29.5481 30.1509 29.8611 29.9275 30.0622 29.6153C30.1081 29.5469 30.1495 29.4755 30.1859 29.4016L30.4672 29.4606C30.5074 29.465 30.5479 29.465 30.5881 29.4606C30.7373 29.4767 30.8868 29.4328 31.0036 29.3386C31.1204 29.2445 31.1951 29.1078 31.2111 28.9586C31.2271 28.8094 31.1832 28.66 31.0891 28.5431C30.9949 28.4263 30.8582 28.3517 30.7091 28.3356L30.4081 28.2709C30.392 28.1217 30.36 27.9746 30.3125 27.8322C30.2905 27.7617 30.2549 27.6961 30.2076 27.6394C30.1603 27.5826 30.1023 27.5357 30.0368 27.5014C29.9047 27.432 29.7504 27.418 29.608 27.4624C29.4655 27.5067 29.3465 27.6059 29.2771 27.738C29.2078 27.8701 29.1937 28.0244 29.2381 28.1669C29.3083 28.399 29.2923 28.6487 29.1931 28.87L29.1875 30.2397Z" fill="black"/>
<path id="Vector_19" d="M29.1875 34.2813C29.1864 34.507 29.158 34.7317 29.1031 34.9507C29.222 34.9405 29.3346 34.8928 29.4246 34.8144C29.5146 34.736 29.5774 34.6311 29.6038 34.5147L29.8372 33.4685C29.8572 33.3779 29.8546 33.2838 29.8295 33.1946C29.8044 33.1053 29.7576 33.0237 29.6933 32.9568C29.629 32.89 29.5492 32.8402 29.4609 32.8117C29.3727 32.7832 29.2788 32.7769 29.1875 32.7935V34.2813Z" fill="black"/>
</g>
</g>
</svg>
