<svg width="46" height="46" viewBox="0 0 46 46" fill="none" xmlns="http://www.w3.org/2000/svg">
<g id="Citizenship">
<g id="Group">
<path id="Vector" d="M37.1447 35.2382L30.8979 11.5529C30.7237 10.8928 30.303 10.3399 29.7131 9.99637C29.1232 9.65262 28.4345 9.55953 27.7748 9.7334L27.3508 9.84523L27.0535 8.69833C26.8483 7.92052 26.4708 7.40039 25.9314 7.1526C25.4021 6.9094 24.781 6.95712 24.0861 7.2941L9.93061 14.1348C8.85043 14.6586 8.28856 15.8812 8.59475 17.0419L14.8424 40.7305H14.8425L14.9386 41.095C15.1127 41.755 15.5335 42.3078 16.1232 42.6514C16.5191 42.882 16.9593 43 17.4055 43C17.6242 43 17.8444 42.9716 18.0616 42.9145L35.3253 38.3613C36.6879 38.0018 37.5042 36.6008 37.1447 35.2382ZM24.5965 8.34825C24.778 8.26036 25.011 8.17256 25.2184 8.17256C25.2984 8.17256 25.3746 8.18558 25.4425 8.2169C25.699 8.33463 25.8444 8.70623 25.9213 8.99801L26.2182 10.144L18.1908 12.2611L14.4681 13.2429L24.5965 8.34825ZM35.0266 37.2286L17.7629 41.7817C17.4053 41.8762 17.0325 41.8254 16.7129 41.6393C16.3935 41.4531 16.1654 41.1536 16.0712 40.796L15.9752 40.4316L9.82433 17.1108C9.73002 16.7532 9.78051 16.3803 9.96679 16.0606C10.153 15.7412 10.4525 15.5132 10.81 15.4189L28.0736 10.8658C28.1912 10.8347 28.3105 10.8194 28.4291 10.8194C28.6707 10.8194 28.9091 10.8833 29.1237 11.0083C29.4431 11.1944 29.6711 11.494 29.7654 11.8515L36.0122 35.5368C36.2069 36.275 35.7647 37.0339 35.0266 37.2286Z" fill="black"/>
<path id="Vector_2" d="M22.0742 29.5609C22.6402 29.5609 23.21 29.4851 23.7708 29.3318C23.8847 29.3007 23.9967 29.2661 24.1074 29.2293C24.1258 29.2232 24.1439 29.2161 24.1623 29.2096C24.2572 29.1771 24.3511 29.1428 24.4436 29.1062C24.4541 29.1021 24.4646 29.0974 24.4751 29.0932C24.5764 29.0524 24.6761 29.0093 24.7743 28.9639C24.7765 28.9628 24.7787 28.9618 24.7808 28.9607C24.9965 28.8606 25.2044 28.7492 25.4044 28.6275C25.4049 28.6271 25.4054 28.6269 25.4058 28.6266C26.7479 27.8101 27.7273 26.5312 28.187 25.0649C28.1953 25.0391 28.2035 25.0134 28.2113 24.9875C28.2275 24.9337 28.2427 24.8797 28.2574 24.8253C28.2664 24.7919 28.2751 24.7584 28.2837 24.7248C28.2969 24.6726 28.3101 24.6207 28.322 24.5682C28.3312 24.5274 28.3392 24.4864 28.3478 24.4453C28.3643 24.3654 28.3793 24.2852 28.3928 24.2046C28.4007 24.1579 28.4085 24.1112 28.4153 24.0643C28.4217 24.0195 28.4275 23.9747 28.4329 23.9298C28.4389 23.8802 28.4444 23.8304 28.4492 23.7806C28.4533 23.739 28.4577 23.6976 28.461 23.6559C28.467 23.5782 28.4717 23.5005 28.4749 23.4225C28.4764 23.3881 28.477 23.3537 28.4779 23.3193C28.4797 23.2504 28.4806 23.1814 28.48 23.1122C28.4798 23.0766 28.4788 23.0409 28.478 23.0053C28.4765 22.9424 28.474 22.8794 28.4706 22.8162C28.4688 22.7832 28.4673 22.7503 28.4649 22.7172C28.4585 22.6241 28.4505 22.5308 28.4399 22.4373C28.4387 22.4277 28.4371 22.418 28.436 22.4084C28.4256 22.322 28.4133 22.2356 28.3994 22.1491C28.3946 22.1191 28.3891 22.0892 28.3838 22.0591C28.3716 21.9893 28.3581 21.9196 28.3434 21.8498C28.3374 21.8209 28.3314 21.7919 28.325 21.763C28.3035 21.6671 28.2803 21.5712 28.2542 21.4754C28.2281 21.3798 28.1992 21.2856 28.1691 21.1922C28.1601 21.1645 28.1505 21.1369 28.1412 21.1094C28.1181 21.0408 28.0938 20.973 28.0685 20.9056C28.0584 20.8785 28.0484 20.8514 28.0378 20.8245C28.0028 20.735 27.9664 20.6462 27.9275 20.559C27.9248 20.5526 27.9216 20.5464 27.9186 20.54C27.8822 20.4589 27.8441 20.3792 27.8046 20.3001C27.7907 20.2725 27.7765 20.2451 27.7623 20.2178C27.7313 20.1579 27.6993 20.0988 27.6665 20.0401C27.6516 20.0133 27.6368 19.9866 27.6215 19.9601C27.5754 19.8804 27.5281 19.8015 27.4788 19.7243C27.4704 19.7112 27.4614 19.6984 27.4529 19.6854C27.4105 19.62 27.3671 19.5556 27.3224 19.492C27.3029 19.4644 27.2831 19.4369 27.263 19.4096C27.2267 19.3596 27.1896 19.3101 27.1517 19.2611C27.1314 19.2345 27.1111 19.208 27.0903 19.1818C27.0356 19.1134 26.9801 19.0459 26.9229 18.98C26.9069 18.9615 26.8901 18.9437 26.8739 18.9254C26.8285 18.8741 26.7825 18.8235 26.7355 18.7739C26.7103 18.7474 26.6848 18.7213 26.6592 18.6952C26.6187 18.6538 26.5775 18.6131 26.5359 18.5729C26.5103 18.5482 26.485 18.5233 26.4589 18.4989C26.396 18.4401 26.3323 18.3822 26.2671 18.3261C26.2203 18.2707 26.1646 18.2245 26.1019 18.19C26.029 18.1314 25.955 18.0744 25.8797 18.019C25.8771 18.0172 25.8744 18.0152 25.8719 18.0133C25.798 17.9591 25.723 17.9066 25.6469 17.8556C25.6432 17.853 25.6395 17.8505 25.6357 17.848C25.5597 17.7972 25.4827 17.7482 25.4046 17.7008C25.4015 17.6989 25.3984 17.697 25.3952 17.6951C25.3158 17.647 25.2353 17.6005 25.1538 17.5559C25.1534 17.5557 25.1531 17.5555 25.1527 17.5553C24.1514 17.007 23.0045 16.7244 21.8257 16.7722H21.8255C21.8205 16.7724 21.8157 16.7727 21.8109 16.7727C21.6891 16.778 21.5668 16.7863 21.4443 16.7988C21.4429 16.7989 21.4414 16.799 21.4401 16.7991C21.3323 16.8101 21.2245 16.8238 21.1165 16.8404C21.1065 16.842 21.0966 16.843 21.0865 16.8447C20.9879 16.8604 20.8893 16.8788 20.7907 16.8992C20.7729 16.9028 20.7552 16.9056 20.7375 16.9094C20.624 16.9339 20.5108 16.9611 20.3975 16.992C20.3045 17.0174 20.213 17.0455 20.1222 17.0748C20.0938 17.084 20.0655 17.0934 20.0373 17.1029C19.9707 17.1255 19.9048 17.149 19.8394 17.1735C19.7952 17.19 19.7514 17.2071 19.7078 17.2245C19.6516 17.2472 19.5955 17.27 19.5402 17.2941C19.4901 17.3158 19.4406 17.3385 19.3912 17.3613C19.3676 17.3723 19.3442 17.3836 19.3207 17.3948C19.1389 17.4819 18.9628 17.5767 18.7922 17.6791C18.7889 17.6808 18.786 17.683 18.7829 17.6847C18.6927 17.7391 18.6041 17.7956 18.5172 17.8541C18.5158 17.855 18.5145 17.8559 18.5131 17.8568C17.9081 18.2648 17.3845 18.7695 16.9578 19.3437C16.9562 19.3457 16.9548 19.3478 16.9532 19.3497C16.577 19.8571 16.2767 20.4178 16.0633 21.0132C16.0578 21.0269 16.0523 21.0405 16.048 21.0548L16.0479 21.055C16.0269 21.1153 16.0072 21.1761 15.9879 21.237C15.9803 21.2606 15.9728 21.2843 15.9656 21.3081C15.9476 21.367 15.9304 21.426 15.9141 21.4856C15.9076 21.509 15.9017 21.5325 15.8956 21.556C15.8463 21.7449 15.8054 21.9362 15.7735 22.1298C15.7677 22.1651 15.7618 22.2004 15.7566 22.2359C15.7489 22.288 15.7418 22.3402 15.7353 22.3926C15.7302 22.4338 15.7261 22.4749 15.7218 22.5162C15.7168 22.565 15.7114 22.6139 15.7075 22.663C15.7009 22.7458 15.6959 22.8289 15.6925 22.9123C15.6909 22.9524 15.6907 22.9928 15.6899 23.033C15.6887 23.0879 15.688 23.1428 15.6881 23.1976C15.6884 23.2387 15.6891 23.2798 15.69 23.3209C15.6915 23.3795 15.694 23.4381 15.697 23.4969C15.6988 23.5326 15.7004 23.5682 15.7028 23.604C15.7091 23.6958 15.7172 23.7877 15.7275 23.8797C15.7299 23.9002 15.7332 23.9208 15.7358 23.9412C15.7451 24.0174 15.7557 24.0936 15.768 24.1699C15.7731 24.202 15.7788 24.2341 15.7844 24.2662C15.7964 24.3345 15.8096 24.4028 15.824 24.4712C15.8302 24.5009 15.8362 24.5307 15.8428 24.5603C15.8644 24.6563 15.8876 24.7524 15.9137 24.8482C16.3642 26.4963 17.4295 27.8702 18.9134 28.7171C19.893 29.2759 20.9768 29.5609 22.0742 29.5609ZM20.4355 28.1216C20.3635 28.0975 20.292 28.0712 20.2208 28.0438C20.1978 28.0349 20.1749 28.0255 20.1519 28.0164C20.1018 27.9964 20.0519 27.9754 20.0022 27.9537C19.9781 27.9432 19.954 27.9329 19.9302 27.9219C19.8698 27.8945 19.8097 27.8659 19.7502 27.836C19.7402 27.831 19.73 27.8265 19.72 27.8214L20.1302 27.7093C20.2288 27.8487 20.3302 27.9864 20.4357 28.1217C20.4355 28.1216 20.4355 28.1216 20.4355 28.1216ZM19.7732 24.4008L21.6738 23.8814L22.2313 25.9208L20.6415 26.3554C20.2804 25.7421 19.9903 25.0903 19.7732 24.4008ZM22.8877 28.3242C22.785 28.3404 22.6824 28.3531 22.5796 28.3631C22.5697 28.3641 22.5598 28.3649 22.55 28.3659C22.4467 28.3753 22.3433 28.3822 22.2401 28.3856C21.9124 28.0656 21.6125 27.7295 21.3387 27.3789L22.5401 27.0505L22.8883 28.3242C22.8881 28.3242 22.8879 28.3242 22.8877 28.3242ZM24.3525 27.869H24.3523C24.2429 27.9214 24.1316 27.9703 24.0181 28.0153L23.6699 26.7418L24.6475 26.4746C24.5823 26.9242 24.4862 27.3888 24.3525 27.869ZM24.7516 25.2319L23.3613 25.6119L22.8038 23.5725L24.5568 23.0933C24.6939 23.7506 24.7679 24.4648 24.7516 25.2319ZM25.7731 26.8634C25.8134 26.6182 25.8444 26.3776 25.8684 26.141L26.4866 25.972C26.2791 26.297 26.0407 26.596 25.7731 26.8634ZM27.2465 22.3581C27.2609 22.4496 27.2728 22.5413 27.2822 22.633C27.2828 22.6387 27.2833 22.6444 27.2839 22.6502C27.2926 22.7372 27.2992 22.8241 27.3036 22.911C27.3039 22.9181 27.3043 22.9251 27.3045 22.9321C27.3086 23.0193 27.3104 23.1064 27.31 23.1934C27.3099 23.1987 27.31 23.2039 27.3099 23.2092C27.3092 23.3005 27.3062 23.3917 27.3008 23.4826V23.4829C27.278 23.8561 27.215 24.2258 27.1122 24.5867L25.9255 24.9111C25.9182 24.146 25.831 23.4351 25.6914 22.7832L27.2465 22.3581ZM25.659 19.3543C25.7953 19.4818 25.9249 19.6168 26.0475 19.7591C26.0486 19.7603 26.0495 19.7614 26.0506 19.7626C26.234 19.9761 26.4012 20.2055 26.5496 20.4497C26.5498 20.45 26.55 20.4503 26.5502 20.4507C26.699 20.6955 26.8289 20.9552 26.9375 21.2282V21.2283L25.3836 21.6531C25.1682 21.0055 24.9096 20.4343 24.647 19.9468C24.5965 19.8532 24.5453 19.7624 24.4938 19.6729L25.659 19.3543ZM23.4117 18.1105C23.496 18.1328 23.5796 18.1572 23.6624 18.1837C23.665 18.1845 23.6677 18.1853 23.6702 18.1861C23.9218 18.2668 24.1666 18.3661 24.4024 18.4832L24.4028 18.4834L23.8238 18.6416C23.6833 18.4489 23.5449 18.2719 23.4117 18.1105ZM24.2462 21.964L22.4948 22.4426L21.9292 20.3737L23.3151 19.9949C23.6574 20.5518 23.9881 21.2101 24.2462 21.964ZM21.2813 18.0014C21.4056 17.982 21.5298 17.9668 21.6537 17.9564C21.6555 17.9562 21.6571 17.9559 21.659 17.9558C21.854 18.1341 22.2041 18.4779 22.6007 18.9759L21.6206 19.2438L21.2809 18.0015L21.2813 18.0014ZM19.5645 18.5857C19.5645 18.5857 19.5647 18.5856 19.5649 18.5856C19.6547 18.5361 19.7465 18.4893 19.8397 18.4449C19.8474 18.4414 19.8548 18.4377 19.8624 18.4342C19.9565 18.3899 20.0523 18.3479 20.15 18.3091C20.1502 18.3091 20.1504 18.3089 20.1506 18.3088L20.4906 19.5527L19.3539 19.8634C19.4158 19.2802 19.5065 18.8336 19.5645 18.5857ZM20.7995 20.6825L21.365 22.7514L19.4869 23.2648C19.4024 22.8237 19.343 22.37 19.3119 21.9025C19.2933 21.623 19.286 21.3536 19.2869 21.0961L20.7995 20.6825ZM18.1945 19.6779C18.1765 19.8402 18.1606 20.0121 18.1479 20.1931L17.7085 20.3132C17.8538 20.0897 18.0164 19.8775 18.1945 19.6779ZM16.9223 23.9655C16.9077 23.8721 16.8959 23.7787 16.8865 23.6854C16.8854 23.6753 16.8847 23.6653 16.8838 23.6553C16.8758 23.5717 16.8699 23.4883 16.866 23.405C16.8653 23.3904 16.8648 23.3758 16.8643 23.3612C16.8612 23.2821 16.86 23.2033 16.8605 23.1246C16.8606 23.1082 16.8608 23.0917 16.8611 23.0754C16.8625 22.9976 16.8656 22.9202 16.8703 22.8429C16.8713 22.8271 16.8721 22.8112 16.8731 22.7952C16.8788 22.7151 16.8865 22.6354 16.8959 22.5559C16.8973 22.544 16.8983 22.5322 16.8998 22.5204C16.9345 22.242 16.9914 21.9685 17.0694 21.7019L18.1184 21.4152C18.1222 21.5842 18.1291 21.757 18.1402 21.934C18.1754 22.4942 18.248 23.0414 18.3559 23.5736L16.9224 23.9655C16.9224 23.9657 16.9223 23.9655 16.9223 23.9655ZM17.6091 25.8603C17.6065 25.8561 17.6039 25.8517 17.6015 25.8475C17.5567 25.7727 17.5139 25.6966 17.473 25.6194C17.4698 25.6132 17.4665 25.607 17.4632 25.6008C17.4227 25.5237 17.3841 25.4453 17.3473 25.366C17.3449 25.3608 17.3425 25.3558 17.3402 25.3506C17.3017 25.2668 17.2652 25.1819 17.231 25.0957L18.649 24.708C18.8639 25.3941 19.1448 26.0492 19.4852 26.6713L18.4804 26.946C18.1418 26.6245 17.8493 26.2598 17.6091 25.8603Z" fill="black"/>
<path id="Vector_3" d="M28.5972 31.2161L20.3909 33.3804C19.2365 33.6849 18.545 34.8718 18.8494 36.0263C18.9969 36.5854 19.3534 37.0538 19.8529 37.3449C20.1884 37.5403 20.5613 37.6401 20.9393 37.6401C21.1245 37.6401 21.3111 37.6161 21.4951 37.5677L29.7012 35.4033C30.2606 35.2558 30.7289 34.8993 31.02 34.3997C31.3111 33.9 31.3904 33.3168 31.2428 32.7575C30.9384 31.6032 29.7515 30.9121 28.5972 31.2161Z" fill="black"/>
</g>
</g>
</svg>
