<svg width="46" height="46" viewBox="0 0 46 46" fill="none" xmlns="http://www.w3.org/2000/svg">
<g id="Beach">
<path id="Vector" d="M18.7557 21.0588L26.0001 22.9999L33.2446 24.9411L40.489 26.8822C42.2426 20.3379 39.3857 13.6443 33.9094 10.25C32.6897 9.49396 31.34 8.90162 29.8824 8.51105C28.2037 8.06125 26.5152 7.91479 24.8751 8.03809C18.6971 8.50251 13.2056 12.7943 11.5112 19.1177L18.7557 21.0588Z" stroke="black" stroke-width="2" stroke-linecap="round" stroke-linejoin="round"/>
<path id="Vector_2" d="M29.8824 8.51111C29.8824 8.51111 25.6519 11.2599 23.2324 14.4938C20.8129 17.7278 20.2046 21.4471 20.2046 21.4471" stroke="black" stroke-width="2" stroke-linecap="round" stroke-linejoin="round"/>
<path id="Vector_3" d="M29.8823 8.51111C29.8823 8.51111 32.1718 13.0069 32.6501 17.0173C33.1284 21.0278 31.7956 24.5529 31.7956 24.5529" stroke="black" stroke-width="2" stroke-linecap="round" stroke-linejoin="round"/>
<path id="Vector_4" d="M11.5112 19.1177L18.7557 21.0588L26.0001 23L33.2446 24.9411L40.489 26.8822" stroke="black" stroke-width="2" stroke-linecap="round" stroke-linejoin="round"/>
<path id="Vector_5" d="M11 38H41" stroke="black" stroke-width="2" stroke-linecap="round" stroke-linejoin="round"/>
<path id="Vector_6" d="M26 23L21.875 37.9999" stroke="black" stroke-width="2" stroke-linecap="round" stroke-linejoin="round"/>
<path id="Vector_7" d="M24.875 8.03809C26.5151 7.91479 28.2036 8.06125 29.8823 8.51105C31.3399 8.90162 32.6896 9.49396 33.9093 10.25" stroke="black" stroke-width="2" stroke-linecap="round" stroke-linejoin="round"/>
</g>
</svg>
