<svg width="46" height="46" viewBox="0 0 46 46" fill="none" xmlns="http://www.w3.org/2000/svg">
<g id="Airport">
<path id="Vector" d="M21.2 29.0354L13.9763 32.6473C12.8994 33.1857 11.6049 33.0282 10.6886 32.2471L5 27.3982L8.10772 26.2072C8.74415 25.9633 9.44466 25.9434 10.0939 26.1508L12.8273 27.0237C13.5787 27.2636 14.3944 27.198 15.0977 26.8411L34.96 16.7603C35.3807 16.5467 35.8459 16.4354 36.3177 16.4354H41L39.6472 19.141C39.3569 19.7216 38.8862 20.1923 38.3056 20.4826L30.2 24.5354" stroke="black" stroke-width="2" stroke-linecap="round" stroke-linejoin="round"/>
<path id="Vector_2" d="M21.2007 29.0354L17.6003 30.8354L22.1004 39.8354L30.2003 24.5354" stroke="black" stroke-width="2" stroke-linecap="round" stroke-linejoin="round"/>
<path id="Vector_3" d="M16.7001 25.4354L12.2001 17.3354L26.6001 20.9355" stroke="black" stroke-width="2" stroke-linecap="round" stroke-linejoin="round"/>
</g>
</svg>
