<svg width="46" height="46" viewBox="0 0 46 46" fill="none" xmlns="http://www.w3.org/2000/svg">
<g id="Guaranted">
<g id="guaranted, trusted, original">
<path id="Vector" d="M23.0009 39.6201C22.8171 39.6189 22.6372 39.567 22.4809 39.4701L17.5809 36.4701C14.9638 34.8495 12.8027 32.5888 11.3016 29.9014C9.8004 27.214 9.00861 24.1884 9.00091 21.1101V16.6201C8.99143 16.3983 9.05606 16.1796 9.18462 15.9985C9.31317 15.8175 9.49834 15.6843 9.71091 15.6201L20.2509 12.4201C22.0415 11.86 23.9604 11.86 25.7509 12.4201L36.2909 15.6601C36.5035 15.7243 36.6887 15.8575 36.8172 16.0385C36.9458 16.2196 37.0104 16.4383 37.0009 16.6601V21.1101C36.9898 24.185 36.1964 27.2065 34.6954 29.8901C33.1944 32.5737 31.0351 34.8313 28.4209 36.4501L23.5209 39.4501C23.3668 39.554 23.1867 39.6129 23.0009 39.6201ZM11.0009 17.3601V21.1101C11.0106 23.8432 11.715 26.529 13.0479 28.915C14.3809 31.3011 16.2986 33.309 18.6209 34.7501L23.0009 37.4401L27.3809 34.7501C29.7032 33.309 31.6209 31.3011 32.9539 28.915C34.2869 26.529 34.9913 23.8432 35.0009 21.1101V17.3601L25.1609 14.3601C23.7546 13.9199 22.2473 13.9199 20.8409 14.3601L11.0009 17.3601ZM21.1909 28.0301L28.4309 21.0301C28.6172 20.8428 28.7217 20.5893 28.7217 20.3251C28.7217 20.061 28.6172 19.8075 28.4309 19.6201C28.3379 19.5264 28.2273 19.452 28.1055 19.4013C27.9836 19.3505 27.8529 19.3243 27.7209 19.3243C27.5889 19.3243 27.4582 19.3505 27.3363 19.4013C27.2145 19.452 27.1039 19.5264 27.0109 19.6201L20.7409 25.6901L19.1509 22.5101C19.0905 22.3933 19.0077 22.2894 18.9071 22.2046C18.8066 22.1197 18.6903 22.0555 18.565 22.0155C18.4396 21.9756 18.3076 21.9608 18.1765 21.9719C18.0454 21.9829 17.9178 22.0197 17.8009 22.0801C17.684 22.1405 17.5802 22.2234 17.4953 22.3239C17.4105 22.4245 17.3462 22.5407 17.3063 22.6661C17.2664 22.7914 17.2515 22.9234 17.2626 23.0545C17.2737 23.1856 17.3105 23.3133 17.3709 23.4301L19.6109 27.8101C19.6816 27.9483 19.7834 28.0681 19.9084 28.1601C20.0333 28.2521 20.178 28.3137 20.3309 28.3401H20.5009C20.7626 28.3311 21.0104 28.2198 21.1909 28.0301Z" fill="black"/>
</g>
</g>
</svg>
