<svg version="1.2" xmlns="http://www.w3.org/2000/svg" viewBox="0 0 54 54" width="54" height="54">
	<title>c3-svg</title>
	<style>
		.s0 { fill: #ffffff } 
	</style>
	<g id="Group">
		<path id="Vector" fill-rule="evenodd" class="s0" d="m42.9 35.4q0 0.1-0.1 0c0 0 0 0-0.1 0-1 0-2 0-3 0-2.4 2-7.5 3.3-13.5 3.3-7.7 0-13.6-2.1-15-5.1q-0.2-0.6-0.2-1.3c0-2 2.1-3.8 5.5-4.9v-5.1c0-2.3 1.8-4.1 4.1-4.1h1.7c0.6-1.3 2-2.2 3.5-2.2h1.8c1.6 0 2.9 0.9 3.6 2.2h1.8c2.2 0 4 1.8 4 4.1v6.7c0 2.3-1.8 4.1-4 4.1h-12.4c-2.2 0-4-1.7-4.1-3.8 0 0 0 0-0.1 0-2.2 0.9-3.6 2.1-3.6 3.1q0 0.1 0.1 0.3 0.1 0.2 0.1 0.4c0.4 0.8 1.7 1.6 3.4 2.3 2.7 1 6.1 1.5 9.8 1.5 3 0 5.8-0.3 8.1-1q0.9-0.2 1.7-0.5 0.3-0.1 0.6-0.3-0.5 0-1.1 0c-0.2 0-0.6 0-0.9-0.1-0.2 0-0.2-0.1-0.3-0.3 0 0 0-0.2 0.1-0.3q1.1-0.7 2.2-1.4c1.4-1 2.8-2.2 4-3.3 0-0.1 0.1-0.1 0.2-0.1 0.1 0 0.1 0.1 0.2 0.2q0.3 0.5 0.5 0.9c0.8 1.5 1.3 3 1.6 4.4 0 0.1 0 0.3-0.2 0.3zm-24.6-6.4c0 1.3 1 2.3 2.3 2.3h12.4c1.2 0 2.2-1 2.2-2.3v-6.7c0-1.3-1-2.3-2.2-2.3h-2.3c-0.4 0-0.7-0.2-0.9-0.6-0.3-1-1.2-1.6-2.2-1.6h-1.8c-0.9 0-1.8 0.6-2.1 1.6-0.2 0.4-0.5 0.6-0.9 0.6h-2.2c-1.3 0-2.3 1-2.3 2.3z"/>
		<path id="Vector_2" fill-rule="evenodd" class="s0" d="m26.8 30.5c-2.8 0-5.1-2.2-5.1-5 0-2.8 2.3-5 5.1-5 2.7 0 5 2.2 5 5 0 2.8-2.3 5-5 5zm3.2-5.1c0-1.8-1.5-3.2-3.2-3.2-1.8 0-3.3 1.4-3.3 3.2 0 1.8 1.5 3.2 3.3 3.2 1.7 0 3.2-1.4 3.2-3.2z"/>
	</g>
</svg>