<svg width="20" height="20" viewBox="0 0 20 20" fill="none" xmlns="http://www.w3.org/2000/svg">
<path d="M7.5 1.6665C7.96024 1.6665 8.33333 2.0396 8.33333 2.49984V3.33317H11.6667V2.49984C11.6667 2.0396 12.0398 1.6665 12.5 1.6665C12.9602 1.6665 13.3333 2.0396 13.3333 2.49984V3.33317H15.8333C16.7538 3.33317 17.5 4.07936 17.5 4.99984V15.8332C17.5 16.7537 16.7538 17.4998 15.8333 17.4998H4.16667C3.24619 17.4998 2.5 16.7537 2.5 15.8332V4.99984C2.5 4.07936 3.24619 3.33317 4.16667 3.33317H6.66667V2.49984C6.66667 2.0396 7.03976 1.6665 7.5 1.6665ZM6.66667 4.99984H4.16667V7.49984H15.8333V4.99984H13.3333V5.83317C13.3333 6.29341 12.9602 6.66651 12.5 6.66651C12.0398 6.66651 11.6667 6.29341 11.6667 5.83317V4.99984H8.33333V5.83317C8.33333 6.29341 7.96024 6.66651 7.5 6.66651C7.03976 6.66651 6.66667 6.29341 6.66667 5.83317V4.99984ZM15.8333 9.16651H4.16667V15.8332H15.8333V9.16651Z" fill="white"/>
</svg>
