<svg width="42" height="30" viewBox="0 0 42 30" fill="none" xmlns="http://www.w3.org/2000/svg">
<path d="M40.5 0H1.5C1.10218 0 0.720644 0.158036 0.43934 0.43934C0.158035 0.720645 0 1.10218 0 1.5V28.5C0 28.8978 0.158035 29.2794 0.43934 29.5607C0.720644 29.842 1.10218 30 1.5 30H40.5C40.8978 30 41.2794 29.842 41.5607 29.5607C41.842 29.2794 42 28.8978 42 28.5V1.5C42 1.10218 41.842 0.720645 41.5607 0.43934C41.2794 0.158036 40.8978 0 40.5 0ZM40.5 1.5V4.5H1.5V1.5H40.5ZM1.5 28.5V6H40.5V28.5H1.5Z" fill="#E3E5EA"/>
<path d="M38.25 3.75C38.4489 3.75 38.6397 3.67098 38.7803 3.53033C38.921 3.38968 39 3.19891 39 3C39 2.80109 38.921 2.61032 38.7803 2.46967C38.6397 2.32902 38.4489 2.25 38.25 2.25C38.0511 2.25 37.8603 2.32902 37.7197 2.46967C37.579 2.61032 37.5 2.80109 37.5 3C37.5 3.19891 37.579 3.38968 37.7197 3.53033C37.8603 3.67098 38.0511 3.75 38.25 3.75Z" fill="#E3E5EA"/>
<path d="M35.25 3.75C35.4489 3.75 35.6397 3.67098 35.7803 3.53033C35.921 3.38968 36 3.19891 36 3C36 2.80109 35.921 2.61032 35.7803 2.46967C35.6397 2.32902 35.4489 2.25 35.25 2.25C35.0511 2.25 34.8603 2.32902 34.7197 2.46967C34.579 2.61032 34.5 2.80109 34.5 3C34.5 3.19891 34.579 3.38968 34.7197 3.53033C34.8603 3.67098 35.0511 3.75 35.25 3.75Z" fill="#E3E5EA"/>
<path d="M32.25 3.75C32.4489 3.75 32.6397 3.67098 32.7803 3.53033C32.921 3.38968 33 3.19891 33 3C33 2.80109 32.921 2.61032 32.7803 2.46967C32.6397 2.32902 32.4489 2.25 32.25 2.25C32.0511 2.25 31.8603 2.32902 31.7197 2.46967C31.579 2.61032 31.5 2.80109 31.5 3C31.5 3.19891 31.579 3.38968 31.7197 3.53033C31.8603 3.67098 32.0511 3.75 32.25 3.75Z" fill="#E3E5EA"/>
<path d="M17.9999 16.1624V14.1824C17.9999 13.9835 17.9209 13.7927 17.7802 13.6521C17.6396 13.5114 17.4488 13.4324 17.2499 13.4324C17.051 13.4324 16.8602 13.5114 16.7195 13.6521C16.5789 13.7927 16.4999 13.9835 16.4999 14.1824V14.9324L13.8974 12.8249C13.7632 12.7146 13.5948 12.6543 13.4211 12.6543C13.2474 12.6543 13.0791 12.7146 12.9449 12.8249L7.01988 17.7299C6.91161 17.8187 6.83035 17.936 6.78528 18.0685C6.74022 18.201 6.73315 18.3436 6.76488 18.4799C6.78962 18.6102 6.84848 18.7316 6.93543 18.8317C7.02239 18.9319 7.13434 19.0072 7.25988 19.0499L8.38488 19.4249V23.2499C8.38488 23.4488 8.4639 23.6396 8.60455 23.7802C8.7452 23.9209 8.93597 23.9999 9.13488 23.9999H17.8649C18.0638 23.9999 18.2546 23.9209 18.3952 23.7802C18.5359 23.6396 18.6149 23.4488 18.6149 23.2499V19.4249L19.7399 19.0499C19.8664 19.0067 19.979 18.9304 20.0661 18.829C20.1532 18.7276 20.2117 18.6048 20.2354 18.4733C20.2591 18.3417 20.2472 18.2062 20.201 18.0808C20.1547 17.9554 20.0758 17.8446 19.9724 17.7599L17.9999 16.1624ZM17.6249 18.1724C17.4696 18.2246 17.3358 18.3262 17.2437 18.4616C17.1516 18.597 17.1063 18.7589 17.1149 18.9224V22.4999H9.88488V18.8849C9.89342 18.7214 9.84818 18.5595 9.75609 18.4241C9.664 18.2887 9.53011 18.1871 9.37488 18.1349L8.99988 18.0599L13.4174 14.3999L17.9174 18.0599L17.6249 18.1724Z" fill="#E3E5EA"/>
<path d="M25.5 17.1816C25.3011 17.1816 25.1103 17.2607 24.9697 17.4013C24.829 17.542 24.75 17.7327 24.75 17.9316C24.75 18.1306 24.829 18.3213 24.9697 18.462C25.1103 18.6026 25.3011 18.6816 25.5 18.6816H33.75C33.9489 18.6816 34.1397 18.6026 34.2803 18.462C34.421 18.3213 34.5 18.1306 34.5 17.9316C34.5 17.7327 34.421 17.542 34.2803 17.4013C34.1397 17.2607 33.9489 17.1816 33.75 17.1816H25.5Z" fill="#E3E5EA"/>
<path d="M31.2075 20.9316H25.5C25.3011 20.9316 25.1103 21.0107 24.9697 21.1513C24.829 21.292 24.75 21.4827 24.75 21.6816C24.75 21.8806 24.829 22.0713 24.9697 22.212C25.1103 22.3526 25.3011 22.4316 25.5 22.4316H31.215C31.4139 22.4316 31.6047 22.3526 31.7453 22.212C31.886 22.0713 31.965 21.8806 31.965 21.6816C31.965 21.4827 31.886 21.292 31.7453 21.1513C31.6047 21.0107 31.4139 20.9316 31.215 20.9316H31.2075Z" fill="#E3E5EA"/>
<path d="M33.75 21C33.6017 21 33.4567 21.044 33.3333 21.1264C33.21 21.2088 33.1139 21.3259 33.0571 21.463C33.0003 21.6 32.9855 21.7508 33.0144 21.8963C33.0433 22.0418 33.1148 22.1754 33.2197 22.2803C33.3246 22.3852 33.4582 22.4567 33.6037 22.4856C33.7492 22.5145 33.9 22.4997 34.037 22.4429C34.1741 22.3861 34.2912 22.29 34.3736 22.1667C34.456 22.0433 34.5 21.8983 34.5 21.75C34.5 21.5511 34.421 21.3603 34.2803 21.2197C34.1397 21.079 33.9489 21 33.75 21Z" fill="#E3E5EA"/>
<path d="M27.75 9C27.9489 9 28.1397 8.92098 28.2803 8.78033C28.421 8.63968 28.5 8.44891 28.5 8.25C28.5 8.05109 28.421 7.86032 28.2803 7.71967C28.1397 7.57902 27.9489 7.5 27.75 7.5H24.75C24.5511 7.5 24.3603 7.57902 24.2197 7.71967C24.079 7.86032 24 8.05109 24 8.25C24 8.44891 24.079 8.63968 24.2197 8.78033C24.3603 8.92098 24.5511 9 24.75 9H27.75Z" fill="#E3E5EA"/>
<path d="M30 9H33C33.1989 9 33.3897 8.92098 33.5303 8.78033C33.671 8.63968 33.75 8.44891 33.75 8.25C33.75 8.05109 33.671 7.86032 33.5303 7.71967C33.3897 7.57902 33.1989 7.5 33 7.5H30C29.8011 7.5 29.6103 7.57902 29.4697 7.71967C29.329 7.86032 29.25 8.05109 29.25 8.25C29.25 8.44891 29.329 8.63968 29.4697 8.78033C29.6103 8.92098 29.8011 9 30 9Z" fill="#E3E5EA"/>
<path d="M38.25 7.5H35.25C35.0511 7.5 34.8603 7.57902 34.7197 7.71967C34.579 7.86032 34.5 8.05109 34.5 8.25C34.5 8.44891 34.579 8.63968 34.7197 8.78033C34.8603 8.92098 35.0511 9 35.25 9H38.25C38.4489 9 38.6397 8.92098 38.7803 8.78033C38.921 8.63968 39 8.44891 39 8.25C39 8.05109 38.921 7.86032 38.7803 7.71967C38.6397 7.57902 38.4489 7.5 38.25 7.5Z" fill="#E3E5EA"/>
<path d="M4.28258 7.71772C4.24694 7.68547 4.20937 7.65541 4.17008 7.62772C4.12827 7.59933 4.08287 7.57664 4.03508 7.56022L3.90008 7.50022C3.75382 7.47167 3.60239 7.48734 3.46508 7.54522C3.372 7.5789 3.28748 7.63264 3.21749 7.70263C3.1475 7.77262 3.09376 7.85715 3.06008 7.95022C3.01968 8.04504 2.99925 8.14716 3.00008 8.25022C2.99639 8.30015 2.99639 8.35029 3.00008 8.40022C3.00828 8.44721 3.02345 8.4927 3.04508 8.53522C3.06149 8.58301 3.08419 8.62841 3.11258 8.67022C3.14027 8.70951 3.17032 8.74708 3.20258 8.78272C3.2739 8.851 3.35801 8.90452 3.45008 8.94022C3.54363 8.98457 3.64666 9.00517 3.75008 9.00022H3.90008L4.03508 8.95522C4.08287 8.9388 4.12827 8.9161 4.17008 8.88772L4.28258 8.79772L4.37258 8.68522C4.40096 8.64341 4.42366 8.59801 4.44008 8.55022C4.46841 8.50397 4.48869 8.45325 4.50008 8.40022C4.50376 8.35029 4.50376 8.30015 4.50008 8.25022C4.50261 8.15184 4.48206 8.05423 4.44008 7.96522C4.40438 7.87316 4.35086 7.78905 4.28258 7.71772Z" fill="#E3E5EA"/>
</svg>
