<svg width="39" height="47" viewBox="0 0 39 47" fill="none" xmlns="http://www.w3.org/2000/svg">
<g filter="url(#filter0_d_336_488)">
<path d="M34.8716 5.85713L29.3253 0.133774C29.2421 0.0481817 29.1294 8.14085e-05 29.012 0H7.39044C7.27296 0 7.16029 0.0481583 7.07722 0.133881C6.99415 0.219603 6.94749 0.335867 6.94749 0.457097V3.04074H4.44417C4.38594 3.04058 4.32824 3.05226 4.27438 3.07513C4.22053 3.09801 4.17157 3.13161 4.13031 3.17403C4.08906 3.21645 4.05631 3.26684 4.03395 3.32233C4.01159 3.37782 4.00005 3.43732 4 3.49742V38.5429C4 38.6641 4.04667 38.7804 4.12974 38.8661C4.21281 38.9518 4.32548 39 4.44296 39H31.6108C31.7283 39 31.8409 38.9518 31.924 38.8661C32.0071 38.7804 32.0537 38.6641 32.0537 38.5429V35.9597H34.557C34.6745 35.9597 34.7872 35.9115 34.8703 35.8258C34.9533 35.7401 35 35.6238 35 35.5026V6.18045C35.0002 6.05941 34.9541 5.94318 34.8716 5.85713ZM29.457 1.56042L33.4911 5.72335H29.457V1.56042ZM31.1711 38.0862H4.88591V3.95452H6.94627V35.5026C6.94627 35.6238 6.99293 35.7401 7.076 35.8258C7.15908 35.9115 7.27174 35.9597 7.38922 35.9597H31.169L31.1711 38.0862ZM7.83218 35.0455V0.914194H28.569V6.18045C28.569 6.30168 28.6157 6.41795 28.6988 6.50367C28.7818 6.58939 28.8945 6.63755 29.012 6.63755H34.1153V35.0455H7.83218ZM10.98 9.04548C10.9801 8.92433 11.0268 8.80817 11.1099 8.72254C11.1929 8.63691 11.3056 8.58881 11.423 8.58881H17.8312C17.8905 8.58695 17.9495 8.5974 18.0048 8.61953C18.0601 8.64165 18.1105 8.67501 18.153 8.71762C18.1956 8.76023 18.2294 8.81122 18.2526 8.86758C18.2757 8.92393 18.2876 8.9845 18.2876 9.04569C18.2876 9.10689 18.2757 9.16745 18.2526 9.22381C18.2294 9.28016 18.1956 9.33116 18.153 9.37377C18.1105 9.41638 18.0601 9.44973 18.0048 9.47186C17.9495 9.49399 17.8905 9.50443 17.8312 9.50258H11.423C11.3055 9.50258 11.1928 9.45442 11.1097 9.3687C11.0267 9.28298 10.98 9.16671 10.98 9.04548ZM10.98 12.1906C10.98 12.0694 11.0267 11.9532 11.1097 11.8674C11.1928 11.7817 11.3055 11.7335 11.423 11.7335H21.0351C21.1526 11.7335 21.2653 11.7817 21.3483 11.8674C21.4314 11.9532 21.4781 12.0694 21.4781 12.1906C21.4781 12.3119 21.4314 12.4281 21.3483 12.5139C21.2653 12.5996 21.1526 12.6477 21.0351 12.6477H11.423C11.3647 12.6477 11.307 12.6359 11.2532 12.6128C11.1993 12.5898 11.1505 12.556 11.1093 12.5134C11.0682 12.4708 11.0356 12.4203 11.0134 12.3647C10.9912 12.3091 10.9798 12.2495 10.98 12.1894V12.1906ZM15.2088 26.6102C15.2087 26.7313 15.162 26.8475 15.0789 26.9331C14.9959 27.0187 14.8833 27.0668 14.7659 27.0668H11.423C11.3637 27.0687 11.3047 27.0582 11.2494 27.0361C11.1941 27.014 11.1437 26.9806 11.1011 26.938C11.0586 26.8954 11.0247 26.8444 11.0016 26.7881C10.9785 26.7317 10.9666 26.6711 10.9666 26.61C10.9666 26.5488 10.9785 26.4882 11.0016 26.4318C11.0247 26.3755 11.0586 26.3245 11.1011 26.2819C11.1437 26.2393 11.1941 26.2059 11.2494 26.1838C11.3047 26.1617 11.3637 26.1512 11.423 26.1531H14.7659C14.8833 26.1531 14.996 26.2012 15.0791 26.2869C15.1621 26.3727 15.2088 26.4889 15.2088 26.6102ZM30.9675 26.6102C30.9674 26.7313 30.9207 26.8475 30.8376 26.9331C30.7545 27.0187 30.6419 27.0668 30.5245 27.0668H16.3824C16.3232 27.0687 16.2641 27.0582 16.2089 27.0361C16.1536 27.014 16.1032 26.9806 16.0606 26.938C16.018 26.8954 15.9842 26.8444 15.9611 26.7881C15.938 26.7317 15.9261 26.6711 15.9261 26.61C15.9261 26.5488 15.938 26.4882 15.9611 26.4318C15.9842 26.3755 16.018 26.3245 16.0606 26.2819C16.1032 26.2393 16.1536 26.2059 16.2089 26.1838C16.2641 26.1617 16.3232 26.1512 16.3824 26.1531H30.5245C30.642 26.1531 30.7547 26.2012 30.8377 26.2869C30.9208 26.3727 30.9675 26.4889 30.9675 26.6102ZM30.9675 22.7773C30.9675 22.8985 30.9208 23.0148 30.8377 23.1005C30.7547 23.1862 30.642 23.2344 30.5245 23.2344H26.2892C26.1717 23.2344 26.0591 23.1862 25.976 23.1005C25.8929 23.0148 25.8463 22.8985 25.8463 22.7773C25.8463 22.656 25.8929 22.5398 25.976 22.454C26.0591 22.3683 26.1717 22.3202 26.2892 22.3202H30.5245C30.642 22.3202 30.7547 22.3683 30.8377 22.454C30.9208 22.5398 30.9675 22.656 30.9675 22.7773ZM10.98 22.7773C10.98 22.7172 10.9915 22.6578 11.0137 22.6023C11.036 22.5469 11.0686 22.4965 11.1097 22.454C11.1509 22.4116 11.1997 22.3779 11.2535 22.355C11.3072 22.332 11.3648 22.3202 11.423 22.3202H24.6743C24.7917 22.3202 24.9044 22.3683 24.9875 22.454C25.0705 22.5398 25.1172 22.656 25.1172 22.7773C25.1172 22.8985 25.0705 23.0148 24.9875 23.1005C24.9044 23.1862 24.7917 23.2344 24.6743 23.2344H11.423C11.3055 23.2344 11.1928 23.1862 11.1097 23.1005C11.0267 23.0148 10.98 22.8985 10.98 22.7773ZM30.9675 18.9444C30.9675 19.0044 30.956 19.0638 30.9338 19.1193C30.9115 19.1747 30.8789 19.2251 30.8377 19.2676C30.7966 19.31 30.7478 19.3437 30.694 19.3667C30.6403 19.3896 30.5827 19.4015 30.5245 19.4015H11.4246C11.3653 19.4033 11.3063 19.3929 11.251 19.3707C11.1957 19.3486 11.1453 19.3152 11.1027 19.2726C11.0602 19.23 11.0263 19.179 11.0032 19.1227C10.9801 19.0663 10.9682 19.0058 10.9682 18.9446C10.9682 18.8834 10.9801 18.8228 11.0032 18.7664C11.0263 18.7101 11.0602 18.6591 11.1027 18.6165C11.1453 18.5739 11.1957 18.5405 11.251 18.5184C11.3063 18.4963 11.3653 18.4858 11.4246 18.4877H30.5245C30.6419 18.4877 30.7545 18.5358 30.8376 18.6214C30.9207 18.707 30.9674 18.8232 30.9675 18.9444ZM30.9675 15.1119C30.9675 15.2331 30.9208 15.3494 30.8377 15.4351C30.7547 15.5208 30.642 15.569 30.5245 15.569H22.9719C22.8544 15.569 22.7418 15.5208 22.6587 15.4351C22.5756 15.3494 22.529 15.2331 22.529 15.1119C22.529 14.9906 22.5756 14.8744 22.6587 14.7887C22.7418 14.7029 22.8544 14.6548 22.9719 14.6548H30.5245C30.642 14.6548 30.7547 14.7029 30.8377 14.7887C30.9208 14.8744 30.9675 14.9906 30.9675 15.1119ZM10.98 15.1119C10.98 15.0518 10.9915 14.9924 11.0137 14.9369C11.036 14.8815 11.0686 14.8311 11.1097 14.7887C11.1509 14.7462 11.1997 14.7125 11.2535 14.6896C11.3072 14.6666 11.3648 14.6548 11.423 14.6548H21.357C21.4744 14.6548 21.5871 14.7029 21.6702 14.7887C21.7532 14.8744 21.7999 14.9906 21.7999 15.1119C21.7999 15.2331 21.7532 15.3494 21.6702 15.4351C21.5871 15.5208 21.4744 15.569 21.357 15.569H11.423C11.3055 15.569 11.1928 15.5208 11.1097 15.4351C11.0267 15.3494 10.98 15.2331 10.98 15.1119ZM30.362 30.0552C30.3615 30.1761 30.3147 30.2919 30.2317 30.3773C30.1486 30.4627 30.0362 30.5106 29.919 30.5106C29.9011 30.5106 29.882 30.5106 29.8633 30.5106C28.8665 30.5139 27.8741 30.6465 26.9094 30.9052C26.6891 30.9576 26.2892 31.0536 26.0519 30.7823L25.8117 30.8943C25.5065 31.0369 25.305 31.1308 25.1615 31.1878C25.0573 31.2483 24.9384 31.2768 24.819 31.2698C24.6996 31.2628 24.5847 31.2207 24.4877 31.1484C24.4098 31.0699 24.3569 30.9689 24.3358 30.8587C24.3148 30.7485 24.3266 30.6342 24.3699 30.5311C24.1061 30.6607 23.7961 30.8167 23.5339 30.9505C22.2941 31.5749 22.0832 31.6705 21.9202 31.6818H21.8905C21.7799 31.6821 21.6732 31.6397 21.5914 31.5629C21.5096 31.4861 21.4585 31.3805 21.4483 31.2668C21.4382 31.1532 21.4695 31.0397 21.5363 30.9487C21.6031 30.8578 21.7005 30.7958 21.8093 30.7752C21.9718 30.7194 22.6468 30.3785 23.1446 30.1277C23.5047 29.9465 23.8761 29.7587 24.1606 29.622C24.6255 29.3989 24.8181 29.3066 25.0412 29.4144C25.1013 29.4441 25.1543 29.4871 25.1965 29.5404C25.2386 29.5937 25.2689 29.6559 25.285 29.7226C25.3156 29.8503 25.3317 29.9811 25.333 30.1126L25.4411 30.0619L25.8068 29.8941C26.2022 29.7109 26.5436 29.5528 26.798 29.8484C26.8311 29.8859 26.8585 29.9283 26.8793 29.9742C27.873 29.7203 28.8932 29.5935 29.917 29.5968C29.9754 29.5966 30.0333 29.6083 30.0873 29.6312C30.1414 29.6542 30.1905 29.6879 30.2318 29.7305C30.2732 29.7731 30.306 29.8237 30.3283 29.8794C30.3506 29.9351 30.3621 29.9949 30.362 30.0552Z" fill="#376FFF"/>
</g>
<defs>
<filter id="filter0_d_336_488" x="0" y="0" width="39" height="47" filterUnits="userSpaceOnUse" color-interpolation-filters="sRGB">
<feFlood flood-opacity="0" result="BackgroundImageFix"/>
<feColorMatrix in="SourceAlpha" type="matrix" values="0 0 0 0 0 0 0 0 0 0 0 0 0 0 0 0 0 0 127 0" result="hardAlpha"/>
<feOffset dy="4"/>
<feGaussianBlur stdDeviation="2"/>
<feComposite in2="hardAlpha" operator="out"/>
<feColorMatrix type="matrix" values="0 0 0 0 0 0 0 0 0 0 0 0 0 0 0 0 0 0 0.25 0"/>
<feBlend mode="normal" in2="BackgroundImageFix" result="effect1_dropShadow_336_488"/>
<feBlend mode="normal" in="SourceGraphic" in2="effect1_dropShadow_336_488" result="shape"/>
</filter>
</defs>
</svg>
