<svg width="51" height="34" viewBox="0 0 51 34" fill="none" xmlns="http://www.w3.org/2000/svg">
<path d="M21.2499 17C20.2412 17 19.2552 17.2991 18.4165 17.8595C17.5778 18.4199 16.9241 19.2164 16.5381 20.1483C16.1521 21.0802 16.0511 22.1057 16.2479 23.095C16.4447 24.0843 16.9304 24.993 17.6437 25.7062C18.3569 26.4195 19.2656 26.9052 20.2549 27.102C21.2442 27.2988 22.2697 27.1978 23.2016 26.8118C24.1335 26.4258 24.93 25.7721 25.4904 24.9334C26.0508 24.0947 26.3499 23.1087 26.3499 22.1C26.3486 20.7478 25.8108 19.4514 24.8547 18.4952C23.8985 17.5391 22.6021 17.0014 21.2499 17ZM21.2499 25.5C20.5774 25.5 19.9201 25.3006 19.361 24.927C18.8018 24.5534 18.3661 24.0224 18.1087 23.4011C17.8514 22.7799 17.784 22.0962 17.9152 21.4367C18.0464 20.7772 18.3702 20.1713 18.8457 19.6958C19.3212 19.2203 19.9271 18.8965 20.5866 18.7653C21.2461 18.6341 21.9298 18.7015 22.551 18.9588C23.1723 19.2161 23.7033 19.6519 24.0769 20.2111C24.4505 20.7702 24.6499 21.4275 24.6499 22.1C24.6499 23.0017 24.2917 23.8665 23.6541 24.5042C23.0164 25.1418 22.1516 25.5 21.2499 25.5Z" fill="#E3E5EA"/>
<path d="M38.25 16.4684C37.7233 16.4592 37.2217 16.2415 36.8552 15.8631C36.4887 15.4847 36.2873 14.9764 36.295 14.4496C36.295 14.2242 36.2055 14.008 36.046 13.8486C35.8866 13.6892 35.6704 13.5996 35.445 13.5996H26.35C26.1246 13.5996 25.9084 13.6892 25.749 13.8486C25.5896 14.008 25.5 14.2242 25.5 14.4496C25.5 14.675 25.5896 14.8912 25.749 15.0507C25.9084 15.2101 26.1246 15.2996 26.35 15.2996H34.6902C34.8425 15.966 35.1763 16.5773 35.6546 17.0658C36.1328 17.5543 36.7369 17.9009 37.4 18.0672V26.132C36.7369 26.2984 36.1328 26.645 35.6546 27.1334C35.1763 27.6219 34.8425 28.2332 34.6902 28.8996H26.7588C26.5334 28.8996 26.3172 28.9892 26.1578 29.1486C25.9984 29.308 25.9088 29.5242 25.9088 29.7496C25.9088 29.975 25.9984 30.1912 26.1578 30.3507C26.3172 30.5101 26.5334 30.5996 26.7588 30.5996H35.445C35.6704 30.5996 35.8866 30.5101 36.046 30.3507C36.2055 30.1912 36.295 29.975 36.295 29.7496C36.2873 29.2229 36.4887 28.7146 36.8552 28.3361C37.2217 27.9577 37.7233 27.74 38.25 27.7309C38.4754 27.7309 38.6916 27.6413 38.851 27.4819C39.0104 27.3225 39.1 27.1063 39.1 26.8809V17.3184C39.1 17.0929 39.0104 16.8767 38.851 16.7173C38.6916 16.5579 38.4754 16.4684 38.25 16.4684Z" fill="#E3E5EA"/>
<path d="M15.7028 28.8996H7.7349C7.59179 28.2415 7.27019 27.6356 6.80537 27.1483C6.34055 26.661 5.75048 26.3111 5.0999 26.1371V18.0621C5.75048 17.8881 6.34055 17.5382 6.80537 17.0509C7.27019 16.5636 7.59179 15.9577 7.7349 15.2996H16.1499C16.3753 15.2996 16.5915 15.2101 16.7509 15.0507C16.9104 14.8912 16.9999 14.675 16.9999 14.4496C16.9999 14.2242 16.9104 14.008 16.7509 13.8486C16.5915 13.6892 16.3753 13.5996 16.1499 13.5996H6.97585C6.75042 13.5996 6.53422 13.6892 6.37481 13.8486C6.21541 14.008 6.12585 14.2242 6.12585 14.4496C6.1431 14.9656 5.95552 15.4675 5.60406 15.8457C5.2526 16.2239 4.7658 16.4478 4.2499 16.4684C4.02447 16.4684 3.80827 16.5579 3.64886 16.7173C3.48946 16.8767 3.3999 17.0929 3.3999 17.3184V26.8809C3.3999 27.1063 3.48946 27.3225 3.64886 27.4819C3.80827 27.6413 4.02447 27.7309 4.2499 27.7309C4.7658 27.7514 5.2526 27.9753 5.60406 28.3535C5.95552 28.7317 6.1431 29.2336 6.12585 29.7496C6.12585 29.975 6.21541 30.1912 6.37481 30.3507C6.53422 30.5101 6.75042 30.5996 6.97585 30.5996H15.7028C15.9282 30.5996 16.1444 30.5101 16.3038 30.3507C16.4633 30.1912 16.5528 29.975 16.5528 29.7496C16.5528 29.5242 16.4633 29.308 16.3038 29.1486C16.1444 28.9892 15.9282 28.8996 15.7028 28.8996Z" fill="#E3E5EA"/>
<path d="M40.2433 10.1992H2.25675C1.6618 10.1965 1.09008 10.4299 0.666999 10.8482C0.243921 11.2665 0.00404569 11.8356 0 12.4305V31.768C0.00404569 32.3629 0.243921 32.932 0.666999 33.3503C1.09008 33.7686 1.6618 34.002 2.25675 33.9992H40.2433C40.8382 34.002 41.4099 33.7686 41.833 33.3503C42.2561 32.932 42.496 32.3629 42.5 31.768V12.4305C42.496 11.8356 42.2561 11.2665 41.833 10.8482C41.4099 10.4299 40.8382 10.1965 40.2433 10.1992ZM40.8 31.768C40.7964 31.9122 40.7358 32.0491 40.6315 32.1487C40.5271 32.2483 40.3875 32.3024 40.2433 32.2992H2.25675C2.11253 32.3024 1.97292 32.2483 1.86855 32.1487C1.76418 32.0491 1.70357 31.9122 1.7 31.768V12.4305C1.70357 12.2863 1.76418 12.1494 1.86855 12.0498C1.97292 11.9502 2.11253 11.896 2.25675 11.8992H40.2433C40.3875 11.896 40.5271 11.9502 40.6315 12.0498C40.7358 12.1494 40.7964 12.2863 40.8 12.4305V31.768Z" fill="#E3E5EA"/>
<path d="M50.1499 0H12.7499C12.5245 0 12.3083 0.0895535 12.1489 0.248959C11.9895 0.408365 11.8999 0.624566 11.8999 0.85C11.8999 1.07543 11.9895 1.29163 12.1489 1.45104C12.3083 1.61045 12.5245 1.7 12.7499 1.7H49.2999V19.55C49.2999 19.7754 49.3895 19.9916 49.5489 20.151C49.7083 20.3105 49.9245 20.4 50.1499 20.4C50.3753 20.4 50.5915 20.3105 50.7509 20.151C50.9104 19.9916 50.9999 19.7754 50.9999 19.55V0.85C50.9999 0.624566 50.9104 0.408365 50.7509 0.248959C50.5915 0.0895535 50.3753 0 50.1499 0Z" fill="#E3E5EA"/>
<path d="M45.8999 5.09961H8.4999C8.27447 5.09961 8.05827 5.18916 7.89886 5.34857C7.73946 5.50797 7.6499 5.72418 7.6499 5.94961C7.6499 6.17504 7.73946 6.39125 7.89886 6.55065C8.05827 6.71006 8.27447 6.79961 8.4999 6.79961H45.0499V24.6496C45.0499 24.875 45.1395 25.0912 45.2989 25.2507C45.4583 25.4101 45.6745 25.4996 45.8999 25.4996C46.1253 25.4996 46.3415 25.4101 46.5009 25.2507C46.6604 25.0912 46.7499 24.875 46.7499 24.6496V5.94961C46.7499 5.72418 46.6604 5.50797 46.5009 5.34857C46.3415 5.18916 46.1253 5.09961 45.8999 5.09961Z" fill="#E3E5EA"/>
</svg>
