<svg width="65" height="55" viewBox="0 0 65 55" fill="none" xmlns="http://www.w3.org/2000/svg">
<g id="lang bar">
<rect id="Rectangle 33" x="0.5" y="0.5" width="64" height="54" rx="4.5" stroke="#EEECEC"/>
<g id="flag">
<g id="usa">
<path d="M48 18.6812H18V34.3977H48V18.6812Z" fill="white"/>
<path d="M48 18.6812H18V19.8901H48V18.6812Z" fill="#B22234"/>
<path d="M48 21.0991H18V22.3081H48V21.0991Z" fill="#B22234"/>
<path d="M48 23.5169H18V24.7259H48V23.5169Z" fill="#B22234"/>
<path d="M48 25.9349H18V27.1439H48V25.9349Z" fill="#B22234"/>
<path d="M48 28.3529H18V29.5619H48V28.3529Z" fill="#B22234"/>
<path d="M48 30.7709H18V31.9798H48V30.7709Z" fill="#B22234"/>
<path d="M48 33.1887H18V34.3977H48V33.1887Z" fill="#B22234"/>
<path d="M30 18.6812H18V27.1439L30 27.1439V18.6812Z" fill="#3C3B6E"/>
<path d="M19.1538 19.609L18.7409 19.9082L18.8988 19.4246L19.1538 19.609Z" fill="white"/>
<path d="M18.9777 19.6663L18.5648 19.3671H19.0749L18.9777 19.6663Z" fill="white"/>
<path d="M18.8684 19.5182L19.0263 19.0347L19.1842 19.5182H18.8684Z" fill="white"/>
<path d="M18.9777 19.3671H19.4879L19.0749 19.6663L18.9777 19.3671Z" fill="white"/>
<path d="M19.1538 19.4246L19.3117 19.9082L18.8988 19.609L19.1538 19.4246Z" fill="white"/>
<path d="M21.1427 19.609L20.7298 19.9082L20.8877 19.4246L21.1427 19.609Z" fill="white"/>
<path d="M20.9666 19.6663L20.5536 19.3671H21.0638L20.9666 19.6663Z" fill="white"/>
<path d="M20.8573 19.5182L21.0152 19.0347L21.1731 19.5182H20.8573Z" fill="white"/>
<path d="M20.9666 19.3671H21.4798L21.0638 19.6663L20.9666 19.3671Z" fill="white"/>
<path d="M21.1427 19.4246L21.3006 19.9082L20.8877 19.609L21.1427 19.4246Z" fill="white"/>
<path d="M23.1346 19.609L22.7186 19.9082L22.8765 19.4246L23.1346 19.609Z" fill="white"/>
<path d="M22.9555 19.6663L22.5425 19.3671H23.0526L22.9555 19.6663Z" fill="white"/>
<path d="M22.8462 19.5182L23.004 19.0347L23.1619 19.5182H22.8462Z" fill="white"/>
<path d="M22.9555 19.3671H23.4686L23.0526 19.6663L22.9555 19.3671Z" fill="white"/>
<path d="M23.1346 19.4246L23.2925 19.9082L22.8765 19.609L23.1346 19.4246Z" fill="white"/>
<path d="M25.1235 19.609L24.7075 19.9082L24.8654 19.4246L25.1235 19.609Z" fill="white"/>
<path d="M24.9474 19.6663L24.5314 19.3671H25.0445L24.9474 19.6663Z" fill="white"/>
<path d="M24.8381 19.5182L24.9959 19.0347L25.1538 19.5182H24.8381Z" fill="white"/>
<path d="M24.9474 19.3671H25.4575L25.0445 19.6663L24.9474 19.3671Z" fill="white"/>
<path d="M25.1235 19.4246L25.2814 19.9082L24.8654 19.609L25.1235 19.4246Z" fill="white"/>
<path d="M27.1123 19.609L26.6994 19.9082L26.8573 19.4246L27.1123 19.609Z" fill="white"/>
<path d="M26.9362 19.6663L26.5202 19.3671H27.0334L26.9362 19.6663Z" fill="white"/>
<path d="M26.8269 19.5182L26.9848 19.0347L27.1427 19.5182H26.8269Z" fill="white"/>
<path d="M26.9362 19.3671H27.4464L27.0334 19.6663L26.9362 19.3671Z" fill="white"/>
<path d="M27.1124 19.4246L27.2703 19.9082L26.8573 19.609L27.1124 19.4246Z" fill="white"/>
<path d="M29.1012 19.609L28.6883 19.9082L28.8461 19.4246L29.1012 19.609Z" fill="white"/>
<path d="M28.9251 19.6663L28.5122 19.3671H29.0223L28.9251 19.6663Z" fill="white"/>
<path d="M28.8158 19.5182L28.9737 19.0347L29.1316 19.5182H28.8158Z" fill="white"/>
<path d="M28.9251 19.3671H29.4352L29.0223 19.6663L28.9251 19.3671Z" fill="white"/>
<path d="M29.1012 19.4246L29.2591 19.9082L28.8462 19.609L29.1012 19.4246Z" fill="white"/>
<path d="M20.1498 20.4582L19.7338 20.7574L19.8947 20.2739L20.1498 20.4582Z" fill="white"/>
<path d="M19.9737 20.5157L19.5577 20.2165H20.0709L19.9737 20.5157Z" fill="white"/>
<path d="M19.8644 20.3676L20.0223 19.881L20.1802 20.3676H19.8644Z" fill="white"/>
<path d="M19.9737 20.2165H20.4838L20.0709 20.5157L19.9737 20.2165Z" fill="white"/>
<path d="M20.1498 20.2739L20.3077 20.7574L19.8947 20.4582L20.1498 20.2739Z" fill="white"/>
<path d="M22.1387 20.4582L21.7257 20.7574L21.8836 20.2739L22.1387 20.4582Z" fill="white"/>
<path d="M21.9626 20.5157L21.5466 20.2165H22.0597L21.9626 20.5157Z" fill="white"/>
<path d="M21.8532 20.3676L22.0111 19.881L22.169 20.3676H21.8532Z" fill="white"/>
<path d="M21.9625 20.2165H22.4727L22.0597 20.5157L21.9625 20.2165Z" fill="white"/>
<path d="M22.1387 20.2739L22.2966 20.7574L21.8836 20.4582L22.1387 20.2739Z" fill="white"/>
<path d="M24.1275 20.4582L23.7146 20.7574L23.8725 20.2739L24.1275 20.4582Z" fill="white"/>
<path d="M23.9514 20.5157L23.5385 20.2165H24.0486L23.9514 20.5157Z" fill="white"/>
<path d="M23.8421 20.3676L24 19.881L24.1579 20.3676H23.8421Z" fill="white"/>
<path d="M23.9514 20.2165H24.4615L24.0486 20.5157L23.9514 20.2165Z" fill="white"/>
<path d="M24.1275 20.2739L24.2854 20.7574L23.8725 20.4582L24.1275 20.2739Z" fill="white"/>
<path d="M26.1164 20.4582L25.7034 20.7574L25.8613 20.2739L26.1164 20.4582Z" fill="white"/>
<path d="M25.9403 20.5157L25.5273 20.2165H26.0375L25.9403 20.5157Z" fill="white"/>
<path d="M25.831 20.3676L25.9889 19.881L26.1468 20.3676H25.831Z" fill="white"/>
<path d="M25.9403 20.2165H26.4534L26.0375 20.5157L25.9403 20.2165Z" fill="white"/>
<path d="M26.1164 20.2739L26.2743 20.7574L25.8613 20.4582L26.1164 20.2739Z" fill="white"/>
<path d="M28.1083 20.4582L27.6923 20.7574L27.8502 20.2739L28.1083 20.4582Z" fill="white"/>
<path d="M27.9291 20.5157L27.5162 20.2165H28.0293L27.9291 20.5157Z" fill="white"/>
<path d="M27.8198 20.3676L27.9777 19.881L28.1356 20.3676H27.8198Z" fill="white"/>
<path d="M27.9292 20.2165H28.4423L28.0294 20.5157L27.9292 20.2165Z" fill="white"/>
<path d="M28.1083 20.2739L28.2662 20.7574L27.8502 20.4582L28.1083 20.2739Z" fill="white"/>
<path d="M19.1538 21.3075L18.7409 21.6067L18.8988 21.1231L19.1538 21.3075Z" fill="white"/>
<path d="M18.9777 21.365L18.5648 21.0658H19.0749L18.9777 21.365Z" fill="white"/>
<path d="M18.8684 21.2138L19.0263 20.7302L19.1842 21.2138H18.8684Z" fill="white"/>
<path d="M18.9777 21.0658H19.4879L19.0749 21.365L18.9777 21.0658Z" fill="white"/>
<path d="M19.1538 21.1231L19.3117 21.6067L18.8988 21.3075L19.1538 21.1231Z" fill="white"/>
<path d="M21.1427 21.3075L20.7298 21.6067L20.8877 21.1231L21.1427 21.3075Z" fill="white"/>
<path d="M20.9666 21.365L20.5536 21.0658H21.0638L20.9666 21.365Z" fill="white"/>
<path d="M20.8573 21.2138L21.0152 20.7302L21.1731 21.2138H20.8573Z" fill="white"/>
<path d="M20.9666 21.0658H21.4798L21.0638 21.365L20.9666 21.0658Z" fill="white"/>
<path d="M21.1427 21.1231L21.3006 21.6067L20.8877 21.3075L21.1427 21.1231Z" fill="white"/>
<path d="M23.1346 21.3075L22.7186 21.6067L22.8765 21.1231L23.1346 21.3075Z" fill="white"/>
<path d="M22.9555 21.365L22.5425 21.0658H23.0526L22.9555 21.365Z" fill="white"/>
<path d="M22.8462 21.2138L23.004 20.7302L23.1619 21.2138H22.8462Z" fill="white"/>
<path d="M22.9555 21.0658H23.4686L23.0526 21.365L22.9555 21.0658Z" fill="white"/>
<path d="M23.1346 21.1231L23.2925 21.6067L22.8765 21.3075L23.1346 21.1231Z" fill="white"/>
<path d="M25.1235 21.3075L24.7075 21.6067L24.8654 21.1231L25.1235 21.3075Z" fill="white"/>
<path d="M24.9474 21.365L24.5314 21.0658H25.0445L24.9474 21.365Z" fill="white"/>
<path d="M24.8381 21.2138L24.9959 20.7302L25.1538 21.2138H24.8381Z" fill="white"/>
<path d="M24.9474 21.0658H25.4575L25.0445 21.365L24.9474 21.0658Z" fill="white"/>
<path d="M25.1235 21.1231L25.2814 21.6067L24.8654 21.3075L25.1235 21.1231Z" fill="white"/>
<path d="M27.1123 21.3075L26.6994 21.6067L26.8573 21.1231L27.1123 21.3075Z" fill="white"/>
<path d="M26.9362 21.365L26.5202 21.0658H27.0334L26.9362 21.365Z" fill="white"/>
<path d="M26.8269 21.2138L26.9848 20.7302L27.1427 21.2138H26.8269Z" fill="white"/>
<path d="M26.9362 21.0658H27.4464L27.0334 21.365L26.9362 21.0658Z" fill="white"/>
<path d="M27.1124 21.1231L27.2703 21.6067L26.8573 21.3075L27.1124 21.1231Z" fill="white"/>
<path d="M29.1012 21.3075L28.6883 21.6067L28.8461 21.1231L29.1012 21.3075Z" fill="white"/>
<path d="M28.9251 21.365L28.5122 21.0658H29.0223L28.9251 21.365Z" fill="white"/>
<path d="M28.8158 21.2138L28.9737 20.7302L29.1316 21.2138H28.8158Z" fill="white"/>
<path d="M28.9251 21.0658H29.4352L29.0223 21.365L28.9251 21.0658Z" fill="white"/>
<path d="M29.1012 21.1231L29.2591 21.6067L28.8462 21.3075L29.1012 21.1231Z" fill="white"/>
<path d="M20.1498 22.1569L19.7338 22.4561L19.8947 21.9725L20.1498 22.1569Z" fill="white"/>
<path d="M19.9737 22.2142L19.5577 21.915H20.0709L19.9737 22.2142Z" fill="white"/>
<path d="M19.8644 22.0632L20.0223 21.5796L20.1802 22.0632H19.8644Z" fill="white"/>
<path d="M19.9737 21.915H20.4838L20.0709 22.2142L19.9737 21.915Z" fill="white"/>
<path d="M20.1498 21.9725L20.3077 22.4561L19.8947 22.1569L20.1498 21.9725Z" fill="white"/>
<path d="M22.1387 22.1569L21.7257 22.4561L21.8836 21.9725L22.1387 22.1569Z" fill="white"/>
<path d="M21.9626 22.2142L21.5466 21.915H22.0597L21.9626 22.2142Z" fill="white"/>
<path d="M21.8532 22.0632L22.0111 21.5796L22.169 22.0632H21.8532Z" fill="white"/>
<path d="M21.9625 21.915H22.4727L22.0597 22.2142L21.9625 21.915Z" fill="white"/>
<path d="M22.1387 21.9725L22.2966 22.4561L21.8836 22.1569L22.1387 21.9725Z" fill="white"/>
<path d="M24.1275 22.1569L23.7146 22.4561L23.8725 21.9725L24.1275 22.1569Z" fill="white"/>
<path d="M23.9514 22.2142L23.5385 21.915H24.0486L23.9514 22.2142Z" fill="white"/>
<path d="M23.8421 22.0632L24 21.5796L24.1579 22.0632H23.8421Z" fill="white"/>
<path d="M23.9514 21.915H24.4615L24.0486 22.2142L23.9514 21.915Z" fill="white"/>
<path d="M24.1275 21.9725L24.2854 22.4561L23.8725 22.1569L24.1275 21.9725Z" fill="white"/>
<path d="M26.1164 22.1569L25.7034 22.4561L25.8613 21.9725L26.1164 22.1569Z" fill="white"/>
<path d="M25.9403 22.2142L25.5273 21.915H26.0375L25.9403 22.2142Z" fill="white"/>
<path d="M25.831 22.0632L25.9889 21.5796L26.1468 22.0632H25.831Z" fill="white"/>
<path d="M25.9403 21.915H26.4534L26.0375 22.2142L25.9403 21.915Z" fill="white"/>
<path d="M26.1164 21.9725L26.2743 22.4561L25.8613 22.1569L26.1164 21.9725Z" fill="white"/>
<path d="M28.1083 22.1569L27.6923 22.4561L27.8502 21.9725L28.1083 22.1569Z" fill="white"/>
<path d="M27.9291 22.2142L27.5162 21.915H28.0293L27.9291 22.2142Z" fill="white"/>
<path d="M27.8198 22.0632L27.9777 21.5796L28.1356 22.0632H27.8198Z" fill="white"/>
<path d="M27.9292 21.915H28.4423L28.0294 22.2142L27.9292 21.915Z" fill="white"/>
<path d="M28.1083 21.9725L28.2662 22.4561L27.8502 22.1569L28.1083 21.9725Z" fill="white"/>
<path d="M19.1538 23.0061L18.7409 23.3053L18.8988 22.8187L19.1538 23.0061Z" fill="white"/>
<path d="M18.9777 23.0606L18.5648 22.7644H19.0749L18.9777 23.0606Z" fill="white"/>
<path d="M18.8684 22.9125L19.0263 22.4289L19.1842 22.9125H18.8684Z" fill="white"/>
<path d="M18.9777 22.7644H19.4879L19.0749 23.0606L18.9777 22.7644Z" fill="white"/>
<path d="M19.1538 22.8187L19.3117 23.3053L18.8988 23.0061L19.1538 22.8187Z" fill="white"/>
<path d="M21.1427 23.0061L20.7298 23.3053L20.8877 22.8187L21.1427 23.0061Z" fill="white"/>
<path d="M20.9666 23.0606L20.5536 22.7644H21.0638L20.9666 23.0606Z" fill="white"/>
<path d="M20.8573 22.9125L21.0152 22.4289L21.1731 22.9125H20.8573Z" fill="white"/>
<path d="M20.9666 22.7644H21.4798L21.0638 23.0606L20.9666 22.7644Z" fill="white"/>
<path d="M21.1427 22.8187L21.3006 23.3053L20.8877 23.0061L21.1427 22.8187Z" fill="white"/>
<path d="M23.1346 23.0061L22.7186 23.3053L22.8765 22.8187L23.1346 23.0061Z" fill="white"/>
<path d="M22.9555 23.0606L22.5425 22.7644H23.0526L22.9555 23.0606Z" fill="white"/>
<path d="M22.8462 22.9125L23.004 22.4289L23.1619 22.9125H22.8462Z" fill="white"/>
<path d="M22.9555 22.7644H23.4686L23.0526 23.0606L22.9555 22.7644Z" fill="white"/>
<path d="M23.1346 22.8187L23.2925 23.3053L22.8765 23.0061L23.1346 22.8187Z" fill="white"/>
<path d="M25.1235 23.0061L24.7075 23.3053L24.8654 22.8187L25.1235 23.0061Z" fill="white"/>
<path d="M24.9474 23.0606L24.5314 22.7644H25.0445L24.9474 23.0606Z" fill="white"/>
<path d="M24.8381 22.9125L24.9959 22.4289L25.1538 22.9125H24.8381Z" fill="white"/>
<path d="M24.9474 22.7644H25.4575L25.0445 23.0606L24.9474 22.7644Z" fill="white"/>
<path d="M25.1235 22.8187L25.2814 23.3053L24.8654 23.0061L25.1235 22.8187Z" fill="white"/>
<path d="M27.1123 23.0061L26.6994 23.3053L26.8573 22.8187L27.1123 23.0061Z" fill="white"/>
<path d="M26.9362 23.0606L26.5202 22.7644H27.0334L26.9362 23.0606Z" fill="white"/>
<path d="M26.8269 22.9125L26.9848 22.4289L27.1427 22.9125H26.8269Z" fill="white"/>
<path d="M26.9362 22.7644H27.4464L27.0334 23.0606L26.9362 22.7644Z" fill="white"/>
<path d="M27.1124 22.8187L27.2703 23.3053L26.8573 23.0061L27.1124 22.8187Z" fill="white"/>
<path d="M29.1012 23.0061L28.6883 23.3053L28.8461 22.8187L29.1012 23.0061Z" fill="white"/>
<path d="M28.9251 23.0606L28.5122 22.7644H29.0223L28.9251 23.0606Z" fill="white"/>
<path d="M28.8158 22.9125L28.9737 22.4289L29.1316 22.9125H28.8158Z" fill="white"/>
<path d="M28.9251 22.7644H29.4352L29.0223 23.0606L28.9251 22.7644Z" fill="white"/>
<path d="M29.1012 22.8187L29.2591 23.3053L28.8462 23.0061L29.1012 22.8187Z" fill="white"/>
<path d="M20.1498 23.8525L19.7338 24.1517L19.8947 23.6681L20.1498 23.8525Z" fill="white"/>
<path d="M19.9737 23.9098L19.5577 23.6106H20.0709L19.9737 23.9098Z" fill="white"/>
<path d="M19.8644 23.7617L20.0223 23.2781L20.1802 23.7617H19.8644Z" fill="white"/>
<path d="M19.9737 23.6106H20.4838L20.0709 23.9098L19.9737 23.6106Z" fill="white"/>
<path d="M20.1498 23.6681L20.3077 24.1517L19.8947 23.8525L20.1498 23.6681Z" fill="white"/>
<path d="M22.1387 23.8525L21.7257 24.1517L21.8836 23.6681L22.1387 23.8525Z" fill="white"/>
<path d="M21.9626 23.9098L21.5466 23.6106H22.0597L21.9626 23.9098Z" fill="white"/>
<path d="M21.8532 23.7617L22.0111 23.2781L22.169 23.7617H21.8532Z" fill="white"/>
<path d="M21.9625 23.6106H22.4727L22.0597 23.9098L21.9625 23.6106Z" fill="white"/>
<path d="M22.1387 23.6681L22.2966 24.1517L21.8836 23.8525L22.1387 23.6681Z" fill="white"/>
<path d="M24.1275 23.8525L23.7146 24.1517L23.8725 23.6681L24.1275 23.8525Z" fill="white"/>
<path d="M23.9514 23.9098L23.5385 23.6106H24.0486L23.9514 23.9098Z" fill="white"/>
<path d="M23.8421 23.7617L24 23.2781L24.1579 23.7617H23.8421Z" fill="white"/>
<path d="M23.9514 23.6106H24.4615L24.0486 23.9098L23.9514 23.6106Z" fill="white"/>
<path d="M24.1275 23.6681L24.2854 24.1517L23.8725 23.8525L24.1275 23.6681Z" fill="white"/>
<path d="M26.1164 23.8525L25.7034 24.1517L25.8613 23.6681L26.1164 23.8525Z" fill="white"/>
<path d="M25.9403 23.9098L25.5273 23.6106H26.0375L25.9403 23.9098Z" fill="white"/>
<path d="M25.831 23.7617L25.9889 23.2781L26.1468 23.7617H25.831Z" fill="white"/>
<path d="M25.9403 23.6106H26.4534L26.0375 23.9098L25.9403 23.6106Z" fill="white"/>
<path d="M26.1164 23.6681L26.2743 24.1517L25.8613 23.8525L26.1164 23.6681Z" fill="white"/>
<path d="M28.1083 23.8525L27.6923 24.1517L27.8502 23.6681L28.1083 23.8525Z" fill="white"/>
<path d="M27.9291 23.9098L27.5162 23.6106H28.0293L27.9291 23.9098Z" fill="white"/>
<path d="M27.8198 23.7617L27.9777 23.2781L28.1356 23.7617H27.8198Z" fill="white"/>
<path d="M27.9292 23.6106H28.4423L28.0294 23.9098L27.9292 23.6106Z" fill="white"/>
<path d="M28.1083 23.6681L28.2662 24.1517L27.8502 23.8525L28.1083 23.6681Z" fill="white"/>
<path d="M19.1538 24.7017L18.7409 25.0009L18.8988 24.5173L19.1538 24.7017Z" fill="white"/>
<path d="M18.9777 24.7592L18.5648 24.46H19.0749L18.9777 24.7592Z" fill="white"/>
<path d="M18.8684 24.6111L19.0263 24.1245L19.1842 24.6111H18.8684Z" fill="white"/>
<path d="M18.9777 24.46H19.4879L19.0749 24.7592L18.9777 24.46Z" fill="white"/>
<path d="M19.1538 24.5173L19.3117 25.0009L18.8988 24.7017L19.1538 24.5173Z" fill="white"/>
<path d="M21.1427 24.7017L20.7298 25.0009L20.8877 24.5173L21.1427 24.7017Z" fill="white"/>
<path d="M20.9666 24.7592L20.5536 24.46H21.0638L20.9666 24.7592Z" fill="white"/>
<path d="M20.8573 24.6111L21.0152 24.1245L21.1731 24.6111H20.8573Z" fill="white"/>
<path d="M20.9666 24.46H21.4798L21.0638 24.7592L20.9666 24.46Z" fill="white"/>
<path d="M21.1427 24.5173L21.3006 25.0009L20.8877 24.7017L21.1427 24.5173Z" fill="white"/>
<path d="M23.1346 24.7017L22.7186 25.0009L22.8765 24.5173L23.1346 24.7017Z" fill="white"/>
<path d="M22.9555 24.7592L22.5425 24.46H23.0526L22.9555 24.7592Z" fill="white"/>
<path d="M22.8462 24.6111L23.004 24.1245L23.1619 24.6111H22.8462Z" fill="white"/>
<path d="M22.9555 24.46H23.4686L23.0526 24.7592L22.9555 24.46Z" fill="white"/>
<path d="M23.1346 24.5173L23.2925 25.0009L22.8765 24.7017L23.1346 24.5173Z" fill="white"/>
<path d="M25.1235 24.7017L24.7075 25.0009L24.8654 24.5173L25.1235 24.7017Z" fill="white"/>
<path d="M24.9474 24.7592L24.5314 24.46H25.0445L24.9474 24.7592Z" fill="white"/>
<path d="M24.8381 24.6111L24.9959 24.1245L25.1538 24.6111H24.8381Z" fill="white"/>
<path d="M24.9474 24.46H25.4575L25.0445 24.7592L24.9474 24.46Z" fill="white"/>
<path d="M25.1235 24.5173L25.2814 25.0009L24.8654 24.7017L25.1235 24.5173Z" fill="white"/>
<path d="M27.1123 24.7017L26.6994 25.0009L26.8573 24.5173L27.1123 24.7017Z" fill="white"/>
<path d="M26.9362 24.7592L26.5202 24.46H27.0334L26.9362 24.7592Z" fill="white"/>
<path d="M26.8269 24.6111L26.9848 24.1245L27.1427 24.6111H26.8269Z" fill="white"/>
<path d="M26.9362 24.46H27.4464L27.0334 24.7592L26.9362 24.46Z" fill="white"/>
<path d="M27.1124 24.5173L27.2703 25.0009L26.8573 24.7017L27.1124 24.5173Z" fill="white"/>
<path d="M29.1012 24.7017L28.6883 25.0009L28.8461 24.5173L29.1012 24.7017Z" fill="white"/>
<path d="M28.9251 24.7592L28.5122 24.46H29.0223L28.9251 24.7592Z" fill="white"/>
<path d="M28.8158 24.6111L28.9737 24.1245L29.1316 24.6111H28.8158Z" fill="white"/>
<path d="M28.9251 24.46H29.4352L29.0223 24.7592L28.9251 24.46Z" fill="white"/>
<path d="M29.1012 24.5173L29.2591 25.0009L28.8462 24.7017L29.1012 24.5173Z" fill="white"/>
<path d="M20.1498 25.551L19.7338 25.8502L19.8947 25.3666L20.1498 25.551Z" fill="white"/>
<path d="M19.9737 25.6085L19.5577 25.3092H20.0709L19.9737 25.6085Z" fill="white"/>
<path d="M19.8644 25.4573L20.0223 24.9737L20.1802 25.4573H19.8644Z" fill="white"/>
<path d="M19.9737 25.3092H20.4838L20.0709 25.6085L19.9737 25.3092Z" fill="white"/>
<path d="M20.1498 25.3666L20.3077 25.8502L19.8947 25.551L20.1498 25.3666Z" fill="white"/>
<path d="M22.1387 25.551L21.7257 25.8502L21.8836 25.3666L22.1387 25.551Z" fill="white"/>
<path d="M21.9626 25.6085L21.5466 25.3092H22.0597L21.9626 25.6085Z" fill="white"/>
<path d="M21.8532 25.4573L22.0111 24.9737L22.169 25.4573H21.8532Z" fill="white"/>
<path d="M21.9625 25.3092H22.4727L22.0597 25.6085L21.9625 25.3092Z" fill="white"/>
<path d="M22.1387 25.3666L22.2966 25.8502L21.8836 25.551L22.1387 25.3666Z" fill="white"/>
<path d="M24.1275 25.551L23.7146 25.8502L23.8725 25.3666L24.1275 25.551Z" fill="white"/>
<path d="M23.9514 25.6085L23.5385 25.3092H24.0486L23.9514 25.6085Z" fill="white"/>
<path d="M23.8421 25.4573L24 24.9737L24.1579 25.4573H23.8421Z" fill="white"/>
<path d="M23.9514 25.3092H24.4615L24.0486 25.6085L23.9514 25.3092Z" fill="white"/>
<path d="M24.1275 25.3666L24.2854 25.8502L23.8725 25.551L24.1275 25.3666Z" fill="white"/>
<path d="M26.1164 25.551L25.7034 25.8502L25.8613 25.3666L26.1164 25.551Z" fill="white"/>
<path d="M25.9403 25.6085L25.5273 25.3092H26.0375L25.9403 25.6085Z" fill="white"/>
<path d="M25.831 25.4573L25.9889 24.9737L26.1468 25.4573H25.831Z" fill="white"/>
<path d="M25.9403 25.3092H26.4534L26.0375 25.6085L25.9403 25.3092Z" fill="white"/>
<path d="M26.1164 25.3666L26.2743 25.8502L25.8613 25.551L26.1164 25.3666Z" fill="white"/>
<path d="M28.1083 25.551L27.6923 25.8502L27.8502 25.3666L28.1083 25.551Z" fill="white"/>
<path d="M27.9291 25.6085L27.5162 25.3092H28.0293L27.9291 25.6085Z" fill="white"/>
<path d="M27.8198 25.4573L27.9777 24.9737L28.1356 25.4573H27.8198Z" fill="white"/>
<path d="M27.9292 25.3092H28.4423L28.0294 25.6085L27.9292 25.3092Z" fill="white"/>
<path d="M28.1083 25.3666L28.2662 25.8502L27.8502 25.551L28.1083 25.3666Z" fill="white"/>
<path d="M19.1538 26.4004L18.7409 26.6996L18.8988 26.216L19.1538 26.4004Z" fill="white"/>
<path d="M18.9777 26.4577L18.5648 26.1585H19.0749L18.9777 26.4577Z" fill="white"/>
<path d="M18.8684 26.3067L19.0263 25.8231L19.1842 26.3067H18.8684Z" fill="white"/>
<path d="M18.9777 26.1585H19.4879L19.0749 26.4577L18.9777 26.1585Z" fill="white"/>
<path d="M19.1538 26.216L19.3117 26.6996L18.8988 26.4004L19.1538 26.216Z" fill="white"/>
<path d="M21.1427 26.4004L20.7298 26.6996L20.8877 26.216L21.1427 26.4004Z" fill="white"/>
<path d="M20.9666 26.4577L20.5536 26.1585H21.0638L20.9666 26.4577Z" fill="white"/>
<path d="M20.8573 26.3067L21.0152 25.8231L21.1731 26.3067H20.8573Z" fill="white"/>
<path d="M20.9666 26.1585H21.4798L21.0638 26.4577L20.9666 26.1585Z" fill="white"/>
<path d="M21.1427 26.216L21.3006 26.6996L20.8877 26.4004L21.1427 26.216Z" fill="white"/>
<path d="M23.1346 26.4004L22.7186 26.6996L22.8765 26.216L23.1346 26.4004Z" fill="white"/>
<path d="M22.9555 26.4577L22.5425 26.1585H23.0526L22.9555 26.4577Z" fill="white"/>
<path d="M22.8462 26.3067L23.004 25.8231L23.1619 26.3067H22.8462Z" fill="white"/>
<path d="M22.9555 26.1585H23.4686L23.0526 26.4577L22.9555 26.1585Z" fill="white"/>
<path d="M23.1346 26.216L23.2925 26.6996L22.8765 26.4004L23.1346 26.216Z" fill="white"/>
<path d="M25.1235 26.4004L24.7075 26.6996L24.8654 26.216L25.1235 26.4004Z" fill="white"/>
<path d="M24.9474 26.4577L24.5314 26.1585H25.0445L24.9474 26.4577Z" fill="white"/>
<path d="M24.8381 26.3067L24.9959 25.8231L25.1538 26.3067H24.8381Z" fill="white"/>
<path d="M24.9474 26.1585H25.4575L25.0445 26.4577L24.9474 26.1585Z" fill="white"/>
<path d="M25.1235 26.216L25.2814 26.6996L24.8654 26.4004L25.1235 26.216Z" fill="white"/>
<path d="M27.1123 26.4004L26.6994 26.6996L26.8573 26.216L27.1123 26.4004Z" fill="white"/>
<path d="M26.9362 26.4577L26.5202 26.1585H27.0334L26.9362 26.4577Z" fill="white"/>
<path d="M26.8269 26.3067L26.9848 25.8231L27.1427 26.3067H26.8269Z" fill="white"/>
<path d="M26.9362 26.1585H27.4464L27.0334 26.4577L26.9362 26.1585Z" fill="white"/>
<path d="M27.1124 26.216L27.2703 26.6996L26.8573 26.4004L27.1124 26.216Z" fill="white"/>
<path d="M29.1012 26.4004L28.6883 26.6996L28.8461 26.216L29.1012 26.4004Z" fill="white"/>
<path d="M28.9251 26.4577L28.5122 26.1585H29.0223L28.9251 26.4577Z" fill="white"/>
<path d="M28.8158 26.3067L28.9737 25.8231L29.1316 26.3067H28.8158Z" fill="white"/>
<path d="M28.9251 26.1585H29.4352L29.0223 26.4577L28.9251 26.1585Z" fill="white"/>
<path d="M29.1012 26.216L29.2591 26.6996L28.8462 26.4004L29.1012 26.216Z" fill="white"/>
</g>
</g>
</g>
</svg>
