<svg width="232" height="95" viewBox="0 0 232 95" fill="none" xmlns="http://www.w3.org/2000/svg">
<path d="M73.9582 56.8409C73.6239 56.8409 73.2897 56.8409 72.9972 56.8409C53.2332 56.8409 33.4692 56.8409 13.7053 56.8409C13.0367 56.8409 12.786 56.8409 12.7024 56.5896V38.7457H12.6606C12.6606 36.4 12.6606 34.0124 12.6606 31.6668C12.6606 31.3317 12.6606 30.9547 12.6606 30.5358C12.0757 30.7871 11.6578 30.9966 11.1982 31.206C7.64653 32.9653 4.09486 34.7664 0.543196 36.5257C0.167137 36.7351 0 36.9445 0 37.4053C0 38.2012 0 38.9551 0 39.751V69.3652H0.208922C0.334274 69.449 0.501412 69.449 0.710333 69.449C4.88876 69.449 9.10898 69.449 13.2874 69.449C28.9983 69.449 44.7092 69.449 60.4201 69.449C61.3811 69.449 61.3811 69.449 61.3811 70.4124C61.3811 74.0984 61.3394 77.7845 61.3394 81.4706C61.3394 82.3502 61.3394 82.3502 60.4619 82.3502C53.1078 82.3502 45.7956 82.3502 38.4416 82.3502H24.6527C16.7555 82.3502 8.81649 82.3502 0.919255 82.3502C0 82.3502 0 82.3502 0 83.2298C0 86.6227 0 90.0155 0 93.4084C0 95.0001 0 95.0001 1.54602 95.0001C9.23433 95.0001 16.9226 95.0001 24.611 95.0001H59.7516C64.0553 95.0001 68.3591 95.0001 72.6629 95.0001C73.9164 95.0001 73.9164 95.0001 73.9164 93.7016C73.9164 82.0151 73.9164 70.3705 73.9164 58.684C73.9582 58.1394 73.9582 57.5111 73.9582 56.8409Z" fill="#44B1E5"/>
<path d="M73.9582 48.9662V47.542L74 47.5001C74 47.3744 74 47.2907 73.9582 47.165H73.9164V45.5733C73.9164 45.5314 73.9164 45.5314 73.9164 45.5314C73.9582 44.8193 73.9582 44.1491 73.9582 43.4371C73.9582 30.5777 73.9582 17.7184 73.9582 4.85901C73.9582 3.2673 73.9582 1.67559 73.9582 0.0419922C73.7911 0.0838793 73.7075 0.0838793 73.6239 0.125766C69.6544 2.09446 65.6849 4.06316 61.7154 6.07374C61.5065 6.15751 61.3394 6.49261 61.3394 6.74393C61.2976 12.5244 61.2976 18.3048 61.2976 24.0852C61.2976 32.1275 61.3394 40.128 61.3811 48.1703C61.3811 48.6729 61.3811 49.1756 61.3811 49.6782C61.5065 49.7201 61.5483 49.7201 61.6318 49.7201C65.5596 49.7201 69.5291 49.7201 73.4568 49.7201C73.4986 49.7201 73.5404 49.7201 73.5822 49.7201H73.9164V49.5945C74.0418 49.385 74 49.1756 73.9582 48.9662Z" fill="#44B1E5"/>
<path d="M40.865 48.8405C40.865 49.0918 40.865 49.3431 40.865 49.6363C41.1158 49.6363 41.2829 49.6782 41.45 49.6782C45.1688 49.6782 48.8458 49.6782 52.5647 49.6782C53.5257 49.6782 53.5257 49.6782 53.5257 48.7148C53.5257 36.1068 53.5257 23.5407 53.5257 10.9326C53.5257 10.7232 53.4839 10.5138 53.4839 10.2625C53.2332 10.3462 53.1078 10.3881 52.9825 10.4719C49.0966 12.3987 45.2106 14.3674 41.3247 16.2942C40.9068 16.5036 40.9486 16.7968 40.9486 17.1319C40.865 27.6456 40.865 38.243 40.865 48.8405Z" fill="#44B1E5"/>
<path d="M21.31 49.6782C25.0288 49.6363 28.7476 49.6782 32.4664 49.6782C32.6753 49.6782 32.8842 49.6363 33.0932 49.6363C33.0932 39.8766 33.0932 30.1588 33.0932 20.3572C32.55 20.6086 32.0903 20.818 31.5889 21.0693C28.0791 22.8286 24.5274 24.6297 21.0175 26.3471C20.6414 26.5565 20.4743 26.766 20.4743 27.143C20.4743 34.3894 20.4743 41.6359 20.4743 48.8405C20.5161 49.4688 20.6832 49.6782 21.31 49.6782Z" fill="#44B1E5"/>
<path d="M110.479 21.0924L107.625 25.7905C105.484 24.3632 103.105 23.6496 100.548 23.6496C99.3586 23.6496 98.4071 23.828 97.6935 24.2443C96.9204 24.6011 96.5636 25.1363 96.5636 25.731C96.5636 26.4446 96.9204 26.9799 97.6935 27.3962C98.4666 27.8124 99.656 28.2287 101.262 28.7045C103.343 29.2992 105.068 29.8939 106.435 30.4291C107.803 31.0238 108.993 31.9158 110.004 33.1052C111.015 34.2946 111.49 35.8408 111.49 37.8033C111.49 39.8847 110.896 41.6093 109.706 42.8582C108.517 44.107 107.03 44.9991 105.306 45.5343C103.581 46.0695 101.797 46.3074 99.9533 46.3074C97.1583 46.3074 94.72 45.8316 92.6386 44.8801C90.6167 43.9286 89.0704 42.9771 88 41.9661L91.3303 37.3275C92.6386 38.279 93.9469 39.0521 95.3742 39.6468C96.8015 40.2415 98.4071 40.5389 100.191 40.5389C101.381 40.5389 102.392 40.3605 103.224 39.9442C104.057 39.5874 104.473 38.9332 104.473 37.9817C104.473 37.387 104.235 36.8518 103.819 36.495C103.403 36.0787 102.867 35.7813 102.154 35.5435C101.5 35.3056 100.489 34.9488 99.1208 34.5919C97.2772 34.0567 95.731 33.5215 94.4822 32.9863C93.2333 32.451 92.1629 31.6185 91.3303 30.548C90.4382 29.4776 90.022 28.0503 90.022 26.3257C90.022 24.5416 90.4977 23.0549 91.4492 21.806C92.4007 20.5572 93.6496 19.6651 95.2553 19.011C96.8609 18.2973 98.5855 18 100.489 18C102.451 18 104.235 18.2973 105.96 18.892C107.684 19.4867 109.171 20.2004 110.479 21.0924Z" fill="black"/>
<path d="M143.069 45.5938L141.82 28.4666L135.813 45.5938H128.439L122.492 28.5261L121.243 45.6533H114.048L116.426 18.8326H125.763L132.126 36.8518L138.489 18.7731H147.826L150.264 45.5938H143.069Z" fill="black"/>
<path d="M174.171 45.5938L172.506 41.193H161.088L159.423 45.5938H151.87L163.169 18.7731H170.484L181.783 45.5938H174.171ZM170.365 35.7813L166.737 26.3257L163.11 35.7813H170.365Z" fill="black"/>
<path d="M204.917 22.7575C205.809 24.0659 206.225 25.5526 206.225 27.3367C206.225 29.2397 205.69 30.8454 204.679 32.1537C203.668 33.462 202.241 34.4135 200.456 35.0082L207.058 45.6533H199.208L193.38 35.7219H190.882V45.6533H183.805V18.7731H196.234C198.078 18.7731 199.802 19.1299 201.289 19.7841C202.835 20.4382 204.025 21.4492 204.917 22.7575ZM190.882 30.6075H195.461C196.65 30.6075 197.542 30.3102 198.137 29.7155C198.732 29.1208 199.029 28.3477 199.029 27.4556C199.029 26.5636 198.732 25.7905 198.078 25.1958C197.424 24.6011 196.591 24.3038 195.402 24.3038H190.882V30.6075Z" fill="black"/>
<path d="M223.114 24.72V45.6533H216.037V24.72H207.89V18.7731H231.202V24.72H223.114Z" fill="black"/>
<path d="M90.8545 82.4648V55.6441H93.5901V82.4648H90.8545Z" fill="black"/>
<path d="M121.422 82.4648L105.662 59.807V82.4648H102.927V55.6441H105.96L121.481 77.8856V55.6441H124.217V82.4648H121.422Z" fill="black"/>
<path d="M141.701 82.5242L130.639 55.6441H133.553L142.771 78.7182L151.989 55.6441H154.903L143.901 82.5242H141.701Z" fill="black"/>
<path d="M164.121 58.1418V67.5974H177.68V70.0357H164.121V79.9671H179.642V82.4648H161.326V55.6441H179.226V58.1418H164.121Z" fill="black"/>
<path d="M202.36 59.9854C201.349 59.2717 200.278 58.677 199.148 58.2608C198.018 57.785 196.71 57.6066 195.223 57.6066C193.38 57.6066 191.952 57.9634 190.941 58.7365C189.93 59.5096 189.455 60.4017 189.455 61.5316C189.455 62.4236 189.752 63.1967 190.347 63.7914C190.941 64.3861 191.655 64.8619 192.428 65.2781C193.261 65.635 194.45 66.1107 195.996 66.7054C198.078 67.419 199.743 68.1327 200.873 68.6679C202.062 69.2626 203.073 70.0357 203.906 71.1061C204.738 72.1766 205.214 73.5444 205.214 75.2095C205.214 77.0531 204.738 78.5398 203.727 79.7292C202.716 80.9186 201.408 81.8106 199.862 82.3458C198.316 82.8811 196.71 83.1784 195.045 83.1784C192.666 83.1784 190.585 82.7027 188.741 81.6917C186.898 80.7402 185.53 79.6697 184.578 78.5993L186.362 76.6368C187.135 77.5883 188.325 78.4803 189.871 79.3129C191.417 80.1455 193.142 80.5618 195.045 80.5618C196.234 80.5618 197.364 80.3834 198.494 80.0265C199.624 79.6697 200.575 79.075 201.289 78.3019C202.003 77.5288 202.419 76.5178 202.419 75.3285C202.419 74.258 202.122 73.366 201.467 72.5929C200.813 71.8198 199.981 71.2251 198.97 70.7493C197.959 70.2736 196.65 69.7978 195.045 69.2626C193.261 68.6679 191.774 68.1327 190.644 67.5974C189.514 67.0622 188.563 66.2891 187.79 65.3971C187.016 64.505 186.66 63.2562 186.66 61.8289C186.66 59.8664 187.373 58.2608 188.86 57.0119C190.347 55.763 192.369 55.1684 195.045 55.1684C198.256 55.1684 201.17 56.1199 203.668 58.0229L202.36 59.9854Z" fill="black"/>
<path d="M220.914 58.1418V82.5242H218.178V58.1418H209.436V55.6441H229.715V58.1418H220.914Z" fill="black"/>
</svg>
