<svg width="28" height="28" viewBox="0 0 28 28" fill="none" xmlns="http://www.w3.org/2000/svg">
<g id="eva:arrow-ios-forward-fill">
<path id="Vector" d="M10.4923 5.8354C10.222 5.83486 9.96002 5.92959 9.75189 6.10313C9.63474 6.20086 9.53791 6.32088 9.46693 6.45632C9.39596 6.59175 9.35223 6.73995 9.33826 6.89242C9.32429 7.04488 9.34035 7.19863 9.38552 7.34484C9.43069 7.49106 9.50408 7.62687 9.60149 7.74449L14.7843 13.984L9.78659 20.2351C9.6905 20.3542 9.61873 20.4912 9.57543 20.6383C9.53212 20.7854 9.51813 20.9396 9.53426 21.0921C9.55039 21.2446 9.59631 21.3925 9.66939 21.5271C9.74248 21.6617 9.84128 21.7804 9.96012 21.8765C10.0798 21.9825 10.22 22.0624 10.3718 22.1113C10.5237 22.1602 10.684 22.1769 10.8426 22.1605C11.0012 22.1441 11.1547 22.0949 11.2935 22.016C11.4323 21.9371 11.5534 21.8301 11.6492 21.7019L17.2369 14.7174C17.407 14.5091 17.5 14.2478 17.5 13.9782C17.5 13.7085 17.407 13.4473 17.2369 13.239L11.4525 6.25447C11.3364 6.11359 11.189 6.00223 11.0222 5.92942C10.8553 5.85661 10.6738 5.82439 10.4923 5.8354Z" fill="#3C4563"/>
</g>
</svg>
