<svg width="28" height="28" viewBox="0 0 28 28" fill="none" xmlns="http://www.w3.org/2000/svg">
<g id="eva:arrow-ios-forward-fill">
<path id="Vector" d="M11.6589 5.83544C11.3886 5.83491 11.1266 5.92964 10.9185 6.10318C10.8014 6.2009 10.7045 6.32092 10.6336 6.45636C10.5626 6.5918 10.5189 6.74 10.5049 6.89246C10.4909 7.04493 10.507 7.19867 10.5521 7.34489C10.5973 7.4911 10.6707 7.62691 10.7681 7.74454L15.9509 13.984L10.9532 20.2352C10.8571 20.3542 10.7854 20.4913 10.7421 20.6383C10.6988 20.7854 10.6848 20.9396 10.7009 21.0922C10.717 21.2447 10.7629 21.3925 10.836 21.5271C10.9091 21.6617 11.0079 21.7805 11.1267 21.8765C11.2464 21.9825 11.3866 22.0624 11.5385 22.1113C11.6903 22.1602 11.8506 22.177 12.0092 22.1606C12.1678 22.1442 12.3213 22.095 12.4601 22.016C12.5989 21.9371 12.72 21.8302 12.8158 21.7019L18.4035 14.7174C18.5736 14.5091 18.6667 14.2478 18.6667 13.9782C18.6667 13.7086 18.5736 13.4473 18.4035 13.239L12.6191 6.25451C12.5031 6.11364 12.3556 6.00228 12.1888 5.92946C12.022 5.85665 11.8404 5.82444 11.6589 5.83544Z" fill="white"/>
</g>
</svg>
