<svg width="21" height="24" viewBox="0 0 21 24" fill="none" xmlns="http://www.w3.org/2000/svg">
<g id="&#240;&#159;&#166;&#134; icon &#34;ruler&#34;">
<path id="Vector" d="M20.625 19.95H4.0875V0.375C4.0875 0.15 3.9375 0 3.7125 0H0.375C0.1875 0 0 0.15 0 0.375V23.625C0 23.85 0.1875 24 0.375 24H20.625C20.85 24 21 23.85 21 23.625V20.325C21 20.1 20.8125 19.95 20.625 19.95ZM3.3375 0.75V20.175L0.75 22.725V20.2125H1.35C1.575 20.2125 1.725 20.0625 1.725 19.8375C1.725 19.6125 1.575 19.4625 1.35 19.4625H0.75V18H1.35C1.575 18 1.725 17.85 1.725 17.625C1.725 17.4 1.575 17.25 1.35 17.25H0.75V15.7875H1.9125C2.1375 15.7875 2.2875 15.6375 2.2875 15.4125C2.2875 15.1875 2.1375 15.0375 1.9125 15.0375H0.75V13.6125H1.35C1.575 13.6125 1.725 13.4625 1.725 13.2375C1.725 13.0125 1.575 12.8625 1.35 12.8625H0.75V11.4H1.35C1.575 11.4 1.725 11.25 1.725 11.025C1.725 10.8 1.575 10.65 1.35 10.65H0.75V9.1875H1.9125C2.1375 9.1875 2.2875 9.0375 2.2875 8.8125C2.2875 8.5875 2.1375 8.4375 1.9125 8.4375H0.75V7.0125H1.35C1.575 7.0125 1.725 6.8625 1.725 6.6375C1.725 6.4125 1.575 6.2625 1.35 6.2625H0.75V4.8H1.35C1.575 4.8 1.725 4.65 1.725 4.425C1.725 4.2 1.575 4.05 1.35 4.05H0.75V2.55H1.9125C2.1375 2.55 2.2875 2.4 2.2875 2.175C2.2875 1.95 2.1375 1.8 1.9125 1.8H0.75V0.75H3.3375ZM20.25 23.25H19.3125V21.975C19.3125 21.75 19.1625 21.6 18.9375 21.6C18.7125 21.6 18.5625 21.75 18.5625 21.975V23.25H17.4V22.5375C17.4 22.3125 17.25 22.1625 17.025 22.1625C16.8 22.1625 16.65 22.3125 16.65 22.5375V23.25H15.4875V22.5375C15.4875 22.3125 15.3375 22.1625 15.1125 22.1625C14.8875 22.1625 14.7375 22.3125 14.7375 22.5375V23.25H13.6125V21.975C13.6125 21.75 13.4625 21.6 13.2375 21.6C13.0125 21.6 12.8625 21.75 12.8625 21.975V23.25H11.7V22.5375C11.7 22.3125 11.55 22.1625 11.325 22.1625C11.1 22.1625 10.95 22.3125 10.95 22.5375V23.25H9.7875V22.5375C9.7875 22.3125 9.6375 22.1625 9.4125 22.1625C9.1875 22.1625 9.0375 22.3125 9.0375 22.5375V23.25H7.9125V21.975C7.9125 21.75 7.7625 21.6 7.5375 21.6C7.3125 21.6 7.1625 21.75 7.1625 21.975V23.25H6V22.5375C6 22.3125 5.85 22.1625 5.625 22.1625C5.4 22.1625 5.25 22.3125 5.25 22.5375V23.25H4.0875V22.5375C4.0875 22.3125 3.9375 22.1625 3.7125 22.1625C3.4875 22.1625 3.3375 22.3125 3.3375 22.5375V23.25H1.3125L3.8625 20.7H20.25V23.25Z" fill="black"/>
</g>
</svg>
