<svg width="35" height="35" viewBox="0 0 35 35" fill="none" xmlns="http://www.w3.org/2000/svg">
<g id="telegram-icon">
<path id="Vector" d="M17.5 0C14.0388 0 10.6554 1.02636 7.77753 2.94928C4.89967 4.87221 2.65665 7.60533 1.33212 10.803C0.00758245 14.0007 -0.338976 17.5194 0.336265 20.9141C1.01151 24.3087 2.67822 27.4269 5.12564 29.8744C7.57306 32.3218 10.6913 33.9885 14.0859 34.6637C17.4806 35.339 20.9993 34.9924 24.197 33.6679C27.3947 32.3433 30.1278 30.1003 32.0507 27.2225C33.9736 24.3446 35 20.9612 35 17.5C35 12.8587 33.1563 8.40752 29.8744 5.12563C26.5925 1.84374 22.1413 0 17.5 0ZM17.5 32.6C14.5045 32.6 11.5763 31.7112 9.08618 30.0462C6.59602 28.3812 4.65584 26.0149 3.51123 23.2467C2.36662 20.4785 2.06904 17.4329 2.65617 14.4955C3.2433 11.5581 4.68874 8.86092 6.80951 6.7454C8.93028 4.62989 11.631 3.19115 14.5699 2.6113C17.5087 2.03146 20.5536 2.33659 23.3189 3.48806C26.0843 4.63954 28.4458 6.58558 30.1046 9.07986C31.7634 11.5741 32.6449 14.5045 32.6375 17.5C32.6342 21.5137 31.0383 25.3621 28.2002 28.2002C25.3621 31.0383 21.5137 32.6342 17.5 32.6375V32.6Z" fill="black"/>
<path id="Vector_2" d="M21.7 8.8873L8.74999 13.1998C8.12043 13.4004 7.56079 13.7756 7.13625 14.2819C6.7117 14.7882 6.43972 15.4047 6.35197 16.0596C6.26421 16.7145 6.3643 17.3808 6.64057 17.981C6.91685 18.5812 7.35794 19.0906 7.91249 19.4498L12.0375 22.1998C12.2015 22.2837 12.3565 22.3842 12.5 22.4998C12.6085 22.6076 12.7373 22.6928 12.8789 22.7508C13.0204 22.8087 13.172 22.8381 13.325 22.8373C13.6252 22.8323 13.9119 22.7114 14.125 22.4998L17.075 19.5498C17.2938 19.331 17.4167 19.0342 17.4167 18.7248C17.4167 18.4154 17.2938 18.1186 17.075 17.8998C16.8562 17.681 16.5594 17.5581 16.25 17.5581C15.9406 17.5581 15.6438 17.681 15.425 17.8998L13.1875 20.1373L9.21249 17.4998C9.03352 17.3787 8.89186 17.21 8.80342 17.0128C8.71497 16.8156 8.68325 16.5977 8.71182 16.3835C8.74038 16.1692 8.82809 15.9672 8.96511 15.8001C9.10213 15.6329 9.28303 15.5073 9.48749 15.4373L22.425 11.1248C22.6305 11.0549 22.8516 11.0439 23.063 11.0931C23.2745 11.1423 23.4679 11.2498 23.6215 11.4033C23.775 11.5569 23.8825 11.7503 23.9317 11.9618C23.9809 12.1732 23.9699 12.3943 23.9 12.5998L19.6 25.5123C19.5342 25.721 19.4096 25.9064 19.2411 26.0461C19.0725 26.1857 18.8673 26.2738 18.65 26.2998C18.4333 26.3288 18.2127 26.2961 18.0137 26.2055C17.8147 26.1148 17.6453 25.9699 17.525 25.7873L16.275 23.9623C16.204 23.8131 16.102 23.6807 15.9757 23.574C15.8495 23.4673 15.702 23.3887 15.543 23.3436C15.384 23.2984 15.2173 23.2876 15.0538 23.312C14.8903 23.3364 14.7339 23.3954 14.5951 23.485C14.4562 23.5746 14.338 23.6927 14.2484 23.8316C14.1588 23.9705 14.0999 24.1269 14.0755 24.2904C14.0511 24.4538 14.0619 24.6206 14.1071 24.7796C14.1522 24.9386 14.2308 25.0861 14.3375 25.2123L15.5875 27.0373C15.9039 27.5173 16.3345 27.9113 16.8406 28.184C17.3467 28.4567 17.9126 28.5996 18.4875 28.5998H18.95C19.5979 28.5156 20.209 28.2505 20.7131 27.8348C21.2172 27.4192 21.5939 26.8698 21.8 26.2498L26.1125 13.3123C26.3223 12.6957 26.3552 12.0326 26.2076 11.3982C26.0599 10.7638 25.7375 10.1835 25.2769 9.72288C24.8163 9.26231 24.236 8.93992 23.6016 8.79224C22.9672 8.64456 22.3041 8.67749 21.6875 8.8873H21.7Z" fill="black"/>
</g>
</svg>
