<svg width="25" height="24" viewBox="0 0 25 24" fill="none" xmlns="http://www.w3.org/2000/svg">
<path d="M7.5 20.9999H4.5C3.95 20.9999 3.5 20.5499 3.5 19.9999V8.68994C3.5 8.26994 3.75 7.89994 4.14 7.74994L15.14 3.51994C15.2921 3.46126 15.4561 3.44064 15.618 3.45986C15.7798 3.47909 15.9345 3.53758 16.0686 3.63025C16.2027 3.72292 16.3121 3.84696 16.3873 3.99156C16.4624 4.13617 16.5012 4.29696 16.5 4.45994V9.99994H8.5C7.95 9.99994 7.5 10.4499 7.5 10.9999V20.9999ZM17.5 11.9999H10.5C9.95 11.9999 9.5 12.4499 9.5 12.9999V19.9999C9.5 20.5499 9.95 20.9999 10.5 20.9999H14.5V16.9999C14.5 16.4499 14.95 15.9999 15.5 15.9999C16.05 15.9999 16.5 16.4499 16.5 16.9999V20.9999H20.5C21.05 20.9999 21.5 20.5499 21.5 19.9999V11.9999C21.5 10.8999 20.6 9.99994 19.5 9.99994C18.4 9.99994 17.5 10.8999 17.5 11.9999Z" fill="white"/>
</svg>
