<svg width="35" height="35" viewBox="0 0 35 35" fill="none" xmlns="http://www.w3.org/2000/svg">
<g id="whatsapp-icon">
<path id="Vector" d="M33.804 12.8815C32.2315 6.85362 27.3829 2.00508 21.2895 0.498102C15.196 -1.00888 8.57844 0.956748 4.38511 5.67425C-0.791036 11.4401 -1.44624 20.0888 2.74709 26.6409C2.41948 28.9997 2.1574 31.3584 1.8298 33.7172C1.69876 34.5689 2.74709 35.1586 3.46782 34.9621C5.76105 34.3068 8.1198 33.7172 10.413 33.0619C16.6375 35.6173 23.8448 34.4379 28.8244 29.8514C33.4764 25.5926 35.3765 18.9095 33.804 12.8815ZM29.2175 25.5271C25.2863 31.2929 17.5548 33.4551 11.1993 30.5722C11.1993 30.5722 11.1993 30.5722 11.1338 30.5722C10.8717 30.4411 10.5441 30.3756 10.1509 30.4411C8.31636 30.9653 6.48178 31.4239 4.64719 31.9481C4.84376 30.3756 5.04032 28.8686 5.23688 27.2961C5.3024 26.7719 5.43344 26.1823 5.17136 25.6581C4.9748 25.3305 4.71271 25.0029 4.51615 24.6098C4.05751 23.8235 3.66438 22.9717 3.33678 22.12C2.28844 19.106 2.22292 15.7645 3.20573 12.7505C4.90928 7.44331 9.75782 3.44654 15.2616 2.79133C20.9619 2.00508 26.6622 4.75695 29.6106 9.53997C32.6246 14.454 32.428 20.744 29.2175 25.5271Z" fill="black"/>
<path id="Vector_2" d="M26.2691 19.3682L23.3206 17.075C22.4034 16.3543 21.1585 16.4853 20.3722 17.2715L19.5204 18.1233C18.8652 17.7302 18.2755 17.2715 17.6859 16.7474C17.1617 16.2232 16.703 15.568 16.3099 14.9128L17.1617 14.061C17.9479 13.2748 18.0135 12.0299 17.3582 11.1126L15.065 8.09863C14.6064 7.44342 13.8856 7.0503 13.0994 7.0503C12.3131 6.98478 11.5269 7.31238 11.0027 7.83655L8.44742 10.3919C7.00596 11.8333 6.67835 14.061 7.59565 15.8956C8.84054 18.2544 10.413 20.351 12.2476 22.1856C14.0822 24.0202 16.2444 25.5927 18.5376 26.8376C19.2584 27.2307 19.9791 27.3618 20.6998 27.3618C21.8792 27.3618 23.1241 26.9031 23.9759 25.9858L26.5312 23.4305C27.0553 22.9063 27.3829 22.1201 27.3174 21.3338C27.3174 20.5476 26.9243 19.8269 26.2691 19.3682ZM24.6966 21.5959L22.1413 24.1512C21.4861 24.8064 20.5032 24.9375 19.717 24.5444C17.6203 23.4305 15.7202 22.0546 14.0167 20.351C12.3131 18.6475 10.9372 16.7474 9.82335 14.6507C9.43023 13.8645 9.56127 12.8817 10.2165 12.2264L12.7718 9.67113C12.7718 9.67113 12.7718 9.67113 12.8373 9.67113C12.9028 9.67113 12.9028 9.67113 12.9028 9.73665L14.9995 12.4885L14.1477 13.2748C13.4925 13.93 13.296 14.9783 13.7546 15.8301C14.2788 16.8784 14.9995 17.7957 15.7857 18.582C16.572 19.3682 17.4893 20.0889 18.5376 20.6131C19.3894 21.0718 20.3722 20.8752 21.0274 20.22L21.9447 19.3027L24.6311 21.3994C24.6311 21.3994 24.6966 21.3994 24.6966 21.4649C24.6966 21.5304 24.6966 21.5959 24.6966 21.5959Z" fill="black"/>
</g>
</svg>
