<svg width="98" height="98" viewBox="0 0 98 98" fill="none" xmlns="http://www.w3.org/2000/svg">
<g id="youtube-icon">
<path id="Vector" d="M91.8995 70.56C91.0032 75.1334 87.1955 78.6185 82.4915 79.2718C75.0986 80.36 62.7772 81.6667 48.8877 81.6667C35.2228 81.6667 22.9014 80.36 15.2839 79.2718C10.5799 78.6185 6.77017 75.1334 5.87592 70.56C4.97962 65.5518 4.08333 58.1467 4.08333 49C4.08333 39.8534 4.97962 32.4482 5.87592 27.44C6.77221 22.8667 10.5799 19.3816 15.2839 18.7282C22.6768 17.64 34.9982 16.3334 48.8877 16.3334C62.7772 16.3334 74.874 17.64 82.4915 18.7282C87.1955 19.3816 91.0053 22.8667 91.8995 27.44C92.7958 32.4482 93.9167 39.8534 93.9167 49C93.6921 58.1467 92.7958 65.5518 91.8995 70.56Z" fill="url(#paint0_linear_13_17)"/>
<path id="Vector_2" opacity="0.05" d="M66.052 45.815L42.7035 30.2494C41.5255 29.4633 40.0207 29.3898 38.7733 30.0595C37.5258 30.7271 36.75 32.0195 36.75 33.4344V64.5657C36.75 65.9806 37.5258 67.275 38.7733 67.9426C39.3409 68.2468 39.9595 68.3959 40.5781 68.3959C41.3213 68.3959 42.0604 68.1794 42.7015 67.7527L66.05 52.1871C67.1178 51.4745 67.7548 50.2842 67.7548 49.0021C67.7568 47.7179 67.1178 46.5276 66.052 45.815Z" fill="black"/>
<path id="Vector_3" opacity="0.07" d="M42.2237 31.1089L64.2533 45.7966C65.66 46.8073 66.6073 47.7117 66.6073 48.8857C66.6073 50.0596 66.15 50.8783 65.1475 51.6093C64.3901 52.1605 42.5973 66.6441 42.5973 66.6441C40.7578 67.8773 37.7708 67.6159 37.7708 63.5836V34.1857C37.7708 30.0921 41.0048 30.2963 42.2237 31.1089Z" fill="black"/>
<path id="Vector_4" d="M38.7917 64.4513V33.5507C38.7917 32.0338 40.4822 31.1273 41.746 31.9705L64.923 47.4218C66.052 48.1731 66.052 49.831 64.923 50.5843L41.746 66.0357C40.4822 66.8748 38.7917 65.9703 38.7917 64.4513Z" fill="white"/>
</g>
<defs>
<linearGradient id="paint0_linear_13_17" x1="20.041" y1="20.1533" x2="84.2106" y2="84.3229" gradientUnits="userSpaceOnUse">
<stop stop-color="#F44F5A"/>
<stop offset="0.443" stop-color="#EE3D4A"/>
<stop offset="1" stop-color="#E52030"/>
</linearGradient>
</defs>
</svg>
